<?xml version="1.0" encoding="UTF-8" standalone="no"?>
<!-- Created with Pixodesk SVG (https://pixodesk.com) -->
<svg xmlns="http://www.w3.org/2000/svg" viewBox="-10 -10 20 20" text-rendering="geometricPrecision" shape-rendering="geometricPrecision" fill="none" stroke-width="0">
  <path fill="#ffbe00" stroke="#733700" transform="translate(-1.5, 1.5)" d="M0,-8C0.3387,-8,0.6724,-7.979,1,-7.9381C1,-7.9381,1,-5.1435,1,-5.1436C1,-4.512,1.512,-4,2.1436,-4C2.1436,-4,3.5651,-4,3.7373,-4C3.8824,-4,4,-3.8824,4,-3.7373C4,-3.7374,4,-2.4252,4,-2.1436C4,-1.8403,4.1205,-1.5494,4.335,-1.335C4.5494,-1.1205,4.8403,-1,5.1436,-1C5.1435,-1,7.9381,-1,7.9381,-1C7.979,-0.6724,8,-0.3387,8,0C8,4.4183,4.4183,8,0,8C-4.4183,8,-8,4.4183,-8,0C-8,-4.4183,-4.4183,-8,0,-8z" data-px-corners="[0,2]=1.1436|[0,3]=0.2627|[0,4]=1.1436" data-px-src-d="M0,-8C0.3387,-8,0.6724,-7.979,1,-7.9381L1,-4L4,-4L4,-1L7.9381,-1C7.979,-0.6724,8,-0.3387,8,0C8,4.4183,4.4183,8,0,8C-4.4183,8,-8,4.4183,-8,0C-8,-4.4183,-4.4183,-8,0,-8z"/>
  <path fill="#000000" stroke="#003a73" transform="translate(5.24, -5.24)scale(1.31, 1.31)" d="M-1,-1C-1,-1,-1,-2.4967,-1,-2.4966C-1,-2.7746,-0.7746,-3,-0.4966,-3C-0.4967,-3,0.2803,-3,0.4966,-3C0.7746,-3,1,-2.7746,1,-2.4966C1,-2.4967,1,-1,1,-1C1,-1,2.4967,-1,2.4966,-1C2.7746,-1,3,-0.7746,3,-0.4966C3,-0.4967,3,0.2803,3,0.4966C3,0.7746,2.7746,1,2.4966,1C2.4967,1,1,1,1,1C1,1,1,2.4967,1,2.4966C1,2.7746,0.7746,3,0.4966,3C0.4967,3,-0.2803,3,-0.4966,3C-0.7746,3,-1,2.7746,-1,2.4966C-1,2.4967,-1,1,-1,1C-1,1,-2.4967,1,-2.4966,1C-2.7746,1,-3,0.7746,-3,0.4966C-3,0.4967,-3,-0.2803,-3,-0.4966C-3,-0.7746,-2.7746,-1,-2.4966,-1C-2.4967,-1,-1,-1,-1,-1z" data-px-corners="[0,1]=0.5034|[0,2]=0.5034|[0,4]=0.5034|[0,5]=0.5034|[0,7]=0.5034|[0,8]=0.5034|[0,10]=0.5034|[0,11]=0.5034" data-px-src-d="M-1,-1L-1,-3L1,-3L1,-1L3,-1L3,1L1,1L1,3L-1,3L-1,1L-3,1L-3,-1L-1,-1z"/>
</svg>