<?xml version="1.0" encoding="UTF-8" standalone="no"?>
<!-- Created with Pixodesk SVG (https://pixodesk.com) -->
<svg xmlns="http://www.w3.org/2000/svg" viewBox="-10 -10 20 20" text-rendering="geometricPrecision" shape-rendering="geometricPrecision" fill="none">
  <path fill="#00ff23" stroke="#003a73" stroke-width="0" transform="translate(-6.514, -7.2633)" d="M0.12,-0.3578L6.2987,2.1395L8.5162,11.6551L13.7906,13.2913L13.2094,14.949L6.9446,12.9038L4.7271,3.5389L-0.7411,1.3645L0.12,-0.3578z"/>
  <g transform="translate(-0.0035, 0.0067)translate(0.0035, -0.0067)">
    <ellipse fill="#ff0000" stroke="#003a73" stroke-width="0" transform="translate(-6.6383, -6.6389)scale(1.2, 1.2)" rx="1.75" ry="1.75"/>
    <ellipse fill="#ff0000" stroke="#003a73" stroke-width="0" transform="translate(6.6313, 6.6523)scale(1.2, 1.2)" rx="1.75" ry="1.75"/>
    <ellipse fill="#ff0000" stroke="#003a73" stroke-width="0" transform="translate(1.43, 4.8227)scale(1.2, 1.2)" rx="1.75" ry="1.75"/>
    <ellipse fill="#ff0000" stroke="#003a73" stroke-width="0" transform="translate(-1.0674, -4.6051)scale(1.2, 1.2)" rx="1.75" ry="1.75"/>
  </g>
  <g transform="translate(0.0672, -0.1008)translate(-0.0672, 0.1008)">
    <path fill="#fa00ff" stroke="#003a73" stroke-width="0" transform="translate(-8.0141, 7.3106)scale(0.85, 0.85)" d="M-1.4692,-0.294C-1.5406,-0.1735,-1.5418,-0.024,-1.4725,0.0977C-1.4032,0.2194,-1.2739,0.2945,-1.1338,0.2945C-1.1338,0.2945,5.225,0.2945,5.4554,0.2945C5.6042,0.2945,5.7415,0.2147,5.8152,0.0854C5.8888,-0.0438,5.8875,-0.2027,5.8116,-0.3307C5.8118,-0.3304,2.5985,-5.7529,2.4942,-5.9289C2.4288,-6.0392,2.3102,-6.1067,2.1821,-6.1067C2.054,-6.1067,1.9354,-6.0392,1.8701,-5.9289C1.8701,-5.9291,-1.3632,-0.4729,-1.4692,-0.294z" data-px-corners="[0,0]=0.3898|[0,1]=0.4141|[0,2]=0.3627" data-px-src-d="M-1.8179,0.2945L6.1821,0.2945L2.1821,-6.4555L-1.8179,0.2945z"/>
    <path fill="#fa00ff" stroke="#003a73" stroke-width="0" transform="translate(4.4389, -2.2753)scale(0.85, 0.85)" d="M-1.4692,-0.294C-1.5405,-0.1735,-1.5418,-0.024,-1.4725,0.0977C-1.4033,0.2194,-1.2739,0.2945,-1.1338,0.2945C-1.1338,0.2945,5.225,0.2945,5.4554,0.2945C5.6041,0.2945,5.7416,0.2147,5.8152,0.0854C5.8887,-0.0438,5.8874,-0.2027,5.8116,-0.3307C5.8117,-0.3305,2.5984,-5.7529,2.4942,-5.9288C2.4288,-6.0391,2.3101,-6.1067,2.1821,-6.1067C2.054,-6.1067,1.9352,-6.0391,1.8701,-5.9288C1.8701,-5.929,-1.3632,-0.4729,-1.4692,-0.294z" data-px-corners="[0,0]=0.3898|[0,1]=0.4141|[0,2]=0.3627" data-px-src-d="M-1.8179,0.2945L6.1821,0.2945L2.1821,-6.4555L-1.8179,0.2945z"/>
  </g>
</svg>