<?xml version="1.0" encoding="UTF-8" standalone="no"?>
<!-- Created with Pixodesk SVG (https://pixodesk.com) -->
<svg xmlns="http://www.w3.org/2000/svg" viewBox="-7 -7 14 14" text-rendering="geometricPrecision" shape-rendering="geometricPrecision">
  <path class="cls-1" fill="#ff4141" fill-rule="evenodd" d="M-4.99,-5.001L-4.99,-5.001C-4.2687,-5.7206,-3.1012,-5.7206,-2.38,-5.001L0.005,-2.6169L2.3837,-5.001C3.1052,-5.7201,4.2723,-5.7201,4.9937,-5.001L4.9937,-5.001C5.7133,-4.2798,5.7133,-3.1123,4.9937,-2.391L2.6069,-0.0114L4.991,2.3727C5.7101,3.0941,5.7101,4.2612,4.991,4.9827L4.991,4.9827C4.2696,5.7017,3.1025,5.7017,2.381,4.9827L-0.0004,2.5959L-2.38,4.98C-3.1014,5.699,-4.2685,5.699,-4.99,4.98L-4.99,4.98C-5.709,4.2585,-5.709,3.0914,-4.99,2.37L-2.6077,-0.0114L-4.99,-2.3964C-5.7059,-3.117,-5.7059,-4.2804,-4.99,-5.001z"/>
</svg>