<?xml version="1.0" encoding="UTF-8" standalone="no"?>
<!-- Created with Pixodesk SVG (https://pixodesk.com) -->
<svg xmlns="http://www.w3.org/2000/svg" viewBox="-10 -10 17.891618720550778 20" text-rendering="geometricPrecision" shape-rendering="geometricPrecision">
  <g>
    <path fill="#0a2d8c" fill-rule="evenodd" transform="translate(-10, -10)scale(0.1627, 0.1627)" d="M38.884,13.221C38.843,14.977,39.139,15.822,40.665,15.824L77.375,15.824C84.022,16.345,89.971,18.096,95,21.508C98.492,23.877,101.04,26.691,102.963,29.81C106.375,35.347,108.303,43.331,109.347,49.777C109.797,52.564,110.008,55.169,109.527,56.377C109.299,56.946,108.962,57.33,108.504,57.512C105.98,58.523,103.312,55.048,101.89,53.385C95.12,45.467,85.28,42.191,73.678,41.576L40.118,41.576C38.917,41.784,38.491,42.672,38.611,44.042L38.611,53.493C38.541,56.634,36.957,57.703,33.817,56.643L4.92,33.966L2.078,31.735L1.351,31.165C-0.972,29.076,-0.017,27.174,2.068,25.532L4.274,23.796L31.964,1.999C35.343,-0.662,38.884,-1.374,38.884,4.361L38.884,13.221L38.884,13.221zM71.042,109.66C71.083,107.903,70.788,107.058,69.262,107.056L32.552,107.056C25.905,106.535,19.956,104.785,14.927,101.372C11.413,98.988,8.855,96.155,6.929,93.014C3.444,87.328,1.172,78.073,0.338,71.431C0.072,69.312,0.017,67.465,0.401,66.504C0.628,65.935,0.966,65.551,1.423,65.368C3.947,64.357,6.615,67.832,8.037,69.495C14.808,77.413,24.648,80.689,36.25,81.304L69.81,81.304C71.01,81.097,71.437,80.208,71.317,78.838L71.317,69.387C71.387,66.246,72.971,65.177,76.111,66.237L105.007,88.914L107.85,91.145L108.577,91.715C110.9,93.804,109.944,95.706,107.859,97.348L105.654,99.084L77.965,120.881C74.585,123.542,71.044,124.254,71.044,118.519L71.044,109.66L71.042,109.66z"/>
  </g>
</svg>