<?xml version="1.0" encoding="UTF-8" standalone="no"?>
<!-- Created with Pixodesk SVG (https://pixodesk.com) -->
<svg xmlns="http://www.w3.org/2000/svg" viewBox="-10 -10 20 20" text-rendering="geometricPrecision" shape-rendering="geometricPrecision">
  <path fill="#c8c8c8" stroke="#003a73" stroke-width="0" transform="translate(-6.25, -4)" d="M-0.25,0L12.75,0L12,10.75L10.5,12.5L2,12.5L0.5,10.5L-0.25,0z"/>
  <g transform="translate(0.0442, 0.034)scale(1.07, 1.07)translate(-0.0442, -0.034)">
    <path fill="#00001e" transform="translate(0.25, 0.25)" d="M-0.9205,-1.6071C-0.9325,-1.8687,-0.7998,-2.1156,-0.5751,-2.25C-0.3504,-2.3844,-0.0701,-2.3844,0.1546,-2.25C0.3793,-2.1156,0.512,-1.8687,0.5,-1.6071L0.5,5.8571C0.512,6.1187,0.3793,6.3656,0.1546,6.5C-0.0701,6.6344,-0.3504,6.6344,-0.5751,6.5C-0.7998,6.3656,-0.9325,6.1187,-0.9205,5.8571L-0.9205,-1.6071z"/>
    <path fill="#00001e" transform="translate(0.25, 0.25)" d="M-4.4204,-1.6072C-4.4324,-1.8687,-4.2998,-2.1157,-4.0751,-2.25C-3.8504,-2.3843,-3.57,-2.3843,-3.3453,-2.25C-3.1206,-2.1157,-2.988,-1.8687,-3,-1.6072L-2.0796,5.8571C-2.0676,6.1186,-2.2002,6.3657,-2.4249,6.5C-2.6496,6.6343,-2.93,6.6343,-3.1547,6.5C-3.3794,6.3657,-3.512,6.1186,-3.5,5.8571L-4.4204,-1.6072zM6.9305,-3.615L6.1999,6.0179C6.1458,6.8135,5.8091,7.5638,5.2505,8.1329C4.7012,8.6897,3.9507,9.0022,3.1685,8.9999L-3.5814,8.9999C-4.3626,9.0017,-5.1119,8.6892,-5.6604,8.1329L-5.6604,8.1329C-6.2192,7.5638,-6.5568,6.8136,-6.6115,6.0179L-7.339,-3.615L-8.5,-3.615L-8.5,-5.682C-8.5,-6.18,-8.2554,-6.369,-7.774,-6.369L-4.363,-6.369L-4.363,-7.8135C-4.3607,-8.7063,-3.6373,-9.4297,-2.7445,-9.432L2.3359,-9.432C3.2269,-9.4271,3.9476,-8.7045,3.9499,-7.8135L3.9499,-6.3705L7.4524,-6.3705C7.5025,-6.3715,7.5528,-6.3685,7.6024,-6.3615C7.8675,-6.3191,8.069,-6.0998,8.0885,-5.832C8.0885,-5.802,8.0885,-5.7749,8.0885,-5.7465L8.0885,-3.615L6.9305,-3.615zM5.5054,-3.5895L-5.914,-3.5895L-5.2,5.9128C-5.1715,6.3685,-4.9815,6.7994,-4.6645,7.1279L-4.6645,7.1279C-4.3807,7.4175,-3.9915,7.5798,-3.586,7.5779L3.1639,7.5779C3.5692,7.5788,3.958,7.4166,4.2424,7.1279C4.5608,6.8,4.7518,6.3689,4.7809,5.9128L5.5054,-3.582L5.5054,-3.5895zM2.15,-6.3705L2.15,-7.6245L-2.554,-7.6245L-2.554,-6.3705L2.15,-6.3705zM2.5795,-1.6072C2.5675,-1.8687,2.7001,-2.1157,2.9248,-2.25C3.1495,-2.3843,3.4299,-2.3843,3.6546,-2.25C3.8793,-2.1157,4.012,-1.8687,4,-1.6072L3.1705,5.8571C3.1825,6.1186,3.0498,6.3657,2.8251,6.5C2.6004,6.6343,2.32,6.6343,2.0953,6.5C1.8706,6.3657,1.738,6.1186,1.75,5.8571L2.5795,-1.6072z"/>
  </g>
</svg>