<?xml version="1.0" encoding="UTF-8" standalone="no"?>
<!-- Created with Pixodesk SVG (https://pixodesk.com) -->
<svg xmlns="http://www.w3.org/2000/svg" viewBox="-10 -10 20.00002552124872 20" text-rendering="geometricPrecision" shape-rendering="geometricPrecision" fill="url(#256)" stroke="#003a73">
  <defs>
    <radialGradient id="256" spreadMethod="pad" cx="61.3985" cy="57.99999" fx="61.3985" fy="57.99999" r="44.7969" gradientUnits="userSpaceOnUse">
      <stop offset="0%" stop-color="rgb(255,187,152)"/>
      <stop offset="100%" stop-color="rgb(215,100,0)"/>
    </radialGradient>
    <radialGradient id="956" spreadMethod="pad" cx="0.0018621511780303468" cy="1.1035707573927653" fx="0.0018621511780303468" fy="1.1035707573927653" r="3.9458" gradientTransform="scale(18.52, 18.52)" gradientUnits="userSpaceOnUse">
      <stop offset="0%" stop-color="rgb(0,0,0)"/>
      <stop offset="100%" stop-color="rgb(0,58,115)"/>
    </radialGradient>
    <radialGradient id="256" spreadMethod="pad" cx="61.3985" cy="57.99999" fx="61.3985" fy="57.99999" r="44.7969" gradientUnits="userSpaceOnUse">
      <stop offset="0%" stop-color="rgb(255,187,152)"/>
      <stop offset="100%" stop-color="rgb(215,100,0)"/>
    </radialGradient>
  </defs>
  <path fill="#b3a8fc" stroke="url(#956)" stroke-width="0.5" transform="translate(-4.9424, 2.9733)scale(1.15, 1.15)translate(-0.0019, -1.1036)" d="M0.0023,-4.6896C2.0197,-4.6896,4.4349,-3.0063,3.862,-0.2758C3.6286,0.8367,0.71,5.7186,0.1081,6.7175C0.0853,6.7555,0.0442,6.7787,0,6.7787C-0.0443,6.7787,-0.0853,6.7555,-0.1082,6.7176C-0.711,5.7182,-3.6356,0.8315,-3.862,-0.2758C-4.4202,-3.0063,-2.0151,-4.6896,0.0023,-4.6896zM0,-2.6538C-1.1229,-2.6538,-2.0331,-1.7435,-2.0331,-0.6207C-2.0331,0.5022,-1.1229,1.4124,0,1.4124C1.1229,1.4124,2.0331,0.5022,2.0331,-0.6207C2.0331,-1.7435,1.1229,-2.6538,0,-2.6538z" data-px-corners="[0,2]=0.1289" data-px-src-d="M0.0023,-4.6896C2.0197,-4.6896,4.4349,-3.0063,3.862,-0.2758C3.6016,0.9652,0,6.8965,0,6.8965C0,6.8965,-3.6095,0.9593,-3.862,-0.2758C-4.4202,-3.0063,-2.0151,-4.6896,0.0023,-4.6896zM0,-2.6538C-1.1229,-2.6538,-2.0331,-1.7435,-2.0331,-0.6207C-2.0331,0.5022,-1.1229,1.4124,0,1.4124C1.1229,1.4124,2.0331,0.5022,2.0331,-0.6207C2.0331,-1.7435,1.1229,-2.6538,0,-2.6538z"/>
  <g fill="#000000" transform="translate(0.8972, -1.1347)scale(0.82, 0.82)">
    <path transform="translate(-5.832, -0.8708)rotate(-45)scale(0.03, 0.03)" d="M326.612,185.391C386.359,245.2,385.539,341.089,326.972,399.981C326.862,400.101,326.732,400.231,326.612,400.351L259.412,467.551C200.142,526.821,103.713,526.813,44.452,467.551C-14.818,408.291,-14.818,311.851,44.452,252.591L81.558,215.485C91.398,205.645,108.344,212.185,108.852,226.091C109.5,243.813,112.678,261.618,118.542,278.812C120.528,284.634,119.109,291.074,114.759,295.424L101.672,308.511C73.646,336.537,72.767,382.171,100.517,410.471C128.541,439.05,174.603,439.22,202.842,410.981L270.042,343.791C298.233,315.6,298.115,270.034,270.042,241.961C266.341,238.267,262.613,235.397,259.701,233.392C255.5238,230.5235,252.948,225.8496,252.754,220.786C252.358,210.219,256.102,199.33,264.452,190.98L285.506,169.925C291.027,164.404,299.688,163.726,306.09,168.194C313.4217,173.3135,320.2888,179.068,326.612,185.391zM467.547,44.449C408.286,-14.813,311.857,-14.821,252.587,44.449L185.387,111.649C185.267,111.769,185.137,111.899,185.027,112.019C126.461,170.911,125.64,266.8,185.387,326.609C191.7098,332.9317,198.5766,338.6859,205.908,343.805C212.31,348.273,220.972,347.594,226.492,342.074L247.546,321.019C255.896,312.669,259.64,301.78,259.244,291.213C259.05,286.1494,256.4742,281.4755,252.297,278.607C249.385,276.602,245.657,273.732,241.956,270.038C213.883,241.965,213.765,196.399,241.956,168.208L309.156,101.018C337.395,72.779,383.456,72.949,411.481,101.528C439.231,129.828,438.353,175.462,410.326,203.488L397.239,216.575C392.889,220.925,391.47,227.365,393.456,233.187C399.32,250.381,402.498,268.186,403.146,285.908C403.655,299.814,420.6,306.354,430.44,296.514L467.546,259.408C526.817,200.149,526.817,103.709,467.547,44.449z"/>
  </g>
</svg>