<?xml version="1.0" encoding="UTF-8" standalone="no"?>
<!-- Created with Pixodesk SVG (https://pixodesk.com) -->
<svg xmlns="http://www.w3.org/2000/svg" viewBox="-10 -10 20.00002552124872 20" text-rendering="geometricPrecision" shape-rendering="geometricPrecision" fill="url(#256)" stroke="#003a73">
  <defs>
    <radialGradient id="256" spreadMethod="pad" cx="61.3985" cy="57.99999" fx="61.3985" fy="57.99999" r="44.7969" gradientUnits="userSpaceOnUse">
      <stop offset="0%" stop-color="rgb(255,187,152)"/>
      <stop offset="100%" stop-color="rgb(215,100,0)"/>
    </radialGradient>
    <radialGradient id="956" spreadMethod="pad" cx="0.0018621511780303468" cy="1.1035707573927653" fx="0.0018621511780303468" fy="1.1035707573927653" r="3.9458" gradientTransform="scale(18.52, 18.52)" gradientUnits="userSpaceOnUse">
      <stop offset="0%" stop-color="rgb(0,0,0)"/>
      <stop offset="100%" stop-color="rgb(0,58,115)"/>
    </radialGradient>
    <radialGradient id="256" spreadMethod="pad" cx="61.3985" cy="57.99999" fx="61.3985" fy="57.99999" r="44.7969" gradientUnits="userSpaceOnUse">
      <stop offset="0%" stop-color="rgb(255,187,152)"/>
      <stop offset="100%" stop-color="rgb(215,100,0)"/>
    </radialGradient>
  </defs>
  <path fill="#b3a8fc" stroke="url(#956)" stroke-width="0.5" transform="translate(-5.0285, 3.1024)scale(1.13, 1.13)translate(-0.0019, -1.1036)" d="M0.0023,-4.6896C2.0197,-4.6896,4.4349,-3.0063,3.862,-0.2758C3.6286,0.8367,0.71,5.7186,0.1081,6.7175C0.0853,6.7555,0.0442,6.7787,0,6.7787C-0.0443,6.7787,-0.0853,6.7555,-0.1082,6.7176C-0.711,5.7182,-3.6356,0.8315,-3.862,-0.2758C-4.4202,-3.0063,-2.0151,-4.6896,0.0023,-4.6896zM0,-2.6538C-1.1229,-2.6538,-2.0331,-1.7435,-2.0331,-0.6207C-2.0331,0.5022,-1.1229,1.4124,0,1.4124C1.1229,1.4124,2.0331,0.5022,2.0331,-0.6207C2.0331,-1.7435,1.1229,-2.6538,0,-2.6538z" data-px-corners="[0,2]=0.1289" data-px-src-d="M0.0023,-4.6896C2.0197,-4.6896,4.4349,-3.0063,3.862,-0.2758C3.6016,0.9652,0,6.8965,0,6.8965C0,6.8965,-3.6095,0.9593,-3.862,-0.2758C-4.4202,-3.0063,-2.0151,-4.6896,0.0023,-4.6896zM0,-2.6538C-1.1229,-2.6538,-2.0331,-1.7435,-2.0331,-0.6207C-2.0331,0.5022,-1.1229,1.4124,0,1.4124C1.1229,1.4124,2.0331,0.5022,2.0331,-0.6207C2.0331,-1.7435,1.1229,-2.6538,0,-2.6538z"/>
  <g fill="#ffffff" transform="translate(1.6792, 0.2799)scale(1.25, 1.25)translate(-2.5145, 0.4133)">
    <path fill="#e14222" transform="translate(11.4587, -1.1051)rotate(-180)scale(0.02, 0.02)" d="M404.775,72.606L390.7285,306.867L250.5253,306.8663L240.708,72.606L404.775,72.606z"/>
    <path fill="#e14222" transform="translate(-2.2368, -3.0022)rotate(-45)scale(0.02, 0.02)" d="M276.92,235.081C227.861,186.022,160.338,166.694,96.721,177.074L334.927,415.28C345.307,351.663,325.979,284.139,276.92,235.081z"/>
    <path fill="#e5e5e5" transform="translate(-2.2368, -3.0022)rotate(-45)scale(0.02, 0.02)" d="M63.083,485.576L8.096,503.904L26.425,448.918L197.495,277.848L234.153,314.506"/>
    <path fill="#cccccc" transform="translate(9.0906, 4.6123)rotate(-180)scale(0.02, 0.02)" d="M230.255,291.418L230.255,323.905L178.414,323.905L178.414,291.418L230.255,291.418z"/>
    <path fill="#e14222" stroke-width="0.25" transform="scale(0.99, 0.99)" d="M6.6446,-8.0869L3.3633,-8.0869C2.9816,-8.0869,2.6721,-7.7774,2.6721,-7.3956L2.6721,-7.3956C2.6721,-7.0139,3.2653,-6.7241,3.6471,-6.7241L6.4463,-6.7241C6.8281,-6.7241,7.3359,-7.0139,7.3359,-7.3956L7.3359,-7.3956C7.3359,-7.7774,7.0264,-8.0869,6.6446,-8.0869z"/>
    <path fill="#000000" stroke-width="0" transform="translate(-2.2368, -3.0022)rotate(-45)scale(0.02, 0.02)" d="M499.505,128.508L427.46,56.463C424.297,53.301,412.842,64.756,416.005,67.919L488.05,139.963C498.25,150.164,498.25,167.185,488.05,177.385C477.849,187.585,454.5753,179.9549,444.3753,169.7539L345.2351,70.6146C335.0351,60.4156,324.414,34.151,334.614,23.952C344.814,13.751,361.835,13.751,372.035,23.952L417.7389,70.2899C420.9019,73.4519,432.7551,60.6245,429.1939,58.8339L383.492,12.496C375.434,4.438,364.721,0,353.324,0C341.928,0,331.216,4.438,323.157,12.495C315.1,20.553,311.8164,32.7599,313.9335,43.9575C316.596,58.0403,323.8431,68.8006,328.5951,75.7996L204.956,179.574C201.564,178.32,198.146,177.133,194.693,176.054C162.797,166.096,128.469,163.685,95.416,169.078C89.033,170.119,86.412,178.218,90.993,182.801L186.039,277.847L135.523,328.6775C132.36,331.8425,143.816,343.2955,146.978,340.1335L197.494,289.303L222.697,314.505L58.707,478.495L20.903,491.097L33.504,453.293L153.515,333.282C156.678,330.117,145.222,318.664,142.06,321.826L20.697,443.189C19.808,444.078,19.137,445.162,18.74,446.356L0.411,501.343C-1.658,507.55,4.444,513.66,10.657,511.589L65.644,493.26C66.836,492.863,67.921,492.193,68.811,491.303L234.152,325.962L329.199,421.008C333.782,425.591,341.88,422.962,342.922,416.584C348.316,383.53,345.903,349.2,335.946,317.307C334.868,313.854,333.68,310.437,332.426,307.043L439.1913,186.3939C446.1903,191.1459,458.735,199.8407,467.381,199.8407C478.777,199.8407,491.447,196.898,499.506,188.841C507.563,180.783,512.001,170.07,512.001,158.674C512.001,147.278,507.562,136.566,499.505,128.508zM328.895,397.793L114.206,183.106C172.122,178.481,229.828,199.445,271.191,240.809C312.557,282.174,333.52,339.867,328.895,397.793zM282.648,229.353C264.801,211.506,243.867,196.922,221.123,186.32L339.5081,87.7996L427.1923,175.4839L325.682,290.878C315.079,268.134,300.494,247.2,282.648,229.353z"/>
  </g>
</svg>