<?xml version="1.0" encoding="UTF-8" standalone="no"?>
<!-- Created with Pixodesk SVG (https://pixodesk.com) -->
<svg xmlns="http://www.w3.org/2000/svg" viewBox="-10 -10 20.00002552124872 20" text-rendering="geometricPrecision" shape-rendering="geometricPrecision" fill="url(#13361)" stroke="#003a73">
  <defs>
    <radialGradient id="13361" spreadMethod="pad" cx="61.3985" cy="57.99999" fx="61.3985" fy="57.99999" r="44.7969" gradientUnits="userSpaceOnUse">
      <stop offset="0%" stop-color="rgb(255,187,152)"/>
      <stop offset="100%" stop-color="rgb(215,100,0)"/>
    </radialGradient>
    <radialGradient id="14061" spreadMethod="pad" cx="0.0018621511780303468" cy="1.1035707573927653" fx="0.0018621511780303468" fy="1.1035707573927653" r="3.9458" gradientTransform="scale(18.52, 18.52)" gradientUnits="userSpaceOnUse">
      <stop offset="0%" stop-color="rgb(0,0,0)"/>
      <stop offset="100%" stop-color="rgb(0,58,115)"/>
    </radialGradient>
    <radialGradient id="13361" spreadMethod="pad" cx="61.3985" cy="57.99999" fx="61.3985" fy="57.99999" r="44.7969" gradientUnits="userSpaceOnUse">
      <stop offset="0%" stop-color="rgb(255,187,152)"/>
      <stop offset="100%" stop-color="rgb(215,100,0)"/>
    </radialGradient>
  </defs>
  <path fill="#b3a8fc" stroke="url(#14061)" stroke-width="0.5" transform="translate(-4.9424, 2.9948)scale(1.15, 1.15)translate(-0.0019, -1.1036)" d="M0.0023,-4.6896C2.0197,-4.6896,4.4349,-3.0063,3.862,-0.2758C3.6286,0.8367,0.71,5.7186,0.1081,6.7175C0.0853,6.7555,0.0442,6.7787,0,6.7787C-0.0443,6.7787,-0.0853,6.7555,-0.1082,6.7176C-0.711,5.7182,-3.6356,0.8315,-3.862,-0.2758C-4.4202,-3.0063,-2.0151,-4.6896,0.0023,-4.6896zM0,-2.6538C-1.1229,-2.6538,-2.0331,-1.7435,-2.0331,-0.6207C-2.0331,0.5022,-1.1229,1.4124,0,1.4124C1.1229,1.4124,2.0331,0.5022,2.0331,-0.6207C2.0331,-1.7435,1.1229,-2.6538,0,-2.6538z" data-px-corners="[0,2]=0.1289" data-px-src-d="M0.0023,-4.6896C2.0197,-4.6896,4.4349,-3.0063,3.862,-0.2758C3.6016,0.9652,0,6.8965,0,6.8965C0,6.8965,-3.6095,0.9593,-3.862,-0.2758C-4.4202,-3.0063,-2.0151,-4.6896,0.0023,-4.6896zM0,-2.6538C-1.1229,-2.6538,-2.0331,-1.7435,-2.0331,-0.6207C-2.0331,0.5022,-1.1229,1.4124,0,1.4124C1.1229,1.4124,2.0331,0.5022,2.0331,-0.6207C2.0331,-1.7435,1.1229,-2.6538,0,-2.6538z"/>
  <g stroke-width="0" transform="translate(4.9093, -4.191)scale(0.59, 0.59)">
    <path fill="#dfdfdf" stroke="#003a73" stroke-width="0" transform="translate(-6.25, -4)" d="M-0.25,0L12.75,0L12,10.75L10.5,12.5L2,12.5L0.5,10.5L-0.25,0z" style="display:none"/>
    <path fill="#000000" transform="translate(0.25, 0.25)" d="M-0.9205,-1.6071C-0.9325,-1.8687,-0.7998,-2.1156,-0.5751,-2.25C-0.3504,-2.3844,-0.0701,-2.3844,0.1546,-2.25C0.3793,-2.1156,0.512,-1.8687,0.5,-1.6071L0.5,5.8571C0.512,6.1187,0.3793,6.3656,0.1546,6.5C-0.0701,6.6344,-0.3504,6.6344,-0.5751,6.5C-0.7998,6.3656,-0.9325,6.1187,-0.9205,5.8571L-0.9205,-1.6071z" style="display:none"/>
    <path fill="#000000" transform="translate(0.25, 0.25)" d="M-3.5327,-1.6486C-3.5447,-1.9101,-3.4121,-2.1571,-3.1874,-2.2914C-2.9627,-2.4257,-2.6823,-2.4257,-2.4576,-2.2914C-2.2329,-2.1571,-2.1003,-1.9101,-2.1123,-1.6486L-1.1919,5.8157C-1.1799,6.0772,-1.3125,6.3243,-1.5372,6.4586C-1.7619,6.5929,-2.0423,6.5929,-2.267,6.4586C-2.4917,6.3243,-2.6243,6.0772,-2.6123,5.8157L-3.5327,-1.6486zM6.9305,-3.615L6.1999,6.0179C6.1458,6.8135,5.8091,7.5638,5.2505,8.1329C4.7012,8.6897,3.9507,9.0022,3.1685,8.9999L-3.5814,8.9999C-4.3626,9.0017,-5.1119,8.6892,-5.6604,8.1329L-5.6604,8.1329C-6.2192,7.5638,-6.5568,6.8136,-6.6115,6.0179L-7.339,-3.615L-8.5,-3.615L-8.5,-5.682C-8.5,-6.18,-8.2554,-6.369,-7.774,-6.369L-4.363,-6.369L-4.363,-7.8135C-4.3607,-8.7063,-3.6373,-9.4297,-2.7445,-9.432L2.3359,-9.432C3.2269,-9.4271,3.9476,-8.7045,3.9499,-7.8135L3.9499,-6.3705L7.4524,-6.3705C7.5025,-6.3715,7.5528,-6.3685,7.6024,-6.3615C7.8675,-6.3191,8.069,-6.0998,8.0885,-5.832C8.0885,-5.802,8.0885,-5.7749,8.0885,-5.7465L8.0885,-3.615L6.9305,-3.615zM5.5054,-3.5895L-5.914,-3.5895L-5.2,5.9128C-5.1715,6.3685,-4.9815,6.7994,-4.6645,7.1279L-4.6645,7.1279C-4.3807,7.4175,-3.9915,7.5798,-3.586,7.5779L3.1639,7.5779C3.5692,7.5788,3.958,7.4166,4.2424,7.1279C4.5608,6.8,4.7518,6.3689,4.7809,5.9128L5.5054,-3.582L5.5054,-3.5895zM2.15,-6.3705L2.15,-7.6245L-2.554,-7.6245L-2.554,-6.3705L2.15,-6.3705zM1.8213,-1.6327C1.8093,-1.8942,1.9419,-2.1412,2.1666,-2.2755C2.3913,-2.4098,2.6717,-2.4098,2.8964,-2.2755C3.1211,-2.1412,3.2538,-1.8942,3.2418,-1.6327L2.4123,5.8316C2.4243,6.0931,2.2916,6.3402,2.0669,6.4745C1.8422,6.6088,1.5618,6.6088,1.3371,6.4745C1.1124,6.3402,0.9798,6.0931,0.9918,5.8316L1.8213,-1.6327z"/>
  </g>
</svg>