<?xml version="1.0" encoding="UTF-8" standalone="no"?>
<!-- Created with Pixodesk SVG (https://pixodesk.com) -->
<svg xmlns="http://www.w3.org/2000/svg" viewBox="0 0 512 512" text-rendering="geometricPrecision" shape-rendering="geometricPrecision" fill-rule="evenodd">
  <path d="M222.3811,90.6609L182.7351,104.5289C162.5581,112.3219,146.0671,99.2179,160.1061,84.9929L235.6051,9.4919C248.3131,-3.2141,253.6331,-3.2141,266.3411,9.4919L341.8411,84.9929C355.8791,99.2179,339.3871,112.3219,319.2121,104.5289L279.5661,90.6609L279.6041,221.7919L421.3391,221.8299L407.4701,182.1829C399.6781,162.0079,412.7821,145.5159,427.0061,159.5549L502.5081,235.0539C515.2141,247.7619,515.2141,253.0819,502.5081,265.7899L427.0061,341.2899C412.7821,355.3279,399.6781,338.8369,407.4701,318.6609L421.3391,279.0149L279.6041,278.9769L279.5661,421.2629L319.2121,407.3939C339.3871,399.6019,355.8791,412.7059,341.8411,426.9309L266.3411,502.4319C253.6331,515.1379,248.3131,515.1379,235.6051,502.4319L160.1061,426.9309C146.0671,412.7059,162.5581,399.6019,182.7351,407.3939L222.3811,421.2629L222.4191,278.9769L90.7371,279.0149L104.6051,318.6609C112.3981,338.8369,99.2941,355.3279,85.0691,341.2899L9.5681,265.7899C-3.1379,253.0819,-3.1379,247.7619,9.5681,235.0539L85.0691,159.5549C99.2941,145.5159,112.3981,162.0079,104.6051,182.1829L90.7371,221.8299L222.4191,221.7919L222.3811,90.6609z"/>
  <ellipse fill="#ff0034" stroke="#003a73" cx="250" cy="250" rx="98.9279" ry="96.7234"/>
</svg>