<?xml version="1.0" encoding="UTF-8" standalone="no"?>
<!-- Created with Pixodesk SVG (https://pixodesk.com) -->
<svg xmlns="http://www.w3.org/2000/svg" viewBox="-10 -10 20 20" text-rendering="geometricPrecision" shape-rendering="geometricPrecision">
  <path fill="#001ec8" transform="translate(-10, -9.4315)scale(0.0375, 0.0375)" d="M83.416,261.753C83.416,211.473,107.463,167.062,144.396,138.643L209.978,204.225L209.978,20.135L25.888,20.135L91.24,85.487C40.845,127.598,8.63,190.763,8.63,261.753C8.63,388.89,111.605,491.865,238.742,491.865L238.742,417.078C152.91,417.079,83.416,347.585,83.416,261.753z"/>
  <path fill="#5a9bff" transform="translate(-10, -9.4315)scale(0.0375, 0.0375)" d="M43.146,261.753C43.146,190.763,75.362,127.597,125.756,85.487L60.404,20.135L25.888,20.135L91.24,85.487C40.845,127.598,8.63,190.763,8.63,261.753C8.63,388.89,111.605,491.865,238.742,491.865L238.742,488.877C128.045,472.207,43.146,377.117,43.146,261.753z"/>
  <path fill="#2d80ff" transform="translate(-10, -9.4315)scale(0.0375, 0.0375)" d="M428.584,250.247C428.584,300.527,404.537,344.938,367.604,373.357L302.022,307.775L302.022,491.865L486.112,491.865L420.76,426.513C471.155,384.402,503.37,321.237,503.37,250.247C503.37,123.11,400.395,20.135,273.258,20.135L273.258,94.922C359.09,94.921,428.584,164.415,428.584,250.247z"/>
  <path fill="#0800c8" transform="translate(-10, -9.4315)scale(0.0375, 0.0375)" d="M468.854,250.247C468.854,321.237,436.638,384.403,386.244,426.513L451.596,491.865L486.113,491.865L420.761,426.513C471.156,384.402,503.371,321.237,503.371,250.247C503.371,123.11,400.396,20.135,273.259,20.135L273.259,23.123C383.955,39.793,468.854,134.883,468.854,250.247z"/>
</svg>