<?xml version="1.0" encoding="UTF-8" standalone="no"?>
<!-- Created with Pixodesk SVG (https://pixodesk.com) -->
<svg xmlns="http://www.w3.org/2000/svg" viewBox="-10 -10 20 20" text-rendering="geometricPrecision" shape-rendering="geometricPrecision">
  <rect fill="#cfcfcf" stroke="#003a73" stroke-width="0" transform="translate(0.222, 0.1343)translate(-8.7235, -8.7358)" x="0.0016" y="0.1015" width="17" height="17"/>
  <path fill="#6f6f6f" stroke="#003a73" stroke-width="0" transform="translate(-4.75, 5)translate(-3.25, -3.5)" d="M7,-0.5L7,7L-0.5,7L-0.5,-0.5L7,-0.5z"/>
  <path fill="#020202" stroke="#003a73" stroke-width="0" transform="translate(-17.5, 0)" d="M9,0L9,1.5C9,1.5,15.7905,1.5,15.5203,1.5C15.6475,1.5,15.7695,1.5505,15.8595,1.6405C15.9495,1.7305,16,1.8525,16,1.9797C16,1.7095,16,8.5,16,8.5L17.5,8.5C17.5,8.5,17.5,0.663,17.5,1.3654C17.5,0.6113,16.8887,0,16.1346,0C16.837,0,9,0,9,0z" data-px-corners="[0,2]=0.4797|[0,5]=1.3654" data-px-src-d="M9,0L9,1.5L16,1.5L16,8.5L17.5,8.5L17.5,0L9,0z"/>
  <g>
    <path fill="#020202" transform="translate(-9.3985, -9.4493)scale(0.04, 0.04)" d="M402.708,61.688L312.829,61.666C310.208,61.666,307.84,63.25,306.842,65.671C305.835,68.092,306.387,70.874,308.24,72.735L342.079,106.573L277.4956,171.4473L243.6866,137.6383C241.8336,135.7863,239.0436,135.2333,236.6226,136.2323C234.2016,137.2383,232.6256,139.6003,232.6256,142.2213L232.6176,232.0833C232.6176,235.6653,235.5136,238.5633,239.0976,238.5633L328.9756,238.5853C331.5976,238.5853,333.9646,237.0033,334.9626,234.5823C335.9706,232.1593,335.4176,229.3773,333.5646,227.5163L299.7556,193.7083L364.309,128.804L398.118,162.613C399.971,164.466,402.761,165.019,405.182,164.019C407.603,163.013,409.179,160.653,409.179,158.032L409.187,68.169C409.188,64.587,406.29,61.688,402.708,61.688z"/>
    <path fill="#020202" transform="translate(-9.3985, -9.4492)scale(0.04, 0.04)" d="M435.279,0L37.022,0C16.5741,0,0,16.5733,0,37.022L0,435.278C0,455.727,16.5741,472.3,37.022,472.3L435.28,472.3C455.727,472.3,472.301,455.727,472.301,435.278L472.301,37.022C472.3001,16.5733,455.7269,0,435.279,0zM440.813,435.278C440.813,438.33,438.3309,440.813,435.279,440.813L37.022,440.813C33.9701,440.813,31.487,438.33,31.487,435.278L31.487,37.022C31.487,33.9691,33.9701,31.486,37.022,31.486L435.28,31.486C438.3309,31.486,440.814,33.969,440.814,37.022L440.814,435.278L440.813,435.278z"/>
  </g>
</svg>