<?xml version="1.0" encoding="UTF-8" standalone="no"?>
<!-- Created with Pixodesk SVG (https://pixodesk.com) -->
<svg xmlns="http://www.w3.org/2000/svg" viewBox="-10 -10 20 20" text-rendering="geometricPrecision" shape-rendering="geometricPrecision">
  <g transform="rotate(44.99999999999997)scale(0.89, 0.89)">
    <path fill="#00d722" transform="translate(-10.0986, 9.5919)rotate(-90)scale(0.04, 0.04)" d="M119.899,40.961L223.336,177.062L158.007,177.062L158.007,471.039L81.791,471.039L81.791,177.062L16.463,177.062"/>
    <path fill="#00961f" transform="translate(-10.0986, 9.5919)rotate(-90)scale(0.04, 0.04)" d="M16.463,177.062L81.791,177.062L81.791,471.039L119.899,471.039L119.899,40.961"/>
    <path transform="translate(-10.0986, 9.5919)rotate(-90)scale(0.04, 0.04)" d="M166.174,479.205L73.625,479.205L73.625,185.228L0,185.228L119.899,27.465L239.798,185.227L166.173,185.227L166.173,479.205L166.174,479.205zM89.957,462.873L149.841,462.873L149.841,168.896L206.873,168.896L119.899,54.457L32.925,168.896L89.957,168.896L89.957,462.873z"/>
    <path fill="#ffa300" transform="translate(-10.3118, 10.888)rotate(-90)scale(0.04, 0.04)" d="M392.101,471.039L288.664,334.938L353.993,334.938L353.993,40.961L430.209,40.961L430.209,334.938L495.537,334.938"/>
    <path fill="#ffd68d" transform="translate(-10.3118, 10.888)rotate(-90)scale(0.04, 0.04)" d="M495.537,334.938L430.209,334.938L430.209,40.961L392.101,40.961L392.101,471.039"/>
    <path transform="translate(-10.3118, 10.888)rotate(-90)scale(0.04, 0.04)" d="M392.101,484.535L272.201,326.772L345.826,326.772L345.826,32.795L438.374,32.795L438.374,326.773L512,326.773L392.101,484.535zM305.127,343.104L392.101,457.543L479.075,343.104L422.043,343.104L422.043,49.127L362.159,49.127L362.159,343.105L305.127,343.105L305.127,343.104z"/>
  </g>
</svg>