<?xml version="1.0" encoding="UTF-8" standalone="no"?>
<!-- Created with Pixodesk SVG (https://pixodesk.com) -->
<svg xmlns="http://www.w3.org/2000/svg" viewBox="-20 -20 40 40" text-rendering="geometricPrecision" shape-rendering="geometricPrecision">
  <g transform="translate(3.1089, 9.2723)translate(-3.4534, -0.0151)">
    <path fill="#c6c5ca" stroke="#010101" transform="translate(0, 0.0001)" d="M17.7486,-0.7611C17.6683,-0.8529,15.7469,-3.0362,12.6387,-5.2362C8.4746,-8.1835,4.1457,-9.7415,0.1199,-9.7415C-3.9058,-9.7415,-8.2347,-8.1836,-12.3987,-5.2362C-15.5069,-3.0362,-17.4284,-0.8529,-17.5086,-0.7611C-17.897,-0.3166,-17.897,0.3466,-17.5086,0.7911C-17.4283,0.8829,-15.5069,3.0662,-12.3987,5.2662C-8.2346,8.2135,-3.9057,9.7715,0.1199,9.7715C4.1457,9.7715,8.4746,8.2136,12.6387,5.2662C15.7469,3.0662,17.6684,0.8829,17.7486,0.7911C18.1371,0.3467,18.1371,-0.3166,17.7486,-0.7611z"/>
    <path fill="#e1e1e3" stroke="#000000" stroke-width="0" transform="translate(0, 0.0001)" d="M0.0814,-9.2054C-3.9443,-9.2054,-7.9419,-7.5601,-12.1867,-4.7302C-13.2284,-4.0358,-16.6589,-0.8484,-16.7391,-0.7566C-17.1634,-0.4094,-17.6264,0.1693,-16.8548,0.5937C-16.6233,0.9795,-14.7292,2.8581,-11.6852,5.146C-5.7826,9.5826,0.2357,9.2354,0.2357,9.2354L0.0814,-9.2054z"/>
    <path fill="#8dc652" d="M0.1199,-6.6519L0.1199,-6.6519C-3.5562,-6.6519,-6.547,-3.661,-6.547,0.0151C-6.547,3.6912,-3.5563,6.682,0.1199,6.682L0.1199,6.682L0.1199,-6.6519L0.1199,-6.6519z"/>
    <path fill="#3a7545" transform="translate(3.4534, 0.0151)translate(-3.4534, -0.0151)" d="M0.1199,6.682L0.1199,-6.6519C3.7961,-6.6519,6.7869,-3.661,6.7869,0.0151C6.7869,3.6912,3.7961,6.682,0.1199,6.682z"/>
    <path fill="#252426" transform="translate(0, 0.0001)" d="M0.1199,-2.8699C-1.4708,-2.8699,-2.7649,-1.5758,-2.7649,0.0149C-2.7649,1.6056,-1.4708,2.8998,0.1199,2.8998C1.7106,2.8998,3.0048,1.6056,3.0048,0.0149C3.0048,-1.5758,1.7107,-2.8699,0.1199,-2.8699z"/>
    <path fill="#39383b" transform="translate(0, 0.0001)" d="M0.1199,-2.8699L0.1199,-2.8699C-1.4708,-2.8699,-2.7649,-1.5758,-2.7649,0.0149C-2.7649,1.6056,-1.4708,2.8998,0.1199,2.8998L0.1199,2.8998L0.1199,-2.8699z"/>
  </g>
  <path fill="#ff0000" stroke="#000000" stroke-width="0" transform="translate(-5.8733, -10.3779)scale(2.13, 2.13)translate(-0.0008, 0.789)" d="M0,-5C2.7614,-5,5,-2.7614,5,0C5,0.7265,5.0338,1.002,4.7948,1.5377C3.9792,1.2926,3.1724,1.1673,2.3901,1.1673C0.5001,1.1673,-1.5323,1.8987,-3.4872,3.2824C-3.5431,3.3119,-3.5845,3.3904,-3.6455,3.422C-4.641,2.5136,-5,1.463,-5,0C-5,-2.7614,-2.7614,-5,0,-5z"/>
</svg>