<?xml version="1.0" encoding="UTF-8" standalone="no"?>
<!-- Created with Pixodesk SVG (https://pixodesk.com) -->
<svg xmlns="http://www.w3.org/2000/svg" viewBox="0 0 300 100" text-rendering="geometricPrecision" shape-rendering="geometricPrecision" fill="none">
  <g data-px-label="Editor Text" stroke-width="2" transform="translate(0, -95)" style="pointer-events:none">
    <path fill="#b4dcc8cc" stroke="#003a73" transform="translate(125.5, 158.5)scale(0.5, 0.5)" d="M1.3351,2.0027C0.501,0.7516,-0.9031,0,-2.4068,0C-2.4067,0,-15.0598,0,-15.8786,0C-17.2368,0,-18.5396,0.5395,-19.5,1.4999C-20.4604,2.4603,-21,3.7631,-21,5.1213C-21,5.1197,-21,33.2836,-21,33.8786C-21,35.2368,-20.4604,36.5396,-19.5,37.5C-18.5396,38.4604,-17.2368,39,-15.8786,39C-15.8793,39,-3.2678,39,-2.4068,39C-0.9031,39,0.501,38.2483,1.3351,36.9972C1.7686,36.347,2,35.5829,2,34.8014C2,34.8014,2,34.5446,2,34.1985C2,33.417,1.7686,32.6529,1.3351,32.0027C0.501,30.7516,-0.9031,30,-2.4068,30C-2.4066,30,-10.5613,30,-11.0349,30C-11.5678,30,-12,29.5678,-12,29.0349C-12,29.0351,-12,25.3539,-12,24.965C-12,24.4321,-11.5678,24,-11.0349,24C-11.0351,24,-9.4239,24,-8.5709,24C-6.5987,24,-5,22.4011,-5,20.4289C-5,20.4289,-5,19.621,-5,18.5709C-5,16.5987,-6.5987,15,-8.5709,15C-8.5709,15,-10.4249,15,-11.0349,15C-11.5678,15,-12,14.5678,-12,14.0349C-12,14.0351,-12,10.3539,-12,9.965C-12,9.4321,-11.5678,9,-11.0349,9C-11.0354,9,-3.0822,9,-2.4068,9C-0.9031,9,0.501,8.2483,1.3351,6.9972C1.7686,6.347,2,5.5829,2,4.8014C2,4.8014,2,4.5446,2,4.1985C2,3.417,1.7686,2.6529,1.3351,2.0027z" data-px-corners="[0,0]=5.1994|[0,1]=7.0291|[0,2]=7.0291|[0,3]=7.0291|[0,4]=7.0291|[0,5]=5.1994|[0,6]=5.1994|[0,7]=5.1994|[0,8]=5.1994|[0,9]=0.965|[0,10]=0.965|[0,11]=3.5709|[0,12]=3.5709|[0,13]=0.965|[0,14]=0.965|[0,15]=5.1994|[0,16]=5.1994|[0,17]=5.1994" data-px-src-d="M0,0L-18,0L-21,3L-21,36L-18,39L0,39L2,36L2,33L0,30L-12,30L-12,24L-5,24L-5,15L-12,15L-12,9L0,9L2,6L2,3L0,0z"/>
    <path fill="#b4dcc8cc" stroke="#003a73" transform="translate(128.6001, 173.5)scale(0.5, 0.5)" d="M3.5426,0C1.7866,0,0.1024,0.6976,-1.1393,1.9393C-1.8184,2.6184,-2.2,3.5396,-2.2,4.5C-2.2,5.4604,-1.8184,6.3815,-1.1393,7.0606C0.1024,8.3023,1.7866,9,3.5426,9C3.5422,9,9.4165,9,11.083,9C14.1655,9,17.186,8.1337,19.7999,6.5C22.4068,4.8707,24.467,2.4989,25.7155,-0.3104C27.0896,-3.4023,27.7999,-6.7483,27.7999,-10.1318C27.7999,-10.1318,27.7999,-11.1631,27.7999,-12.5277C27.7999,-15.4687,27.1151,-18.3695,25.7999,-21C24.492,-23.6158,22.4876,-25.8202,20.0076,-27.3702C17.258,-29.0887,14.0806,-30,10.8381,-30C10.8381,-30,2.0595,-30,1.2142,-30C0.3087,-30,-0.5598,-29.6402,-1.2,-29C-1.8402,-28.3598,-2.2,-27.4912,-2.2,-26.5857C-2.2,-26.5862,-2.2,-19.7524,-2.2,-18.5C-2.2,-16.0148,-0.1853,-14,2.2999,-14C4.2328,-14,5.7999,-15.5671,5.7999,-17.5C5.7999,-17.5,5.7999,-19.7998,5.7999,-20.2928C5.7999,-20.7455,5.9798,-21.1799,6.2999,-21.5C6.62,-21.8201,7.0544,-22,7.5071,-22C7.5069,-22,9.9387,-22,10.5639,-22C12.0344,-22,13.4847,-21.6576,14.7999,-21C16.1061,-20.3469,17.199,-19.3347,17.9503,-18.0825C19.1605,-16.0655,19.7999,-13.7573,19.7999,-11.405C19.7999,-11.405,19.7999,-11.2108,19.7999,-10.5948C19.7999,-8.2425,19.1605,-5.9344,17.9503,-3.9174C17.199,-2.6652,16.1061,-1.6531,14.7999,-1C13.4847,-0.3424,12.0344,0,10.5639,0C10.5641,0,4.6336,0,3.5426,0z" data-px-corners="[0,0]=54.298|[0,1]=54.298|[0,2]=54.298|[0,3]=54.298|[0,4]=54.298|[0,5]=54.298|[0,6]=54.298|[0,7]=54.298|[0,8]=54.298|[0,9]=54.298|[0,10]=54.298|[0,11]=54.298|[0,12]=54.298|[0,13]=54.298|[0,14]=54.298|[0,15]=54.298|[0,16]=54.298|[0,17]=54.298|[0,18]=54.298|[0,19]=54.298|[0,20]=54.298|[0,21]=54.298" data-px-src-d="M0.7999,0L-2.2,3L-2.2,6L0.7999,9L15.7999,9L23.7999,4L27.7999,-5L27.7999,-17L23.7999,-25L15.7999,-30L-0.2,-30L-2.2,-28L-2.2,-14L5.7999,-14L5.7999,-21L6.7999,-22L12.7998,-22L16.7999,-20L19.7999,-15L19.7999,-7L16.7999,-2L12.7998,0L0.7999,0z"/>
    <path fill="#b4dcc8cc" stroke="#003a73" transform="translate(148.4, 178.1)scale(0.5, 0.5)" d="M-1.8,-4.7C-1.8,-3.1263,-2.5412,-1.6442,-3.8,-0.7C-4.9851,0.1888,-6.6149,0.1888,-7.8,-0.7C-9.0588,-1.6442,-9.8,-3.1263,-9.8,-4.7C-9.8,-4.6993,-9.8,-31.9437,-9.8,-32.7C-9.8,-34.2737,-9.0588,-35.7558,-7.8,-36.7C-6.6149,-37.5888,-4.9851,-37.5888,-3.8,-36.7C-2.5412,-35.7558,-1.8,-34.2737,-1.8,-32.7C-1.8,-32.7007,-1.8,-5.4563,-1.8,-4.7z" data-px-corners="[0,0]=23.634|[0,1]=23.634|[0,2]=23.634|[0,3]=23.634|[0,4]=23.634|[0,5]=23.634" data-px-src-d="M-1.8,-2.2L-5.8,0.7999L-9.8,-2.2L-9.8,-35.2L-5.8,-38.2L-1.8,-35.2L-1.8,-2.2z"/>
    <path fill="#b4dcc8cc" stroke="#003a73" transform="translate(162.5, 158.7)scale(0.5, 0.5)" d="M2,3.0999C2,0.6147,-0.0146,-1.4,-2.4998,-1.4C-2.4998,-1.4,-22.7405,-1.4,-24.4999,-1.4C-26.9851,-1.4,-28.9999,0.6147,-28.9999,3.0999C-28.9999,4.2933,-28.5258,5.438,-27.6819,6.2819C-26.838,7.1258,-25.6933,7.5999,-24.4999,7.5999C-24.5,7.5999,-17,7.5999,-17,7.5999C-17,7.5999,-17,35.1293,-17,35.1282C-17,36.3141,-16.5288,37.4516,-15.6902,38.2902C-14.8516,39.1288,-13.7141,39.5999,-12.5282,39.5999C-10.0021,39.5999,-8,37.5977,-8,35.1282C-8,35.1293,-8,7.5999,-8,7.5999L-2.4998,7.5999C-0.0146,7.5999,2,5.5851,2,3.0999z" data-px-corners="[0,0]=5.5932|[0,1]=5.5932|[0,2]=5.5932|[0,3]=4.4717|[0,4]=4.4717|[0,5]=5.5932" data-px-src-d="M2,-1.4L-28.9999,-1.4L-29,7.5999L-17,7.5999L-17,39.5999L-8,39.5999L-8,7.5999L2,7.5999L2,-1.4z"/>
    <path fill="#b4dcc8cc" stroke="#003a73" transform="translate(169.25, 168.5)scale(0.5, 0.5)translate(-0.5, -19.3999)" d="M1,0.3999C3.6139,0.3999,6.1753,1.1344,8.3919,2.5198C8.3919,2.5198,8.4936,2.5836,8.9743,2.884C11.6069,4.5293,13.7346,6.8691,15.1229,9.6458C15.1229,9.6458,15.1414,9.6829,15.2901,9.9803C16.4145,12.2291,17,14.7088,17,17.2231C17,17.2229,17,21.953,17,23.5766C17,26.0909,16.4145,28.5708,15.2901,30.8196C15.2901,30.8196,15.2727,30.8543,15.1229,31.154C13.7346,33.9307,11.6069,36.2706,8.9743,37.9159C8.9743,37.9159,8.8676,37.9827,8.3919,38.28C6.1753,39.6654,3.6139,40.3999,1,40.3999C-1.6139,40.3999,-4.1753,39.6654,-6.3919,38.28C-6.3919,38.28,-6.4937,38.2163,-6.9744,37.9159C-9.607,36.2706,-11.7346,33.9307,-13.1229,31.154C-13.1229,31.154,-13.1414,31.117,-13.2901,30.8196C-14.4145,28.5708,-14.9999,26.0909,-14.9999,23.5766C-14.9999,23.5768,-14.9999,18.8467,-14.9999,17.2231C-14.9999,14.7088,-14.4145,12.2291,-13.2901,9.9803C-13.2901,9.9803,-13.2727,9.9455,-13.1229,9.6458C-11.7346,6.8691,-9.607,4.5293,-6.9744,2.884C-6.9744,2.884,-6.8676,2.8171,-6.3919,2.5198C-4.1753,1.1344,-1.6139,0.3999,1,0.3999zM4.6,9.5999C3.5615,8.821,2.2981,8.3999,0.9999,8.3999C-0.2983,8.3999,-1.5614,8.821,-2.5999,9.5999C-2.5999,9.5999,-2.8062,9.7545,-3.2111,10.0582C-4.3873,10.9405,-5.3424,12.0847,-6,13.3999C-6.6576,14.7151,-6.9999,16.1655,-6.9999,17.636C-6.9999,17.6358,-6.9999,22.2032,-6.9999,23.1639C-6.9999,24.6344,-6.6575,26.0847,-5.9999,27.3999C-5.3423,28.7151,-4.3873,29.8593,-3.2111,30.7416C-3.2111,30.7416,-2.9995,30.9002,-2.5999,31.1999C-1.5614,31.9788,-0.2983,32.3999,0.9999,32.3999C2.2981,32.3999,3.5615,31.9788,4.6,31.1999C4.6,31.1999,4.8062,31.0453,5.2111,30.7416C6.3873,29.8593,7.3423,28.7151,7.9999,27.3999C8.6575,26.0847,9,24.6344,9,23.1639C9,23.1641,9,18.5967,9,17.636C9,16.1655,8.6576,14.7151,8,13.3999C7.3424,12.0847,6.3873,10.9405,5.2111,10.0582C5.2111,10.0582,4.9996,9.8996,4.6,9.5999z" data-px-corners="[0,0]=28.6471|[0,1]=28.6471|[0,2]=28.6471|[0,3]=28.6471|[0,4]=28.6471|[0,5]=28.6471|[0,6]=28.6471|[0,7]=28.6471|[0,8]=28.6471|[0,9]=28.6471|[0,10]=28.6471|[0,11]=28.6471|[1,0]=28.6471|[1,1]=28.6471|[1,2]=28.6471|[1,3]=28.6471|[1,4]=28.6471|[1,5]=28.6471|[1,6]=28.6471|[1,7]=28.6471|[1,8]=28.6471|[1,9]=28.6471|[1,10]=28.6471|[1,11]=28.6471" data-px-src-d="M5,0.3999L13,5.3999L17,13.3999L17,27.3999L13,35.3999L5,40.3999L-2.9998,40.3999L-10.9999,35.3999L-14.9999,27.3999L-15,13.3999L-11,5.3999L-3,0.3999L5,0.3999zM3,8.3999L-1,8.3999L-5,11.3999L-7,15.3999L-6.9999,25.3999L-4.9999,29.3999L-1,32.3999L3,32.3999L7,29.3999L9,25.3999L9,15.3999L7,11.3999L3,8.3999z"/>
    <path fill="#b4dcc8cc" stroke="#003a73" transform="translate(178.9, 177.9)scale(0.5, 0.5)" d="M-0.8,-3.3C-0.8,-0.8148,1.2147,1.1999,3.6999,1.1999C6.1851,1.1999,8.1999,-0.8148,8.1999,-3.3L8.1999,-7.8C8.1999,-7.8,15.1013,-0.9569,15.7422,-0.2577C16.6465,0.6466,17.9592,1.01,19.1999,0.6999C20.4663,0.3833,21.5251,-0.4826,22.0863,-1.6612C22.753,-3.0612,22.4603,-4.7305,21.3568,-5.82C20.7934,-6.4266,8.0382,-18.9722,7.8036,-19.2039C7.4174,-19.5851,7.1999,-20.1056,7.1999,-20.6483C7.1857,-21.4129,7.1999,-27.1866,7.1999,-27.77C7.1999,-28.8911,8.1088,-29.8,9.2299,-29.8C9.2299,-29.8,13.3355,-29.8,13.9535,-29.8C14.7662,-29.8,15.5609,-29.5593,16.2371,-29.1085C16.2371,-29.1085,16.4492,-28.9671,16.7855,-28.7429C17.6691,-28.1539,18.1999,-27.162,18.1999,-26.1C18.1999,-24.7265,17.321,-23.5069,16.0179,-23.0726L15.1999,-22.8L13.2606,-22.1535C12.5815,-21.9272,12.02,-21.4402,11.6999,-20.8C11.3798,-20.1598,11.3272,-19.4184,11.5535,-18.7393C11.5535,-18.7393,11.6363,-18.4909,11.7527,-18.1416C12.0467,-17.2593,12.5423,-16.4576,13.1999,-15.8C13.8401,-15.1598,14.7087,-14.8,15.6142,-14.8C15.6142,-14.8,15.9337,-14.8,16.4771,-14.8C18.2588,-14.8,20.007,-15.2843,21.5348,-16.2009C23.2638,-17.2383,24.6054,-18.8136,25.3542,-20.6857C25.3542,-20.6857,25.373,-20.7323,25.4706,-20.9765C25.9524,-22.1809,26.1999,-23.4668,26.1999,-24.7639C26.1999,-24.7639,26.1999,-25.7098,26.1999,-26.6093C26.1999,-28.697,25.6325,-30.7457,24.5584,-32.5359C23.6666,-34.0223,22.4223,-35.2666,20.9359,-36.1584C19.1457,-37.2325,17.097,-37.8,15.0093,-37.8C15.0093,-37.8,3.8989,-37.8,2.5461,-37.8C0.698,-37.8,-0.8,-36.3018,-0.8,-34.4537C-0.8,-34.4539,-0.8,-4.7003,-0.8,-3.3z"/>
  </g>
  <g data-px-label="AutoDrive text" stroke-width="1.25" transform="translate(0, -95)" style="pointer-events:none">
    <path fill="#007fff56" stroke="#003a73" d="M17.9783,148.3022C17.5572,147.1084,17.7671,145.614,18.2245,144.668C18.6819,143.722,33.4015,115.0149,33.8729,114.1947C34.9327,112.3506,36.569,112.0234,37.6109,112C39.084,111.967,40.4411,112.8021,41.1512,114.0932C41.618,114.8284,56.5312,142.0568,57.5468,143.9034C58.4778,145.596,58.4457,147.6543,57.4626,149.3172C56.4794,150.98,54.6913,152,52.7596,152C51.7161,151.9949,41.6357,152,39,152C36.2386,152,34,149.7614,34,147C34,144.2386,36.2386,142,39,142C41.1038,141.9903,42.6305,142,43.8339,142C44.295,142,44.723,141.76,44.9635,141.3665C45.204,140.973,45.2224,140.4827,45.012,140.0723C44.7503,139.4658,39.4604,129.2397,39.0244,128.3891C38.7945,127.9405,38.3298,127.6614,37.8258,127.6692C37.3218,127.677,36.8659,127.9703,36.65,128.4258C36.2417,129.2275,28.4948,146.5618,26.8751,149.0446C25.2554,151.5274,23.0582,152.0416,20.9999,151.2222C18.9416,150.4028,18.3994,149.496,17.9783,148.3022z"/>
    <path fill="#007fff57" stroke="#003a73" d="M58,115.9518C58,113.7693,59.7693,112,61.9518,112C64.2307,112,66,113.7693,66,115.9518C66,115.9506,66,132.9961,66,135.5C66,139.6421,69.3579,143,73.5,143C77.6421,143,81,139.6421,81,135.5C81,135.5002,81,126.0509,81,123.9518C81,121.7693,82.7693,120,84.9518,120C87.2307,120,89,121.7693,89,123.9518C89,123.9516,89,132.734,89,136.5C89,145.0604,82.0604,152,73.5,152C64.9396,152,58,145.0604,58,136.5C58,136.5004,58,118.5007,58,115.9518z" data-px-corners="[0,0]=3.9518|[0,1]=3.9518|[0,2]=9.6662|[0,3]=9.6662|[0,4]=3.9518|[0,5]=3.9518|[0,6]=16.7796|[0,7]=16.7796" data-px-src-d="M58,112L66,112L66,143L81,143L81,120L89,120L89,152L58,152L58,112z"/>
    <path fill="#007fff57" stroke="#003a73" d="M116,115.5C116,113.0147,113.9853,111,111.5,111C111.5,111,91.2594,111,89.5,111C87.0147,111,85,113.0147,85,115.5C85,117.9853,87.0147,120,89.5,120C89.4999,120,97,120,97,120C97,120,97,147.5295,97,147.5282C97,149.9979,99.0021,152,101.4718,152C103.9979,152,106,149.9979,106,147.5282C106,147.5295,106,120,106,120L111.5,120C113.9853,120,116,117.9853,116,115.5z" data-px-corners="[0,0]=5.5932|[0,1]=5.5932|[0,2]=5.5932|[0,4]=4.4718|[0,5]=4.4718|[0,7]=5.5932" data-px-src-d="M116,111L85,111L85,120L97,120L97,152L106,152L106,120L116,120L116,111z"/>
    <path fill="#007fff57" stroke="#003a73" d="M130,112C132.614,112,135.1753,112.7346,137.392,114.12C137.392,114.12,137.4937,114.1836,137.9744,114.484C140.607,116.1294,142.7346,118.4692,144.123,121.246C144.123,121.246,144.1415,121.2829,144.2902,121.5803C145.4146,123.8292,146,126.309,146,128.8233C146,128.823,146,133.5531,146,135.1767C146,137.691,145.4146,140.1708,144.2902,142.4197C144.1391,142.8096,144.2729,142.4542,144.123,142.754C142.7346,145.5308,140.607,147.8706,137.9744,149.516C137.9744,149.516,137.8677,149.5827,137.392,149.88C135.1753,151.2654,132.614,152,130,152C127.386,152,124.8247,151.2654,122.608,149.88C122.608,149.88,122.5063,149.8164,122.0256,149.516C119.393,147.8706,117.2654,145.5308,115.877,142.754C115.877,142.754,115.8585,142.7171,115.7098,142.4197C114.5854,140.1708,114,137.691,114,135.1767C114,135.177,114,130.4469,114,128.8233C114,126.309,114.5854,123.8292,115.7098,121.5803C115.9521,121.0992,115.7271,121.5458,115.877,121.246C117.2654,118.4692,119.393,116.1294,122.0256,114.484C122.0256,114.484,122.1323,114.4173,122.608,114.12C124.8247,112.7346,127.386,112,130,112zM133.6,121.2C132.5614,120.4211,131.2982,120,130,120C128.7018,120,127.4386,120.4211,126.4,121.2C126.4,121.2,126.1938,121.3547,125.7889,121.6584C124.6125,122.5407,123.6576,123.6847,123,125C122.3424,126.3153,122,127.7656,122,129.2361C122,129.2358,122,133.8032,122,134.7639C122,136.2344,122.3424,137.6847,123,139C123.6576,140.3153,124.6125,141.4593,125.7889,142.3416C125.7888,142.3416,126.0004,142.5003,126.4,142.8C127.4386,143.5789,128.7018,144,130,144C131.2982,144,132.5614,143.5789,133.6,142.8C133.6,142.8,133.8062,142.6453,134.2111,142.3416C135.3875,141.4593,136.3424,140.3153,137,139C137.6576,137.6847,138,136.2344,138,134.7639C138,134.7642,138,130.1968,138,129.2361C138,127.7656,137.6576,126.3153,137,125C136.3424,123.6847,135.3875,122.5407,134.2111,121.6584C134.2112,121.6584,133.9996,121.4997,133.6,121.2z"/>
    <path fill="#007fff56" stroke="#003a73" d="M152.7426,142C150.9866,142,149.3024,142.6976,148.0607,143.9393C147.3815,144.6185,147,145.5396,147,146.5C147,147.4604,147.3815,148.3815,148.0607,149.0607C149.3024,150.3024,150.9866,151,152.7426,151C152.7422,151,158.6164,151,160.283,151C163.3655,151,166.386,150.1337,169,148.5C171.607,146.8706,173.6672,144.4989,174.9158,141.6896C176.2899,138.5976,177,135.2517,177,131.8681C177,131.8682,177,130.8367,177,129.4721C177,126.5311,176.3153,123.6305,175,121C173.6921,118.3841,171.6877,116.1798,169.2076,114.6298C166.458,112.9112,163.2807,112,160.0382,112C160.0382,112,151.2596,112,150.4142,112C149.5087,112,148.6403,112.3597,148,113C147.3597,113.6403,147,114.5087,147,115.4142C147,115.4137,147,122.2475,147,123.5C147,125.9853,149.0147,128,151.5,128C153.433,128,155,126.433,155,124.5C155,124.5,155,122.2001,155,121.7071C155,121.2544,155.1799,120.8201,155.5,120.5C155.8201,120.1799,156.2544,120,156.7071,120C156.7069,120,159.1387,120,159.7639,120C161.2344,120,162.6847,120.3424,164,121C165.3062,121.6531,166.3991,122.6651,167.1504,123.9174C168.3607,125.9345,169,128.2426,169,130.5949C169,130.5948,169,130.789,169,131.4051C169,133.7574,168.3607,136.0655,167.1504,138.0826C166.3991,139.3349,165.3062,140.3469,164,141C162.6847,141.6576,161.2344,142,159.7639,142C159.7643,142,153.8337,142,152.7426,142z" data-px-corners="[0,0]=54.2981|[0,1]=54.2981|[0,2]=54.2981|[0,3]=54.2981|[0,4]=54.2981|[0,5]=54.2981|[0,6]=54.2981|[0,7]=54.2981|[0,8]=54.2981|[0,9]=54.2981|[0,10]=54.2981|[0,11]=54.2981|[0,12]=54.2981|[0,13]=54.2981|[0,14]=54.2981|[0,15]=54.2981|[0,16]=54.2981|[0,17]=54.2981|[0,18]=54.2981|[0,19]=54.2981|[0,20]=54.2981|[0,21]=54.2981" data-px-src-d="M150,142L147,145L147,148L150,151L165,151L173,146L177,137L177,125L173,117L165,112L149,112L147,114L147,128L155,128L155,121L156,120L162,120L166,122L169,127L169,135L166,140L162,142L150,142z"/>
    <path fill="#007fff56" stroke="#003a73" d="M180,146.5C180,148.9853,182.0147,151,184.5,151C186.9853,151,189,148.9853,189,146.5L189,142C189,142,196.5426,149.5426,196.5423,149.5423C197.4466,150.4466,198.7592,150.8102,200,150.5C201.2664,150.1834,202.3251,149.3173,202.8863,148.1387C203.5531,146.7385,203.2604,145.0696,202.1569,143.9799C197.4133,139.3267,193.8558,135.947,188.6036,130.5961C188.2234,130.2087,188,129.6945,188,129.1517C188,129.1518,188,122.6133,188,122.0299C188,120.9088,188.9088,120,190.0299,120C190.6984,119.8934,194.7007,119.2263,197.0371,120.6914C198.3472,121.272,199,122.6379,199,123.6999C199,125.0735,198.121,126.293,196.8179,126.7274C196.8179,126.7274,193.5889,128.0758,193.0998,128.7429C192.6106,129.4099,192.2993,130.6551,192.5528,131.6584C192.7806,132.5601,193.3424,133.3424,194,134C194.6403,134.6403,196.7337,135,197.2771,135C199.0588,135,200.807,134.5158,202.3349,133.5991C204.0639,132.5617,205.8626,130.1659,206.2706,128.8234C206.6479,127.5822,207,126.3334,207,125.0361C207.1078,122.8729,206.4326,119.0543,205.3584,117.264C204.4665,115.7776,203.2224,114.5335,201.736,113.6416C199.9457,112.5674,197.8971,112,195.8093,112C195.8094,112,184.6992,112,183.3463,112C181.4982,112,180,113.4982,180,115.3463C180,115.3461,180,145.0997,180,146.5z"/>
    <path fill="#007fff57" stroke="#003a73" d="M218,145.5C218,147.0738,217.259,148.5557,216,149.5C214.8148,150.3889,213.1852,150.3889,212,149.5C210.741,148.5557,210,147.0738,210,145.5C210,145.5008,210,118.2563,210,117.5C210,115.9262,210.741,114.4443,212,113.5C213.1852,112.6111,214.8148,112.6111,216,113.5C217.259,114.4443,218,115.9262,218,117.5C218,117.4992,218,144.7437,218,145.5z" data-px-corners="[0,0]=23.634|[0,1]=23.634|[0,2]=23.634|[0,3]=23.634|[0,4]=23.634|[0,5]=23.634" data-px-src-d="M218,148L214,151L210,148L210,115L214,112L218,115L218,148z"/>
    <path fill="#007fff57" stroke="#003a73" d="M226.8986,112.5797C228.2034,112.8407,229.2776,113.7634,229.7324,115.014C229.9373,115.618,236.4114,133.3814,236.5606,133.7915C236.6277,133.9763,236.8034,134.0993,237,134.0993C237.1966,134.0993,237.3723,133.9763,237.4394,133.7915C237.5633,133.2965,244.082,115.5246,244.2676,115.014C244.7224,113.7634,245.7966,112.8407,247.1014,112.5797C248.8423,112.2315,250.528,113.056,251.2891,114.5782C251.7434,115.4868,251.809,116.5411,251.4709,117.499C251.2121,118.3044,241.2264,146.5251,240.9985,147.171C240.4001,148.8663,238.7978,150,237,150C235.2022,150,233.5999,148.8663,233.0015,147.171C232.797,146.5553,222.7017,117.988,222.5291,117.499C222.191,116.5411,222.2566,115.4868,222.7109,114.5782C223.472,113.056,225.1577,112.2315,226.8986,112.5797z"/>
    <path fill="#007fff57" stroke="#003a73" d="M278.3351,114.0027C277.501,112.7515,276.0968,112,274.593,112C274.5932,112,261.9402,112,261.1213,112C259.7631,112,258.4604,112.5396,257.5,113.5C256.5396,114.4604,256,115.7631,256,117.1213C256,117.1196,256,145.2836,256,145.8787C256,147.2369,256.5396,148.5396,257.5,149.5C258.4604,150.4604,259.7631,151,261.1213,151C261.1206,151,273.7319,151,274.593,151C276.0968,151,277.501,150.2485,278.3351,148.9973C278.7687,148.347,279,147.583,279,146.8014C279,146.8014,279,146.5448,279,146.1986C279,145.417,278.7687,144.653,278.3351,144.0027C277.501,142.7515,276.0968,142,274.593,142C274.5933,142,266.4386,142,265.965,142C265.432,142,265,141.568,265,141.035C265,141.0352,265,137.3539,265,136.965C265,136.432,265.432,136,265.965,136C265.9648,136,267.576,136,268.429,136C270.4012,136,272,134.4012,272,132.429C272,132.429,272,131.6211,272,130.571C272,128.5988,270.4012,127,268.429,127C268.429,127,266.5751,127,265.965,127C265.432,127,265,126.568,265,126.035C265,126.0352,265,122.3539,265,121.965C265,121.432,265.432,121,265.965,121C265.9644,121,273.9176,121,274.593,121C276.0968,121,277.501,120.2485,278.3351,118.9973C278.7687,118.347,279,117.583,279,116.8014C279,116.8014,279,116.5448,279,116.1986C279,115.417,278.7687,114.653,278.3351,114.0027z" data-px-corners="[0,0]=5.1994|[0,1]=7.0291|[0,2]=7.0291|[0,3]=7.0291|[0,4]=7.0291|[0,5]=5.1994|[0,6]=5.1994|[0,7]=5.1994|[0,8]=5.1994|[0,9]=0.965|[0,10]=0.965|[0,11]=3.571|[0,12]=3.571|[0,13]=0.965|[0,14]=0.965|[0,15]=5.1994|[0,16]=5.1994|[0,17]=5.1994" data-px-src-d="M277,112L259,112L256,115L256,148L259,151L277,151L279,148L279,145L277,142L265,142L265,136L272,136L272,127L265,127L265,121L277,121L279,118L279,115L277,112z"/>
  </g>
</svg>