<?xml version="1.0" encoding="UTF-8" standalone="no"?>
<!-- Created with Pixodesk SVG (https://pixodesk.com) -->
<svg xmlns="http://www.w3.org/2000/svg" viewBox="-15 -7.5 30 15" text-rendering="geometricPrecision" shape-rendering="geometricPrecision" fill="none">
  <path fill="#ffffff" stroke="#003a73" stroke-width="1.5" transform="translate(-9, -6)" d="M0,0L19,0C19,0,23.0159,0.008,23,6C22.9841,11.992,19,12,19,12L-1,12C-1,12,-5.0186,11.992,-5,6C-4.9814,0.008,0,0,0,0z"/>
  <path fill="#d80000" stroke="#003a73" stroke-width="1.5" transform="translate(-9, -6)" d="M0,0L19,0C19,0,23.0158,0.008,23,6C22.9842,11.992,19,12,19,12L-1,12C-1,12,-5.0185,11.992,-5,6C-4.9815,0.008,0,0,0,0z"/>
  <text fill="#fff6f6" stroke-width="0" font-family="Arial Black" font-size="6px" font-weight="800" xml:space="preserve" transform="translate(-10.7725, 2.4667)scale(1, 1.5)translate(-0.7275, 0.4626)" data-gn-el-type="text" style="white-space:pre"><tspan>ROUTE </tspan></text>
</svg>