<?xml version="1.0" encoding="UTF-8" standalone="no"?>
<!-- Created with Pixodesk SVG (https://pixodesk.com) -->
<svg xmlns="http://www.w3.org/2000/svg" viewBox="20 20 40 40" text-rendering="geometricPrecision" shape-rendering="geometricPrecision" fill="none">
  <path id="svg_1" fill="#ea3e26" d="M36.1849,39.29C39.5511,42.3158,40.5957,46.9731,39.2665,51.3278L48.3188,51.3278C48.9936,48.2612,51.6128,45.9752,54.7407,45.9752C55.5411,45.9743,56.3348,46.1268,57.083,46.4251L58.0185,40.6542C58.2196,39.4139,57.0374,38.367,55.8386,38.367L41.5187,38.367C42.5131,33.4344,41.351,31.7512,40.6823,26.734C40.4174,26.0146,39.8984,25.8528,39.3158,25.8326L27.2106,25.8326C26.6032,25.8384,26.182,26.1546,25.9611,26.816L25.1412,35.112L23.5069,37.1387C22.7918,38.0054,23.0006,37.8044,23.6571,38.8405C23.7689,38.7537,23.8831,38.6703,23.9995,38.5904C27.4399,36.2258,32.9478,36.6532,36.1849,39.29zM29.5029,28.5765L37.2913,28.5765C38.0327,28.5765,38.4938,29.2289,38.639,29.9904L39.5174,34.6011C39.6626,35.3628,38.8555,36.3083,38.1701,36.0147C35.1848,34.736,32.0985,34.092,28.9173,34.0483C28.1768,34.0378,27.4018,33.3917,27.5695,32.6343L28.1553,29.9904C28.3231,29.2328,28.7616,28.5765,29.5029,28.5765z"/>
  <path id="svg_2" fill="#beedf6" d="M29.5005,28.5749L37.2941,28.5749C38.0357,28.5749,38.4973,29.2275,38.6424,29.9892L39.5214,34.6024C39.6667,35.3645,38.859,36.3104,38.1731,36.0167C35.186,34.7377,32.0979,34.093,28.9146,34.049C28.1738,34.0388,27.3983,33.3924,27.5662,32.6346L28.1523,29.9892C28.3201,29.2315,28.7589,28.5749,29.5005,28.5749z"/>
  <path id="svg_3" fill="#ffffff" d="M39.5382,34.7816C39.5422,35.5031,38.8056,36.2876,38.1728,36.0167C37.6871,35.8087,37.1955,35.6163,36.6986,35.4398L28.0983,30.2311L28.152,29.9892C28.3053,29.2971,28.6845,28.6897,29.314,28.5894L39.5382,34.7816zM31.7149,28.5748L33.678,28.5748L38.985,31.7891L39.2412,33.1331L31.7149,28.5748z"/>
  <path id="svg_4" fill="#182c3d" d="M28.9442,38.9539C33.7796,38.9539,37.6996,43.066,37.6996,48.1385C37.6996,53.2109,33.7796,57.323,28.9442,57.323C24.1088,57.323,20.1889,53.2109,20.1889,48.1385C20.1889,43.066,24.1088,38.9539,28.9442,38.9539zM54.7496,47.5213C57.5769,47.5213,59.8689,49.9256,59.8689,52.8915C59.8689,55.8576,57.5769,58.2619,54.7496,58.2619C51.9223,58.2619,49.6302,55.8576,49.6302,52.8915C49.6302,49.9256,51.9223,47.5213,54.7496,47.5213z"/>
  <path fill="#182c3d" d="M48.4481,32.02C48.8574,32.0397,49.1864,32.3976,49.1864,32.8312L49.1864,38.3711L46.7129,38.3711L46.7129,32.8312C46.7129,32.4049,47.0303,32.0526,47.4294,32.0214L47.4294,29.1569L48.4481,29.1569L48.4481,32.02z"/>
  <path id="svg_6" fill="#a1321e" d="M48.6522,41.0515L53.8273,41.0515L53.7107,41.6778L48.5502,41.6778L48.6522,41.0515zM46.8353,44.4316L53.8273,44.4316L53.7107,45.0577L46.7334,45.0577L46.8353,44.4316zM47.48,42.7415L53.8273,42.7415L53.7107,43.3677L47.378,43.3677L47.48,42.7415z"/>
  <path id="svg_7" fill="#d2d8d3" d="M54.7406,49.7395C56.3991,49.7395,57.7436,51.1499,57.7436,52.8896C57.7436,54.6295,56.3991,56.0398,54.7406,56.0398C53.0822,56.0398,51.7377,54.6295,51.7377,52.8896C51.7377,51.1499,53.0822,49.7395,54.7406,49.7395z"/>
  <path id="svg_8" fill="#ea3e26" d="M32.8355,28.4405C32.8355,27.5143,34.178,27.5143,34.178,28.4405L34.178,35.1534C34.178,36.0798,32.8355,36.0798,32.8355,35.1534L32.8355,28.4405z"/>
  <path id="svg_9" fill="#d2d8d3" d="M28.9512,42.595C31.8699,42.595,34.2358,45.0771,34.2358,48.1389C34.2358,51.2006,31.8699,53.6827,28.9512,53.6827C26.0326,53.6827,23.6666,51.2006,23.6666,48.1389C23.6666,45.0771,26.0326,42.595,28.9512,42.595z"/>
  <ellipse id="svg_10" fill="#ffffff" cx="28.9512" cy="48.1389" rx="2.597" ry="2.7244"/>
  <ellipse id="svg_11" fill="#ffffff" cx="54.7406" cy="52.8897" rx="1.2498" ry="1.311"/>
</svg>