<?xml version="1.0" encoding="UTF-8" standalone="no"?>
<!-- Created with Pixodesk SVG (https://pixodesk.com) -->
<svg xmlns="http://www.w3.org/2000/svg" viewBox="-10 -10 20 20" text-rendering="geometricPrecision" shape-rendering="geometricPrecision">
  <g>
    <path fill="#f3b41b" transform="translate(-9.889, -9.8452)scale(0.0385, 0.0385)" d="M48.254,451.913L241.993,73.885C247.843,62.471,264.157,62.471,270.006,73.885L463.746,451.913C469.114,462.387,461.508,474.83,449.739,474.83L62.26,474.83C50.492,474.83,42.886,462.385,48.254,451.913z"/>
    <path fill="#f3b41b" transform="translate(-9.889, -9.8452)scale(0.0385, 0.0385)" d="M508.511,495.011C504.188,502.084,496.657,506.307,488.367,506.307L23.633,506.307C15.343,506.307,7.812,502.085,3.489,495.011C-0.834,487.937,-1.159,479.309,2.622,471.931L234.99,18.531C239.049,10.611,247.1,5.691,255.999,5.691C264.899,5.691,272.95,10.611,277.008,18.532L509.376,471.93C513.159,479.31,512.834,487.937,508.511,495.011z"/>
  </g>
  <g>
    <path fill="#f7d04a" transform="translate(-9.889, -9.8452)scale(0.0385, 0.0385)" d="M68.133,447.632L248.997,94.727C251.922,89.02,260.078,89.02,263.004,94.727L443.869,447.631C446.553,452.868,442.75,459.09,436.866,459.09L75.136,459.09C69.252,459.091,65.449,452.869,68.133,447.632z"/>
    <path fill="#f7d04a" transform="translate(-9.889, -9.8452)scale(0.0385, 0.0385)" d="M508.511,495.011C504.188,502.084,496.657,506.307,488.367,506.307L23.633,506.307C15.343,506.307,7.812,502.085,3.489,495.011C-0.834,487.937,-1.159,479.309,2.622,471.931L234.99,18.531C239.049,10.611,247.1,5.691,255.999,5.691C264.899,5.691,272.95,10.611,277.008,18.532L509.376,471.93C513.159,479.31,512.834,487.937,508.511,495.011zM62.26,474.83L449.741,474.83C461.51,474.83,469.116,462.386,463.748,451.913L270.006,73.885C264.156,62.471,247.842,62.471,241.993,73.885L48.254,451.913C42.886,462.385,50.492,474.83,62.26,474.83z"/>
  </g>
  <g>
    <path fill="#666666" transform="translate(-9.889, -9.8452)scale(0.0385, 0.0385)" d="M301.529,135.393L336.901,135.393L311.089,85.028L275.717,85.028"/>
    <path fill="#666666" transform="translate(-9.889, -9.8452)scale(0.0385, 0.0385)" d="M236.282,85.028L200.911,85.028L175.099,135.393L210.47,135.393"/>
    <path fill="#666666" transform="translate(-9.889, -9.8452)scale(0.0385, 0.0385)" d="M183.583,187.856L148.212,187.856L122.399,238.221L157.771,238.221"/>
    <path fill="#666666" transform="translate(-9.889, -9.8452)scale(0.0385, 0.0385)" d="M354.23,238.221L389.6,238.221L363.788,187.856L328.417,187.856"/>
    <path fill="#666666" transform="translate(-9.889, -9.8452)scale(0.0385, 0.0385)" d="M406.929,341.049L442.301,341.049L416.489,290.684L381.117,290.684"/>
    <path fill="#666666" transform="translate(-9.889, -9.8452)scale(0.0385, 0.0385)" d="M130.883,290.684L95.512,290.684L69.7,341.049L105.071,341.049"/>
    <path fill="#666666" transform="translate(-9.889, -9.8452)scale(0.0385, 0.0385)" d="M78.184,393.512L42.812,393.512L17,443.876L52.372,443.876"/>
    <path fill="#666666" transform="translate(-9.889, -9.8452)scale(0.0385, 0.0385)" d="M459.628,443.876L495,443.876L469.188,393.512L433.816,393.512"/>
    <path fill="#666666" transform="translate(-9.889, -9.8452)scale(0.0385, 0.0385)" d="M461.368,447.271L464.762,443.876L459.628,443.876"/>
    <path fill="#666666" transform="translate(-9.889, -9.8452)scale(0.0385, 0.0385)" d="M374.453,474.83L342.975,506.308L402.331,506.308L433.809,474.83"/>
    <path fill="#666666" transform="translate(-9.889, -9.8452)scale(0.0385, 0.0385)" d="M229.655,474.83L198.177,506.308L257.533,506.308L289.011,474.83"/>
    <path fill="#666666" transform="translate(-9.889, -9.8452)scale(0.0385, 0.0385)" d="M84.856,474.83L53.378,506.308L112.734,506.308L144.212,474.83"/>
  </g>
  <g transform="translate(-0.033, 2.5479)translate(0.033, -2.5479)">
    <path fill="#c74b38" d="M0.4921,5.2444L-0.5582,5.2444C-0.7255,5.2444,-0.8611,5.38,-0.8611,5.5474L-0.8611,6.5977C-0.8611,6.765,-0.7255,6.9006,-0.5582,6.9006L0.4921,6.9006C0.6595,6.9006,0.7951,6.765,0.7951,6.5977L0.7951,5.5474C0.7951,5.38,0.6595,5.2444,0.4921,5.2444z"/>
    <path fill="#c74b38" d="M0.8153,-1.5002L0.8153,0.2089C0.8153,0.3762,0.6797,0.5119,0.5124,0.5119L-0.5784,0.5119C-0.7457,0.5119,-0.8813,0.3762,-0.8813,0.2089L-0.8813,-1.5002C-0.8813,-1.7565,-1.1818,-1.8994,-1.3775,-1.7338C-1.8348,-1.3469,-2.1134,-0.7716,-2.1134,-0.1461C-2.1134,0.6955,-1.6186,1.4368,-0.8611,1.7632L-0.8611,4.3293C-0.8611,4.4967,-0.7255,4.6323,-0.5581,4.6323L0.4922,4.6323C0.6595,4.6323,0.7952,4.4967,0.7952,4.3293L0.7952,1.7632C1.5527,1.4368,2.0475,0.6955,2.0475,-0.1461C2.0475,-0.7716,1.7689,-1.3469,1.3115,-1.7338C1.1158,-1.8994,0.8153,-1.7565,0.8153,-1.5002z"/>
  </g>
</svg>