<?xml version="1.0" encoding="UTF-8" standalone="no"?>
<!-- Created with Pixodesk SVG (https://pixodesk.com) -->
<svg xmlns="http://www.w3.org/2000/svg" viewBox="-10 -10 20.00002552124872 20" text-rendering="geometricPrecision" shape-rendering="geometricPrecision" fill="url(#13362)" stroke="#003a73" stroke-width="0">
  <defs>
    <radialGradient id="13362" spreadMethod="pad" cx="61.3985" cy="57.99999" fx="61.3985" fy="57.99999" r="44.7969" gradientTransform="rotate(4)" gradientUnits="userSpaceOnUse">
      <stop offset="0%" stop-color="rgb(255,174,174)"/>
      <stop offset="100%" stop-color="rgb(215,100,0)"/>
    </radialGradient>
    <radialGradient id="15468" spreadMethod="pad" cx="4.8" cy="-4.2" fx="4.8" fy="-4.2" r="4.8" gradientUnits="userSpaceOnUse">
      <stop offset="0%" stop-color="rgb(0,0,0)"/>
      <stop offset="100%" stop-color="rgb(0,58,115)"/>
    </radialGradient>
    <radialGradient id="15411" spreadMethod="pad" cx="4.8" cy="-4.2" fx="4.8" fy="-4.2" r="4.8" gradientUnits="userSpaceOnUse">
      <stop offset="0%" stop-color="rgb(0,0,0)"/>
      <stop offset="100%" stop-color="rgb(0,58,115)"/>
    </radialGradient>
    <radialGradient id="15354" spreadMethod="pad" cx="4.8" cy="-4.2" fx="4.8" fy="-4.2" r="4.8" gradientUnits="userSpaceOnUse">
      <stop offset="0%" stop-color="rgb(0,0,0)"/>
      <stop offset="100%" stop-color="rgb(0,58,115)"/>
    </radialGradient>
    <radialGradient id="15241" spreadMethod="pad" cx="4.8" cy="-4.2" fx="4.8" fy="-4.2" r="4.8" gradientUnits="userSpaceOnUse">
      <stop offset="0%" stop-color="rgb(0,0,0)"/>
      <stop offset="100%" stop-color="rgb(0,58,115)"/>
    </radialGradient>
    <radialGradient id="15184" spreadMethod="pad" cx="5.800000000000001" cy="1" fx="5.800000000000001" fy="1" r="5.800000000000001" gradientUnits="userSpaceOnUse">
      <stop offset="0%" stop-color="rgb(5,5,5)"/>
      <stop offset="100%" stop-color="rgb(0,58,115)"/>
    </radialGradient>
    <radialGradient id="15127" spreadMethod="pad" cx="3.9000000000000004" cy="-2.6" fx="3.9000000000000004" fy="-2.6" r="3.9000000000000004" gradientUnits="userSpaceOnUse">
      <stop offset="0%" stop-color="rgb(5,5,5)"/>
      <stop offset="100%" stop-color="rgb(0,58,115)"/>
    </radialGradient>
    <radialGradient id="15070" spreadMethod="pad" cx="-3.9000000000000004" cy="2.6" fx="-3.9000000000000004" fy="2.6" r="3.9000000000000004" gradientUnits="userSpaceOnUse">
      <stop offset="0%" stop-color="rgb(5,5,5)"/>
      <stop offset="100%" stop-color="rgb(0,58,115)"/>
    </radialGradient>
    <radialGradient id="13362" spreadMethod="pad" cx="61.3985" cy="57.99999" fx="61.3985" fy="57.99999" r="44.7969" gradientTransform="rotate(4)" gradientUnits="userSpaceOnUse">
      <stop offset="0%" stop-color="rgb(255,174,174)"/>
      <stop offset="100%" stop-color="rgb(215,100,0)"/>
    </radialGradient>
  </defs>
  <path fill="#a9a9a9" stroke="url(#15070)" transform="translate(4.2, -7.2)" d="M-0.4,-0.2L-8.2,-0.2L-0.4,5.2"/>
  <path fill="#dcdcdc" stroke="url(#15127)" transform="translate(-4.2, -2)" d="M0.6,0L8,0L0.6,-5.2L0.6,0z"/>
  <path fill="#ffc62c" stroke="url(#15184)" transform="translate(-5.2, 0)" d="M0,0.2C10.7091,0.2,10.4,0.2,10.4,0.2L10.4,4.2L0,4.2L0,0.2z"/>
  <path fill="#3e4c64" stroke="url(#15241)" stroke-width="0" transform="scale(1.6537, 1.6796)translate(-5, 4)" d="M0.2,-8.8L8,-8.8L9.8,-6.8L9.8,0.8L0.2,0.8L0.2,-8.8zM6.4,-7.8L6.4,-5.8L5.4,-5.8L5.4,-7.8L6.4,-7.8zM2.6807,-3.8C2.3047,-3.8,2,-3.4953,2,-3.1193C2,-3.1194,2,0.2,2,0.2L8,0.2C8,0.2,8,-3.2301,8,-3.23C8,-3.5448,7.7448,-3.8,7.43,-3.8C7.4301,-3.8,2.9039,-3.8,2.6807,-3.8zM3,-8.2L3,-5.4L7,-5.4L7,-8.2L3,-8.2zM1.5999,-7.4001L2.1,-7.4L2.1,-8.1999L1.5999,-8.2L1.5999,-7.4001z" data-px-corners="[2,0]=0.6807|[2,3]=0.57" data-px-src-d="M0.2,-8.8L8,-8.8L9.8,-6.8L9.8,0.8L0.2,0.8L0.2,-8.8zM6.4,-7.8L6.4,-5.8L5.4,-5.8L5.4,-7.8L6.4,-7.8zM2,-3.8L2,0.2L8,0.2L8,-3.8L2,-3.8zM3,-8.2L3,-5.4L7,-5.4L7,-8.2L3,-8.2zM1.5999,-7.4001L2.1,-7.4L2.1,-8.1999L1.5999,-8.2L1.5999,-7.4001z"/>
  <g transform="translate(-0.1124, -0.4)scale(1.6537, 1.6796)translate(-5, 4)">
    <path fill="#ffffff" stroke="url(#15354)" stroke-width="0" transform="translate(0.056, -1.1855)" d="M6.2214,-1.7688C6.2214,-1.6887,6.1564,-1.6237,6.0763,-1.6237C6.0764,-1.6237,2.7245,-1.6237,2.6841,-1.6237C2.5824,-1.6237,2.5,-1.7061,2.5,-1.8078C2.5,-1.8078,2.5,-1.8612,2.5,-1.9193C2.5,-2.0191,2.5809,-2.1,2.6807,-2.1C2.6806,-2.1,5.9891,-2.1,6.0349,-2.1C6.1379,-2.1,6.2214,-2.0165,6.2214,-1.9135C6.2214,-1.9135,6.2214,-1.8279,6.2214,-1.7688z" data-px-corners="[0,0]=0.1451|[0,1]=0.1841|[0,2]=0.1807|[0,3]=0.1865" data-px-src-d="M6.2214,-1.6237L2.5,-1.6237L2.5,-2.1L6.2214,-2.1L6.2214,-1.6237z"/>
    <path fill="#ffffff" stroke="url(#15411)" stroke-width="0" transform="translate(0.0282, -1.3052)" d="M2.6451,-0.5514C2.565,-0.5514,2.5,-0.6164,2.5,-0.6965C2.5,-0.7912,2.5156,-0.8288,2.5434,-0.8566C2.5712,-0.8844,2.6088,-0.9,2.6481,-0.9C2.6481,-0.9,4.7478,-0.9,4.7848,-0.9C4.8588,-0.9,4.9188,-0.84,4.9188,-0.7659C4.9188,-0.6559,4.9038,-0.6197,4.8772,-0.593C4.8505,-0.5664,4.8144,-0.5514,4.7767,-0.5514C4.7768,-0.5514,2.6842,-0.5514,2.6451,-0.5514z" data-px-corners="[0,0]=0.1451|[0,1]=0.1481|[0,2]=0.1513|[0,3]=0.1421" data-px-src-d="M2.5,-0.5514L2.5,-0.9L4.9188,-0.9L4.9188,-0.5514L2.5,-0.5514z"/>
    <path fill="#505050" stroke="url(#15468)" stroke-width="0" transform="translate(0.4868, 1.4295)" d="M6.2744,-1.7972C6.2744,-1.6331,6.1413,-1.5,5.9772,-1.5C6.0078,-1.5,3.2367,-1.5,2.7972,-1.5C2.6331,-1.5,2.5,-1.6331,2.5,-1.7972C2.5,-1.8816,2.5313,-1.9572,2.587,-2.013C2.6428,-2.0687,2.7184,-2.1,2.7972,-2.1C3.1545,-2.0954,5.9257,-2.0954,5.9772,-2.1C6.1413,-2.1,6.2744,-1.9669,6.2744,-1.7972z" data-px-corners="[0,0]=0.2972|[0,1]=0.2972|[0,2]=0.2972|[0,3]=0.2972" data-px-src-d="M6.2744,-1.5L2.888,-1.5L2.888,-2.0954L6.2744,-2.0954L6.2744,-1.5z"/>
  </g>
</svg>