<?xml version="1.0" encoding="UTF-8" standalone="no"?>
<!-- Created with Pixodesk SVG (https://pixodesk.com) -->
<svg xmlns="http://www.w3.org/2000/svg" viewBox="0 0 22 22" text-rendering="geometricPrecision" shape-rendering="geometricPrecision">
  <g fill="#000000" transform="translate(18.0327, 8.1274)rotate(119.30062760053856)scale(0.31, 0.31)">
    <path fill="#dd2e44" transform="translate(-0.637, -13.3322)rotate(10)scale(1.42, 1.42)" d="M16.806,10.675C15.886,8.628,14.803,6.609,13.78,4.415C13.752,4.347,13.729,4.277,13.698,4.209C13.634,4.067,13.561,3.932,13.49,3.796L13.438,3.685L13.436,3.688C11.798,0.698,8.343,-0.674,5.46,0.621C2.414,1.988,1.164,5.813,2.67,9.163C4.175,12.514,7.864,14.12,10.91,12.752C11.016,12.705,11.115,12.647,11.216,12.593C13.151,13.031,13.21,14.47,13.21,14.47C13.21,14.47,17.828,12.949,16.806,10.675zM4.876,8.173C3.918,6.04,4.624,3.646,6.451,2.826C8.277,2.004,10.535,3.068,11.493,5.2C12.451,7.332,11.746,9.726,9.92,10.546C8.092,11.367,5.833,10.305,4.876,8.173z"/>
    <path fill="#7994a5" transform="translate(-0.637, -13.3322)rotate(10)scale(1.42, 1.42)" d="M26.978,34.868C28.141,34.211,29.165,32.394,28.507,31.23L16.754,10.559C15.651,11.055,13.816,12.872,13.21,14.471L26.978,34.868z"/>
    <path fill="#dd2e44" transform="translate(-0.637, -13.3322)rotate(10)scale(1.42, 1.42)" d="M30.54,0.62C27.658,-0.675,24.202,0.697,22.564,3.687L22.561,3.684L22.508,3.796C22.437,3.931,22.363,4.066,22.3,4.208C22.27,4.276,22.247,4.345,22.219,4.414C21.196,6.608,20.112,8.627,19.193,10.674C18.172,12.948,22.79,14.47,22.79,14.47C22.79,14.47,22.849,13.031,24.783,12.593C24.885,12.647,24.983,12.704,25.09,12.752C28.135,14.12,31.823,12.514,33.33,9.163C34.835,5.813,33.585,1.988,30.54,0.62zM31.124,8.173C30.165,10.305,27.908,11.367,26.08,10.546C24.254,9.726,23.549,7.332,24.508,5.2C25.464,3.068,27.722,2.005,29.549,2.826C31.376,3.646,32.081,6.04,31.124,8.173z"/>
    <g id="g6344" transform="translate(2.7915, 65.1372)rotate(-119.30062760053856)scale(3.2258, 3.2258)">
      <path id="path3286" fill="#003698" stroke="none" transform="translate(-0.6894, -0.8708)scale(1.14, 1.14)" d="M17,6.5C13.6223,6.5,10.7527,7.7044,8.7286,9.7286C6.7044,11.7527,5.5,14.6223,5.5,18L4.5,18C4.5,14.3777,5.7956,11.2473,8.0214,9.0214C10.2473,6.7956,13.3777,5.5,17,5.5L17,6.5z"/>
      <path id="path3284" fill="#ff0000" stroke="none" transform="translate(14.2, -19.183)scale(0.8, 1.2944)" d="M6,19.455C6,20.3083,4.8807,21,3.5,21C2.1193,21,1,20.3083,1,19.455C1,18.6017,2.1193,17.91,3.5,17.91C4.8807,17.91,6,18.6017,6,19.455z"/>
      <path id="path3282" fill="#fd0000" stroke="none" transform="translate(2.2, -7.183)scale(0.8, 1.2944)" d="M6,19.455C6,20.3083,4.8807,21,3.5,21C2.1193,21,1,20.3083,1,19.455C1,18.6017,2.1193,17.91,3.5,17.91C4.8807,17.91,6,18.6017,6,19.455z"/>
      <path fill="#b1c3d0" transform="translate(21.7335, 10.9778)rotate(129.30062760053858)scale(0.4402, 0.4402)" d="M9.022,34.868C7.859,34.211,6.835,32.394,7.493,31.23L19.246,10.559C20.349,11.055,22.184,12.872,22.79,14.471L9.022,34.868z"/>
      <path fill="#9bafbd" transform="translate(21.7335, 10.9778)rotate(129.30062760053858)scale(0.4402, 0.4402)" d="M19.562,17.396C19.5614,18.2592,18.8612,18.9586,17.998,18.958C17.1348,18.9574,16.4354,18.2572,16.436,17.394C16.4366,16.5308,17.1368,15.8314,18,15.832C18.8632,15.8326,19.5626,16.5328,19.562,17.396z"/>
    </g>
  </g>
</svg>