<?xml version="1.0" encoding="UTF-8" standalone="no"?>
<!-- Created with Pixodesk SVG (https://pixodesk.com) -->
<svg xmlns="http://www.w3.org/2000/svg" viewBox="0 0 441 512.02" text-rendering="geometricPrecision" shape-rendering="geometricPrecision" fill-rule="evenodd">
  <g fill="#0066ff">
    <path fill="#005cff" transform="translate(179.81, 272.715)translate(-179.81, -272.715)" d="M104.56,357.66C97.58,357.66,91.92,351.9999,91.92,345.01C91.92,338.03,97.58,332.37,104.56,332.37L190.76,332.37C186.9401,340.42,183.81,348.88,181.47,357.66L104.56,357.66zM104.56,285.36C97.58,285.36,91.92,279.6999,91.92,272.71C91.92,265.73,97.58,260.07,104.56,260.07L247.08,260.07C250.79,260.07,254.1301,261.6701,256.45,264.22C245.4283,269.9655,235.1686,277.0674,225.91,285.36L104.56,285.36zM104.56,213.06C97.58,213.06,91.92,207.3999,91.92,200.42C91.92,193.43,97.58,187.77,104.56,187.77L255.05,187.77C262.03,187.77,267.7,193.43,267.7,200.42C267.7,207.3999,262.0299,213.06,255.05,213.06L104.56,213.06z"/>
    <path fill="#005cff" transform="translate(179.79, 231.11)translate(-179.79, -231.11)" d="M334.32,158.57L293.02,158.53C270.53,158.1801,252.8098,152.13,240.1199,141.29C226.89,129.98,219.4399,113.9399,217.93,94.06L217.8199,92.32L217.8199,25.29L62.87,25.29C52.5301,25.29,43.1199,29.52,36.3199,36.32C29.5199,43.1199,25.2899,52.53,25.2899,62.87L25.2899,399.36C25.2899,409.66,29.5399,419.07,36.3499,425.88C43.1498,432.68,52.57,436.93,62.8699,436.93L182.2799,436.93C184.8198,445.72,188.15,454.18,192.1999,462.22L62.87,462.22C45.59,462.22,29.8499,455.1399,18.46,443.76C7.08,432.37,0,416.6399,0,399.36L0,62.87C0,45.6101,7.0801,29.8899,18.45,18.5099C29.89,7.08,45.6101,0,62.87,0L236.75,0C240.86,0,244.51,1.96,246.82,5L356.21,123.34C358.45,125.77,359.5499,128.83,359.5499,131.89L359.5799,251.61C351.3999,249.6401,342.9598,248.3599,334.3199,247.82L334.32,158.57zM243.11,92.2599C244.1,105.1899,248.61,115.35,256.53,122.1099C264.7299,129.1198,276.99,133.05,293.22,133.3399L331.14,133.2999L243.11,38.08L243.11,92.2599z"/>
    <path fill="#006714" transform="translate(324.875, 395.895)translate(-324.875, -395.895)" d="M324.87,279.77C356.8799,279.77,385.8801,292.78,406.9,313.7899C427.9899,334.7899,441,363.84,441,395.89C441,427.95,427.9899,457,406.98,478L405.66,479.22C384.74,499.51,356.2499,512.02,324.87,512.02C292.81,512.02,263.7699,499.0099,242.77,478C221.7601,457,208.75,427.95,208.75,395.89C208.75,363.83,221.76,334.7899,242.77,313.7899C263.7699,292.78,292.81,279.77,324.87,279.77zM369.37,388.77L349.61,388.77L349.61,356.32C349.61,350.4301,344.7999,345.63,338.9,345.63L310.84,345.63C304.9501,345.63,300.14,350.5001,300.14,356.32L300.14,388.77L280.4,388.77C276.84,388.92,274.33,390.1,272.84,392.32C269.17,397.7899,273.5201,403.2001,277.03,407.15L318.04,448.97C322.3599,453.28,327.3601,453.2299,331.68,448.97L371.72,408.26C375.47,404.1301,380.89,398.2599,376.91,392.32C375.46,390.1,372.93,388.9199,369.37,388.77z"/>
  </g>
</svg>