<?xml version="1.0" encoding="UTF-8" standalone="no"?>
<!-- Created with Pixodesk SVG (https://pixodesk.com) -->
<svg xmlns="http://www.w3.org/2000/svg" viewBox="0 0 512 512" text-rendering="geometricPrecision" shape-rendering="geometricPrecision" stroke="none">
  <g transform="translate(256.0005, 256.0005)translate(-256.0005, -256.0005)">
    <path fill="#c8ae42" d="M0.003,99.465L412.536,511.997L436.408,488.127L254.012,257.99L23.874,75.594"/>
    <path fill="#e3dd81" d="M23.874,75.594L436.408,488.127L511.998,412.536L486.256,386.794L474.32,386.796L474.321,374.86L454.544,355.082L442.608,355.083L442.608,343.146L422.832,323.371L410.896,323.372L410.896,311.435L391.119,291.657L379.183,291.658L379.184,279.722L232.278,132.817L220.342,132.818L220.344,120.882L200.566,101.104L188.63,101.105L188.63,89.169L168.854,69.393L156.917,69.393L156.919,57.457L137.142,37.68L125.205,37.68L125.206,25.744L99.464,0.004"/>
  </g>
  <g fill="#fedc3d">
    <path fill="#c8ae42" d="M125.205,25.746L101.335,49.616C98.039,52.912,98.039,58.255,101.335,61.552C104.631,64.849,109.975,64.848,113.271,61.552L137.141,37.682L125.205,25.746z"/>
    <path fill="#c8ae42" d="M156.917,57.458L133.047,81.328C129.751,84.624,129.751,89.967,133.047,93.264C136.343,96.561,141.687,96.56,144.983,93.264L168.853,69.394L156.917,57.458z"/>
    <path fill="#c8ae42" d="M188.63,89.169L164.76,113.039C161.464,116.335,161.464,121.678,164.76,124.975C168.056,128.272,173.4,128.271,176.696,124.975L200.566,101.105L188.63,89.169z"/>
    <path fill="#c8ae42" d="M220.342,120.882L196.472,144.752C193.176,148.048,193.176,153.391,196.472,156.688C199.768,159.985,205.112,159.984,208.408,156.688L232.278,132.818L220.342,120.882z"/>
    <path fill="#c8ae42" d="M474.32,374.86L450.45,398.73C447.154,402.026,447.154,407.369,450.45,410.666C453.746,413.962,459.09,413.962,462.386,410.666L486.256,386.796L474.32,374.86z"/>
    <path fill="#c8ae42" d="M442.608,343.147L418.738,367.017C415.442,370.313,415.442,375.656,418.738,378.953C422.034,382.249,427.378,382.249,430.674,378.953L454.544,355.083L442.608,343.147z"/>
    <path fill="#c8ae42" d="M410.896,311.436L387.026,335.306C383.73,338.602,383.73,343.945,387.026,347.242C390.322,350.538,395.666,350.538,398.962,347.242L422.832,323.372L410.896,311.436z"/>
    <path fill="#c8ae42" d="M379.183,279.723L355.313,303.593C352.017,306.889,352.017,312.232,355.313,315.529C358.609,318.825,363.953,318.825,367.249,315.529L391.119,291.659L379.183,279.723z"/>
  </g>
  <g transform="translate(259.625, 240.875)translate(-259.625, -240.875)">
    <path fill="#0ac11e" stroke="#003a73" stroke-width="0" transform="translate(226.239, 259.3068)translate(-134.4758, -187.9354)" d="M378.7368,10.3786L37.4868,343.3786L-11.5132,290.8786L319.7368,-40.1214L378.7368,10.3786z"/>
    <path fill="#0ac11e" stroke="#003a73" stroke-width="0" transform="translate(144.75, 426.25)" d="M25.25,23.25L-94.25,-110.25L-96,23.75L25.25,23.25z"/>
    <path fill="#0c9a1c" stroke="#003a73" stroke-width="0" transform="translate(320.5, 124.75)" d="M-2.75,-0.5L-233.75,232L-271.5,325.25L34.75,20L-2.75,-0.5z"/>
    <path fill="#0c9a1c" stroke="#003a73" stroke-width="0" transform="translate(50.5, 314.5)" d="M0,1L-1.25,136L52.5,59.5L0,1z"/>
  </g>
  <ellipse fill="#e1002a" stroke="none" transform="translate(399.25, 99.875)" rx="93.75" ry="89.625"/>
</svg>