<?xml version="1.0" encoding="UTF-8" standalone="no"?>
<!-- Created with Pixodesk SVG (https://pixodesk.com) -->
<svg xmlns="http://www.w3.org/2000/svg" viewBox="0 0 512 346.079" text-rendering="geometricPrecision" shape-rendering="geometricPrecision" fill-rule="evenodd">
  <g>
    <path fill="#464646" d="M512,0L512,305.662L323.206,305.662L323.206,324.611L392.413,324.611L392.413,346.079L118.977,346.079L118.977,324.611L188.184,324.611L188.184,305.662L0,305.662L0,0L512,0z"/>
    <path fill="#6cc0ef" d="M494.691,17.309L17.309,17.309L17.309,288.353L494.691,288.353L494.691,17.309z"/>
    <path fill="#7bc6f1" d="M494.691,17.309L17.309,17.309C152.141,162.551,303.58,270.266,494.691,288.353L494.691,17.309z"/>
  </g>
  <g fill="#001c477e" transform="translate(256.419, 155.0325)rotate(270.2513768207926)scale(0.45, 0.45)translate(-256, -256)">
    <path d="M227.408,90.699L187.762,104.567C167.585,112.36,151.094,99.256,165.133,85.031L240.632,9.53C253.34,-3.176,258.66,-3.176,271.368,9.53L346.868,85.031C360.906,99.256,344.414,112.36,324.239,104.567L284.593,90.699L284.593,227.407L421.301,227.407L407.432,187.76C399.64,167.585,412.744,151.093,426.968,165.132L502.47,240.631C515.176,253.339,515.176,258.659,502.47,271.367L426.968,346.867C412.744,360.905,399.64,344.414,407.432,324.238L421.301,284.592L284.593,284.592L284.593,421.301L324.239,407.432C344.414,399.64,360.906,412.744,346.868,426.969L271.368,502.47C258.66,515.176,253.34,515.176,240.632,502.47L165.133,426.969C151.094,412.744,167.585,399.64,187.762,407.432L227.408,421.301L227.408,284.592L90.699,284.592L104.567,324.238C112.36,344.414,99.256,360.905,85.031,346.867L9.53,271.367C-3.176,258.659,-3.176,253.339,9.53,240.631L85.031,165.132C99.256,151.093,112.36,167.585,104.567,187.76L90.699,227.407L227.408,227.407L227.408,90.699z"/>
  </g>
</svg>