<?xml version="1.0" encoding="UTF-8" standalone="no"?>
<!-- Created with Pixodesk SVG (https://pixodesk.com) -->
<svg xmlns="http://www.w3.org/2000/svg" viewBox="0 0 122.88 108.1" text-rendering="geometricPrecision" shape-rendering="geometricPrecision">
  <path fill="#4fa8ff" stroke="#000000" transform="translate(29.1377, 93.2775)" d="M4.6345,1.0428C-9.269,1.5062,-3.6702,8.6876,-8.5738,7.6469C-13.4775,6.6063,-20.9712,-10.5435,-20.9712,-10.5435L-25.6057,-36.6126L-14.4829,-65.4625L5.5614,-83.3054L30.9354,-89.562L58.1631,-83.3054L79.9453,-64.3039L89.0985,-40.3203L86.3178,-12.2815C86.3178,-12.2815,81.2934,2.4454,76.5853,5.2138C71.8773,7.9822,74.7315,0.4635,62.3342,0.811C49.9369,1.1586,18.538,0.5793,4.6345,1.0428z"/>
  <path fill="#050505" stroke-width="0" transform="translate(61.4884, 53.9669)translate(-61.4884, -53.9669)" d="M114.71,66L104.65,66L104.65,56.3L114.65,56.3C113.5313,44.6608,108.6113,33.7138,100.65,25.15L95.22,30.58L88.4,23.71L93.47,18.64C85.1483,12.3912,75.177,8.7197,64.79,8.08L64.79,15.17L55.1,15.17L55.1,8.35C44.7796,9.5828,35.046,13.8099,27.1,20.51L32.42,25.83L25.57,32.68L20.28,27.39C13.4735,35.5988,9.2924,45.6645,8.28,56.28L17,56.28L17,66L8.17,66C9.0618,76.6152,13.1203,86.718,19.82,95L27.21,87.61L34.06,94.46L26.56,101.96L26.66,102.04L21.49,108.04C2.0965,91.421,-5.0002,64.5412,3.6623,40.515C12.3248,16.4887,34.9415,0.3219,60.4783,-0.0979C86.015,-0.5177,109.1509,14.8969,118.5985,38.6255C128.046,62.354,121.8367,89.4525,103,106.7L99.49,102.89L99.49,102.89L91,94.47L97.85,87.62L104,93.81C106.5554,90.4505,108.7068,86.8021,110.41,82.94C112.7752,77.5507,114.2283,71.8057,114.71,65.94L114.71,66zM61.44,41C62.6524,40.9974,63.862,41.1181,65.05,41.36L53.8,49.83C53.6611,49.929,53.5307,50.0394,53.41,50.16C49.1,53.78,48.11,58.35,49.18,62.32C49.7297,64.3416,50.8064,66.1809,52.3,67.65C53.8084,69.1292,55.6933,70.1668,57.75,70.65C61.89,71.65,66.75,70.37,70.75,65.26C70.8489,65.1399,70.9391,65.0129,71.02,64.88L78.82,54.16C80.8345,61.5827,77.9242,69.4666,71.57,73.8C65.1778,78.1325,56.7343,77.9051,50.5846,73.2347C44.4349,68.5644,41.9493,60.4918,44.407,53.1712C46.8646,45.8507,53.7179,40.9133,61.44,40.9L61.44,41zM34.06,94.46L91,94.47L97.85,87.62L27.21,87.61L34.06,94.46z"/>
  <path class="cls-1" fill="#ef1c25" fill-rule="evenodd" d="M85.62,30.71L56.2,53C46.74,60.58,59,73.76,67.62,62.84L88.87,33.65L85.62,30.71z"/>
</svg>