<?xml version="1.0" encoding="UTF-8" standalone="no"?>
<!-- Created with Pixodesk SVG (https://pixodesk.com) -->
<svg xmlns="http://www.w3.org/2000/svg" viewBox="0 0 64 64" text-rendering="geometricPrecision" shape-rendering="geometricPrecision">
  <path fill="#e5e5e5" d="M36.9,33.6C35.3,33.1,34.3,32.9,34.3,32C34.3,31.2,35.3,31,36.9,30.4C45.6,28,48.1,21.7,48.1,11L15.9,11C15.9,21.7,18.4,28,27.1,30.4C28.7,30.9,29.7,31.1,29.7,32C29.7,32.9,28.7,33,27.1,33.6C18.4,36,15.9,42.3,15.9,53L48.1,53C48.1,42.3,45.6,36,36.9,33.6"/>
  <path fill="#f5f5f5" d="M35.5,33.6C34.3,33.1,33.6,32.9,33.6,32C33.6,31.2,34.3,31,35.5,30.4C41.8,27.9,42.4,21.6,42.4,11L21.6,11C21.6,21.7,22.2,28,28.5,30.4C29.7,30.9,30.4,31.1,30.4,32C30.4,32.9,29.7,33,28.5,33.6C22.2,36.1,21.6,42.4,21.6,53L42.5,53C42.4,42.3,41.8,36,35.5,33.6"/>
  <path fill="#428bc1" d="M32.9,53C32.9,53,32.3,35.1,32.3,32C32.3,31.2,33.9,30,34.6,29.6C37.7,27.8,41.6,24.3,41.6,20.7L22.3,20.7C22.3,24.4,26.3,27.9,29.3,29.6C30,30,31.6,31.2,31.6,32C31.6,35.2,31,53,31,53L32.9,53"/>
  <g fill="#212528">
    <path d="M56,62C56,63.1,55.2,64,54.1,64L9.9,64C8.9,64,8,63.1,8,62L8,59C8,57.9,8.8,57,9.9,57L54.2,57C55.2,57,56.1,57.9,56.1,59L56,62"/>
    <path d="M50,10.2C50,10.6,49.6,11,49.1,11L14.9,11C14.4,11,14,10.6,14,10.2L14,7.8C14,7.4,14.4,7,14.9,7L49.1,7C49.6,7,50,7.4,50,7.8L50,10.2"/>
  </g>
  <path fill="#51575b" d="M45,10.2C45,10.6,44.7,11,44.3,11L19.7,11C19.3,11,19,10.6,19,10.2L19,7.8C19,7.4,19.3,7,19.7,7L44.3,7C44.7,7,45,7.4,45,7.8L45,10.2"/>
  <g fill="#212528">
    <path d="M50,56.2C50,56.6,49.6,57,49.1,57L14.9,57C14.4,57,14,56.6,14,56.2L14,53.8C14,53.4,14.4,53,14.9,53L49.1,53C49.6,53,50,53.4,50,53.8L50,56.2"/>
    <path d="M56,5C56,6.1,55.2,7,54.1,7L9.9,7C8.8,7,8,6.1,8,5L8,2C8,0.9,8.8,0,9.9,0L54.2,0C55.2,0,56.1,0.9,56.1,2L56,5"/>
  </g>
  <g fill="#51575b">
    <path d="M50,5C50,6.1,49.3,7,48.5,7L15.5,7C14.7,7,14,6.1,14,5L14,2C14,0.9,14.7,0,15.5,0L48.6,0C49.3,0,50,0.9,50,2L50,5"/>
    <path d="M50,62C50,63.1,49.3,64,48.5,64L15.5,64C14.7,64,14,63.1,14,62L14,59C14,57.9,14.7,57,15.5,57L48.6,57C49.4,57,50.1,57.9,50.1,59C50,59,50,62,50,62"/>
  </g>
  <path fill="#919191" d="M12,7L13,7L13,57L12,57L12,7z"/>
  <path fill="#cecece" d="M11,7L12,7L12,57L11,57L11,7z"/>
  <path fill="#919191" d="M52,7L53,7L53,57L52,57L52,7z"/>
  <path fill="#cecece" d="M51,7L52,7L52,57L51,57L51,7z"/>
  <path fill="#51575b" d="M45,56.2C45,56.6,44.7,57,44.3,57L19.7,57C19.3,57,19,56.6,19,56.2L19,53.8C19,53.4,19.3,53,19.7,53L44.3,53C44.7,53,45,53.4,45,53.8L45,56.2"/>
</svg>