<?xml version="1.0" encoding="UTF-8" standalone="no"?>
<!-- Created with Pixodesk SVG (https://pixodesk.com) -->
<svg xmlns="http://www.w3.org/2000/svg" viewBox="-10 -10 20.00002552124872 20" text-rendering="geometricPrecision" shape-rendering="geometricPrecision" fill="url(#256)" stroke="#003a73" stroke-width="0">
  <defs>
    <radialGradient id="256" spreadMethod="pad" cx="61.3985" cy="57.99999" fx="61.3985" fy="57.99999" r="44.7969" gradientTransform="rotate(4)" gradientUnits="userSpaceOnUse">
      <stop offset="0%" stop-color="rgb(255,255,255)"/>
      <stop offset="100%" stop-color="rgb(215,100,0)"/>
    </radialGradient>
    <radialGradient id="2025" spreadMethod="pad" cx="2.6500000000000004" cy="-0.5" fx="2.6500000000000004" fy="-0.5" r="6.25" gradientUnits="userSpaceOnUse">
      <stop offset="0%" stop-color="rgb(5,5,5)"/>
      <stop offset="100%" stop-color="rgb(0,58,115)"/>
    </radialGradient>
    <radialGradient id="1968" spreadMethod="pad" cx="-6.800000000000001" cy="-4.300000000000001" fx="-6.800000000000001" fy="-4.300000000000001" r="6.800000000000001" gradientUnits="userSpaceOnUse">
      <stop offset="0%" stop-color="rgb(5,5,5)"/>
      <stop offset="100%" stop-color="rgb(0,58,115)"/>
    </radialGradient>
    <radialGradient id="1628" spreadMethod="pad" cx="4.8" cy="-4.2" fx="4.8" fy="-4.2" r="4.8" gradientUnits="userSpaceOnUse">
      <stop offset="0%" stop-color="rgb(0,0,0)"/>
      <stop offset="100%" stop-color="rgb(0,58,115)"/>
    </radialGradient>
    <radialGradient id="256" spreadMethod="pad" cx="61.3985" cy="57.99999" fx="61.3985" fy="57.99999" r="44.7969" gradientTransform="rotate(4)" gradientUnits="userSpaceOnUse">
      <stop offset="0%" stop-color="rgb(255,255,255)"/>
      <stop offset="100%" stop-color="rgb(215,100,0)"/>
    </radialGradient>
  </defs>
  <path fill="#000000" stroke="url(#1628)" stroke-width="0" transform="scale(1.6537, 1.6796)translate(-5, 4)" d="M0.2,-7.6943C0.2,-8.305,0.695,-8.8,1.3057,-8.8C1.3054,-8.8,7.0546,-8.8,7.33,-8.8C7.7565,-8.8,8.1629,-8.619,8.4482,-8.302C8.4482,-8.302,9.239,-7.4234,9.4138,-7.2291C9.6624,-6.9529,9.8,-6.5944,9.8,-6.2227C9.8,-6.2229,9.8,-0.6218,9.8,-0.3057C9.8,0.305,9.305,0.8,8.6943,0.8C8.6945,0.8,1.7037,0.8,1.3057,0.8C0.695,0.8,0.2,0.305,0.2,-0.3057C0.2,-0.3055,0.2,-7.2963,0.2,-7.6943zM6.4,-7.8L6.4,-5.8L5.4,-5.8L5.4,-7.8L6.4,-7.8zM2.7972,-0.3C2.7183,-0.3,2.6428,-0.3313,2.587,-0.387C2.5313,-0.4428,2.5,-0.5183,2.5,-0.5972C2.5,-0.767,2.633,-0.9,2.7972,-0.9C2.797,-0.9,5.7096,-0.9,5.8028,-0.9C5.967,-0.9,6.1,-0.767,6.1,-0.6028C6.1,-0.433,5.967,-0.3,5.8028,-0.3C5.803,-0.3,2.8904,-0.3,2.7972,-0.3zM7,-1.7972C7,-1.633,6.867,-1.5,6.7028,-1.5C6.7031,-1.5,2.8816,-1.5,2.7972,-1.5C2.633,-1.5,2.5,-1.633,2.5,-1.7972C2.5,-1.967,2.633,-2.1,2.7972,-2.1C2.7969,-2.1,6.6184,-2.1,6.7028,-2.1C6.867,-2.1,7,-1.967,7,-1.7972zM7.3028,-3.3C7.467,-3.3,7.6,-3.167,7.6,-3.0028C7.6,-2.833,7.467,-2.7,7.3028,-2.7C7.3031,-2.7,2.8768,-2.7,2.7972,-2.7C2.633,-2.7,2.5,-2.833,2.5,-2.9972C2.5,-3.167,2.633,-3.3,2.7972,-3.3C2.7969,-3.3,7.2232,-3.3,7.3028,-3.3zM2.1,-8.0059C2.1,-8.1131,2.0132,-8.1999,1.906,-8.1999C1.906,-8.1999,1.8225,-8.2,1.7921,-8.2C1.6859,-8.2,1.5999,-8.114,1.5999,-8.0078C1.5999,-8.0078,1.5999,-7.675,1.5999,-7.5923C1.5999,-7.4861,1.6859,-7.4001,1.7921,-7.4001C1.7601,-7.4001,1.8431,-7.4001,1.908,-7.4C1.9589,-7.4,2.0078,-7.4202,2.0438,-7.4562C2.0798,-7.4922,2.1,-7.5411,2.1,-7.592C2.1,-7.592,2.1,-7.9227,2.1,-8.0059zM2.6176,-3.8C2.2765,-3.8,2,-3.5235,2,-3.1824C2,-3.1825,2,0.2,2,0.2L8,0.2L8,-3.3016C8,-3.5768,7.7768,-3.8,7.5016,-3.8C7.5018,-3.8,2.8088,-3.8,2.6176,-3.8zM3,-5.7C3,-5.5343,3.1343,-5.4,3.3,-5.4C3.2999,-5.4,6.6097,-5.4,6.7,-5.4C6.8657,-5.4,7,-5.5343,7,-5.7C7,-5.6999,7,-8.2,7,-8.2L3,-8.2C3,-8.2,3,-5.6999,3,-5.7z" data-px-corners="[0,0]=1.1057|[0,1]=1.5044|[0,2]=1.5044|[0,3]=1.1057|[0,4]=1.1057|[2,0]=0.2972|[2,1]=0.2972|[2,2]=0.2972|[2,3]=0.2972|[3,0]=0.2972|[3,1]=0.2972|[3,2]=0.2972|[3,3]=0.2972|[4,0]=0.2972|[4,1]=0.2972|[4,2]=0.2972|[4,3]=0.2972|[5,0]=0.194|[5,1]=0.1922|[5,2]=0.1922|[5,3]=0.1919|[6,0]=0.6176|[6,3]=0.4984|[7,0]=0.3|[7,1]=0.3" data-px-src-d="M0.2,-8.8L8,-8.8L9.8,-6.8L9.8,0.8L0.2,0.8L0.2,-8.8zM6.4,-7.8L6.4,-5.8L5.4,-5.8L5.4,-7.8L6.4,-7.8zM2.5,-0.3L2.5,-0.9L6.1,-0.9L6.1,-0.3L2.5,-0.3zM7,-1.5L2.5,-1.5L2.5,-2.1L7,-2.1L7,-1.5zM7.6,-3.3L7.6,-2.7L2.5,-2.7L2.5,-3.3L7.6,-3.3zM2.1,-8.1999L1.5999,-8.2L1.5999,-7.4001L2.1,-7.4L2.1,-8.1999zM2,-3.8L2,0.2L8,0.2L8,-3.8L2,-3.8zM3,-5.4L7,-5.4L7,-8.2L3,-8.2L3,-5.4z"/>
  <g transform="translate(0, 1.2)scale(0.88, 0.88)">
    <path fill="#ffffff" stroke="url(#1968)" transform="translate(0, 1)scale(0.77, 0.77)" d="M7.5321,-0.7666C8.521,-1.9749,8.3676,-3.751,7.1861,-4.7718C7.1862,-4.7718,6.8748,-5.0409,6.3248,-5.5161C5.7368,-6.0242,4.9685,-6.2732,4.1942,-6.2067C3.4199,-6.1402,2.7053,-5.7637,2.2126,-5.1628L-1.4924,-0.6439L-2.3092,-1.3648C-2.8861,-1.874,-3.6427,-2.1313,-4.4104,-2.0793C-5.1781,-2.0274,-5.8932,-1.6706,-6.3963,-1.0884C-6.3962,-1.0884,-6.7047,-0.7314,-7.1939,-0.1653C-8.2101,1.0107,-8.1323,2.7753,-7.0166,3.8574C-7.0168,3.8572,-4.1851,6.6034,-3.2658,7.4949C-2.6869,8.0563,-1.8994,8.3495,-1.0943,8.3032C-0.2893,8.2569,0.4595,7.8754,0.9702,7.2514C0.9701,7.2515,6.7659,0.1697,7.5321,-0.7666z" data-px-corners="[0,0]=2.8815|[0,1]=2.8815|[0,3]=2.8815|[0,4]=2.9327|[0,5]=2.8815" data-px-src-d="M9.3089,-2.9376L4.0874,-7.4494L-1.4924,-0.6439L-4.4924,-3.2917L-9.0042,1.9298L-1.0153,9.6775L9.3089,-2.9376z" style="pointer-events:none"/>
    <path fill="#2d9700" stroke="url(#2025)" transform="translate(0, 1)scale(0.81, 0.81)" d="M-1.3349,1.9686C-1.3349,1.9686,3.1217,-3.5916,3.1215,-3.5914C3.4139,-3.9562,3.841,-4.1878,4.3062,-4.2338C4.7715,-4.2797,5.2356,-4.1363,5.5938,-3.8357C6.3245,-3.2226,6.4241,-2.1348,5.8167,-1.3992C5.8169,-1.3995,0.517,5.0195,0.07,5.5609C-0.236,5.9315,-0.6814,6.1595,-1.161,6.191C-1.6407,6.2225,-2.1121,6.0548,-2.464,5.7274C-2.4638,5.7275,-5.0923,3.282,-5.6287,2.7829C-6.3,2.1583,-6.3643,1.1172,-5.7748,0.4147C-5.4766,0.0592,-5.0476,-0.161,-4.5849,-0.1962C-4.1222,-0.2313,-3.6649,-0.0785,-3.3163,0.2277L-1.3349,1.9686z" data-px-corners="[0,1]=1.7448|[0,2]=1.7448|[0,3]=1.7448|[0,4]=1.7448|[0,5]=1.7448" data-px-src-d="M-1.3349,1.9686L4.2327,-4.9778L6.9139,-2.728L-1.1086,6.9884L-6.8267,1.6682L-4.6412,-0.9363L-1.3349,1.9686z" style="pointer-events:none"/>
  </g>
</svg>