<?xml version="1.0" encoding="UTF-8" standalone="no"?>
<!-- Created with Pixodesk SVG (https://pixodesk.com) -->
<svg xmlns="http://www.w3.org/2000/svg" viewBox="-10 -10 20.00002552124872 20" text-rendering="geometricPrecision" shape-rendering="geometricPrecision" fill="url(#256)" stroke="#003a73" stroke-width="0">
  <defs>
    <radialGradient id="256" spreadMethod="pad" cx="61.3985" cy="57.99999" fx="61.3985" fy="57.99999" r="44.7969" gradientTransform="rotate(4)" gradientUnits="userSpaceOnUse">
      <stop offset="0%" stop-color="rgb(255,255,255)"/>
      <stop offset="100%" stop-color="rgb(215,100,0)"/>
    </radialGradient>
    <radialGradient id="1855" spreadMethod="pad" cx="0.8000000000000005" cy="1.3499999999999996" fx="0.8000000000000005" fy="1.3499999999999996" r="4.7" gradientUnits="userSpaceOnUse">
      <stop offset="0%" stop-color="rgb(5,5,5)"/>
      <stop offset="100%" stop-color="rgb(0,58,115)"/>
    </radialGradient>
    <radialGradient id="1798" spreadMethod="pad" cx="3.700000000000001" cy="7.300000000000001" fx="3.700000000000001" fy="7.300000000000001" r="7.9" gradientUnits="userSpaceOnUse">
      <stop offset="0%" stop-color="rgb(5,5,5)"/>
      <stop offset="100%" stop-color="rgb(0,58,115)"/>
    </radialGradient>
    <radialGradient id="1628" spreadMethod="pad" cx="4.8" cy="-4.2" fx="4.8" fy="-4.2" r="4.8" gradientUnits="userSpaceOnUse">
      <stop offset="0%" stop-color="rgb(0,0,0)"/>
      <stop offset="100%" stop-color="rgb(0,58,115)"/>
    </radialGradient>
    <radialGradient id="256" spreadMethod="pad" cx="61.3985" cy="57.99999" fx="61.3985" fy="57.99999" r="44.7969" gradientTransform="rotate(4)" gradientUnits="userSpaceOnUse">
      <stop offset="0%" stop-color="rgb(255,255,255)"/>
      <stop offset="100%" stop-color="rgb(215,100,0)"/>
    </radialGradient>
  </defs>
  <path fill="#000000" stroke="url(#1628)" stroke-width="0" transform="scale(1.6537, 1.6796)translate(-5, 4)" d="M0.2,-7.6943C0.2,-8.305,0.695,-8.8,1.3057,-8.8C1.3054,-8.8,7.0546,-8.8,7.33,-8.8C7.7565,-8.8,8.1629,-8.619,8.4482,-8.302C8.4482,-8.302,9.239,-7.4234,9.4138,-7.2291C9.6624,-6.9529,9.8,-6.5944,9.8,-6.2227C9.8,-6.2229,9.8,-0.6218,9.8,-0.3057C9.8,0.305,9.305,0.8,8.6943,0.8C8.6945,0.8,1.7037,0.8,1.3057,0.8C0.695,0.8,0.2,0.305,0.2,-0.3057C0.2,-0.3055,0.2,-7.2963,0.2,-7.6943zM6.4,-7.8L6.4,-5.8L5.4,-5.8L5.4,-7.8L6.4,-7.8zM2.7972,-0.3C2.7183,-0.3,2.6428,-0.3313,2.587,-0.387C2.5313,-0.4428,2.5,-0.5183,2.5,-0.5972C2.5,-0.767,2.633,-0.9,2.7972,-0.9C2.797,-0.9,5.7096,-0.9,5.8028,-0.9C5.967,-0.9,6.1,-0.767,6.1,-0.6028C6.1,-0.433,5.967,-0.3,5.8028,-0.3C5.803,-0.3,2.8904,-0.3,2.7972,-0.3zM7,-1.7972C7,-1.633,6.867,-1.5,6.7028,-1.5C6.7031,-1.5,2.8816,-1.5,2.7972,-1.5C2.633,-1.5,2.5,-1.633,2.5,-1.7972C2.5,-1.967,2.633,-2.1,2.7972,-2.1C2.7969,-2.1,6.6184,-2.1,6.7028,-2.1C6.867,-2.1,7,-1.967,7,-1.7972zM7.3028,-3.3C7.467,-3.3,7.6,-3.167,7.6,-3.0028C7.6,-2.833,7.467,-2.7,7.3028,-2.7C7.3031,-2.7,2.8768,-2.7,2.7972,-2.7C2.633,-2.7,2.5,-2.833,2.5,-2.9972C2.5,-3.167,2.633,-3.3,2.7972,-3.3C2.7969,-3.3,7.2232,-3.3,7.3028,-3.3zM2.1,-8.0059C2.1,-8.1131,2.0132,-8.1999,1.906,-8.1999C1.906,-8.1999,1.8225,-8.2,1.7921,-8.2C1.6859,-8.2,1.5999,-8.114,1.5999,-8.0078C1.5999,-8.0078,1.5999,-7.675,1.5999,-7.5923C1.5999,-7.4861,1.6859,-7.4001,1.7921,-7.4001C1.7601,-7.4001,1.8431,-7.4001,1.908,-7.4C1.9589,-7.4,2.0078,-7.4202,2.0438,-7.4562C2.0798,-7.4922,2.1,-7.5411,2.1,-7.592C2.1,-7.592,2.1,-7.9227,2.1,-8.0059zM2.6176,-3.8C2.2765,-3.8,2,-3.5235,2,-3.1824C2,-3.1825,2,0.2,2,0.2L8,0.2L8,-3.3016C8,-3.5768,7.7768,-3.8,7.5016,-3.8C7.5018,-3.8,2.8088,-3.8,2.6176,-3.8zM3,-5.7C3,-5.5343,3.1343,-5.4,3.3,-5.4C3.2999,-5.4,6.6097,-5.4,6.7,-5.4C6.8657,-5.4,7,-5.5343,7,-5.7C7,-5.6999,7,-8.2,7,-8.2L3,-8.2C3,-8.2,3,-5.6999,3,-5.7z" data-px-corners="[0,0]=1.1057|[0,1]=1.5044|[0,2]=1.5044|[0,3]=1.1057|[0,4]=1.1057|[2,0]=0.2972|[2,1]=0.2972|[2,2]=0.2972|[2,3]=0.2972|[3,0]=0.2972|[3,1]=0.2972|[3,2]=0.2972|[3,3]=0.2972|[4,0]=0.2972|[4,1]=0.2972|[4,2]=0.2972|[4,3]=0.2972|[5,0]=0.194|[5,1]=0.1922|[5,2]=0.1922|[5,3]=0.1919|[6,0]=0.6176|[6,3]=0.4984|[7,0]=0.3|[7,1]=0.3" data-px-src-d="M0.2,-8.8L8,-8.8L9.8,-6.8L9.8,0.8L0.2,0.8L0.2,-8.8zM6.4,-7.8L6.4,-5.8L5.4,-5.8L5.4,-7.8L6.4,-7.8zM2.5,-0.3L2.5,-0.9L6.1,-0.9L6.1,-0.3L2.5,-0.3zM7,-1.5L2.5,-1.5L2.5,-2.1L7,-2.1L7,-1.5zM7.6,-3.3L7.6,-2.7L2.5,-2.7L2.5,-3.3L7.6,-3.3zM2.1,-8.1999L1.5999,-8.2L1.5999,-7.4001L2.1,-7.4L2.1,-8.1999zM2,-3.8L2,0.2L8,0.2L8,-3.8L2,-3.8zM3,-5.4L7,-5.4L7,-8.2L3,-8.2L3,-5.4z"/>
  <g transform="translate(0, 1)">
    <path fill="#ffffff" stroke="url(#1798)" transform="translate(0, 3)rotate(-43.99999999999999)scale(0.79, 0.79)translate(-2.8, -8.2)" d="M0.6,2.6865C0.6,0.9819,1.9819,-0.4,3.6865,-0.4C3.6865,-0.4,3.7071,-0.4,3.9135,-0.4C5.6181,-0.4,7,0.9819,7,2.6865C7,2.6866,7,4,7,4C7,4,8.5134,4,8.5135,4C10.2181,4,11.6,5.3819,11.6,7.0865C11.6,7.0865,11.6,7.4586,11.6,8.1C11.6,9.3703,10.5703,10.4,9.3,10.4C9.3,10.4,9.2943,10.4,9.2,10.4C7.985,10.4,7,11.385,7,12.6C7,13.815,6.015,14.8,4.8,14.8C4.8001,14.8,4.3868,14.8,3.6865,14.8C1.9819,14.8,0.6,13.4181,0.6,11.7135C0.6,11.7134,0.6,10.4,0.6,10.4C0.6,10.4,-0.9134,10.4,-0.9135,10.4C-2.6181,10.4,-4,9.0181,-4,7.3135C-4,7.3135,-4,7.2929,-4,7.0865C-4,5.3819,-2.6181,4,-0.9135,4C-0.9134,4,0.6,4,0.6,4C0.6,4,0.6,2.6866,0.6,2.6865z" data-px-corners="[0,0]=3.0865|[0,1]=3.0865|[0,3]=3.0865|[0,4]=3.0865|[0,5]=3.0865|[0,6]=3.0865|[0,7]=3.0865|[0,9]=3.0865|[0,10]=3.0865" data-px-src-d="M0.6,-0.4L7,-0.4L7,4L11.6,4L11.6,10.4L7,10.4L7,14.8L0.6,14.8L0.6,10.4L-4,10.4L-4,4L0.6,4L0.6,-0.4z"/>
    <path fill="#ff000091" stroke="url(#1855)" transform="translate(0, 3)rotate(-43.99999999999999)scale(0.85, 0.85)translate(-0.4, -2.3)" d="M-0.2,-0.3L-3.3171,-0.3C-4.1361,-0.3,-4.8,0.3639,-4.8,1.1829C-4.8,1.1829,-4.8,1.2248,-4.8,1.4171C-4.8,2.2361,-4.1361,2.9,-3.3171,2.9L-0.2,2.9L-0.2,5.8171C-0.2,6.6361,0.4639,7.3,1.2829,7.3C1.2829,7.3,1.3248,7.3,1.5171,7.3C2.3361,7.3,3,6.6361,3,5.8171L3,2.9L6.1171,2.9C6.5104,2.9,6.8876,2.7438,7.1657,2.4657C7.4438,2.1876,7.6,1.8104,7.6,1.4171C7.6,1.4171,7.6,1.3752,7.6,1.1829C7.6,0.3639,6.9361,-0.3,6.1171,-0.3L3,-0.3L3,-3.2171C3,-4.0361,2.3361,-4.7,1.5171,-4.7C1.5171,-4.7,1.4752,-4.7,1.2829,-4.7C0.4639,-4.7,-0.2,-4.0361,-0.2,-3.2171L-0.2,-0.3z" data-px-corners="[0,1]=1.4829|[0,2]=1.4829|[0,4]=1.4829|[0,5]=1.4829|[0,7]=1.4829|[0,8]=1.4829|[0,10]=1.4829|[0,11]=1.4829" data-px-src-d="M-0.2,-0.3L-4.8,-0.3L-4.8,2.9L-0.2,2.9L-0.2,7.3L3,7.3L3,2.9L7.6,2.9L7.6,-0.3L3,-0.3L3,-4.7L-0.2,-4.7L-0.2,-0.3z"/>
  </g>
</svg>