<?xml version="1.0" encoding="UTF-8" standalone="no"?>
<!-- Created with Pixodesk SVG (https://pixodesk.com) -->
<svg xmlns="http://www.w3.org/2000/svg" viewBox="0 0 20.00002552124872 20" text-rendering="geometricPrecision" shape-rendering="geometricPrecision" fill="#d76400" stroke-width="0">
  <defs>
    <linearGradient id="824" x1="2" y1="6.9162" x2="10" y2="0" gradientTransform="translate(17, -41)rotate(582)scale(1.78, 1.78)" gradientUnits="userSpaceOnUse">
      <stop offset="0%" stop-color="rgb(0,106,9)"/>
      <stop offset="59.599999999999994%" stop-color="rgb(0,205,15)"/>
    </linearGradient>
  </defs>
  <g fill="#552a0526" stroke="#00000026" stroke-width="2" stroke-miterlimit="0" transform="translate(-5.7322, -0.4047)rotate(1)scale(1.26, 1.26)">
    <g transform="translate(7.4512, 1.9261)rotate(-1.0000000000000036)scale(0.08, 0.08)">
      <path d="M44.94,20.02C37.17,11.97,26.27,6.84,17.12,15.68C14.13,18.56,11.99,22.48,11.05,26.68C9.93,31.66,10.77,36.21,12.84,39.96C14.68,43.3,17.49,46.03,20.8,47.91C24.12,49.8,27.9,50.82,31.65,50.71C35.77,50.59,39.89,49.07,43.35,45.8C48.24,41.17,52.51,34.25,56.68,27.5C61.24,20.12,65.68,12.93,71.13,8.07C75.02,4.6,79.18,2.36,83.4,1.13C89.46,-0.63,95.52,-0.24,101.03,1.68C106.45,3.56,111.31,6.9,115.05,11.1C118.23,14.66,120.65,18.9,121.97,23.43C123.89,30.03,122.73,37.94,119.23,44.86C116.75,49.75,113.07,54.24,108.45,57.48C103.7,60.81,97.98,62.82,91.58,62.63C84.26,62.41,76.18,59.33,67.85,52.03L74.78,44.11C81.09,49.64,86.86,51.96,91.87,52.11C95.85,52.23,99.43,50.96,102.43,48.86C105.56,46.67,108.09,43.56,109.83,40.12C112.19,35.46,113.03,30.37,111.87,26.37C111.01,23.41,109.37,20.58,107.18,18.12C104.58,15.2,101.26,12.9,97.62,11.63C94.07,10.4,90.18,10.13,86.34,11.25C83.61,12.04,80.84,13.56,78.15,15.96C73.78,19.86,69.76,26.36,65.64,33.04C61.1,40.39,56.45,47.92,50.61,53.44C45.13,58.63,38.54,61.04,31.94,61.24C26.23,61.41,20.54,59.9,15.6,57.08C10.64,54.26,6.4,50.12,3.6,45.04C0.36,39.17,-0.95,32.08,0.78,24.37C2.17,18.19,5.36,12.4,9.83,8.09C12.84,5.19,16.43,2.94,20.46,1.67C24.52,0.39,28.98,0.12,33.7,1.18C39.78,2.55,46.21,6.14,52.55,12.72L44.94,20.02L44.94,20.02z"/>
    </g>
  </g>
  <path fill="url(#824)" stroke="#000000" stroke-width="0.4" transform="translate(2.0482, 2.0707)" d="M15.9518,10.4293L4.9518,10.4293L4.9518,7.9293L-0.0482,11.9293L4.9518,15.9293L4.9518,13.4293L15.9518,13.4293L15.9518,10.4293z"/>
</svg>