<?xml version="1.0" encoding="UTF-8" standalone="no"?>
<!-- Created with Pixodesk SVG (https://pixodesk.com) -->
<svg xmlns="http://www.w3.org/2000/svg" viewBox="0 0 20 20" text-rendering="geometricPrecision" shape-rendering="geometricPrecision" fill="#000000">
  <g>
    <g style="pointer-events:none">
      <path fill="#f5f5f5" stroke="#003a73" stroke-width="0" transform="translate(17.8776, 15.6205)scale(0.85, 0.8755)" d="M0.2676,0.0412L-13.3906,-0.1036L-13.5381,-15.6517L-4.0143,-15.6248L0.3294,-11.1782L0.2676,0.0412z"/>
      <path transform="translate(4.7205, -1.399)scale(0.85, 0.8755)" d="M11.4755,3.3747L2.4217,3.2997C1.9647,3.2997,1.5942,3.6898,1.5942,4.1711L1.5942,19.089C1.5942,19.5703,1.9647,19.9604,2.4217,19.9604L15.2903,19.9792C15.7455,19.9766,16.1133,19.5872,16.1133,19.1078L16.1088,8.1366L11.4755,3.3747zM16.1056,8.1393C16.1048,7.9227,16.1056,8.1393,16.1056,8.1393zM11.8114,5.0224L14.5769,7.7507L11.8114,7.7507L11.8114,5.0224zM2.5207,18.9863L2.5207,4.2687L10.8896,4.2875L10.8896,8.2352C10.8896,8.5045,11.097,8.723,11.3528,8.723L15.1915,8.723C15.1915,12.1526,15.1915,15.5799,15.1915,19.0051L2.5207,18.9863zM4.2701,11.3106C4.3316,11.2351,4.4213,11.1911,4.5157,11.1902L9.9432,11.1902C10.0379,11.1906,10.128,11.2339,10.1903,11.3089C10.2539,11.3852,10.2884,11.4838,10.2875,11.5853C10.2876,11.687,10.2524,11.7854,10.1887,11.8617C10.1268,11.9365,10.0375,11.9804,9.9432,11.9821L4.5157,11.9821C4.4211,11.9816,4.331,11.9381,4.2685,11.8633C4.1377,11.7049,4.1377,11.469,4.2685,11.3106L4.2701,11.3106zM4.2701,16.016C4.331,15.9406,4.4201,15.8965,4.5141,15.8956L11.4564,15.8956C11.5508,15.8965,11.6404,15.9405,11.7019,16.016C11.7656,16.0923,11.8009,16.1907,11.8008,16.2924C11.8017,16.3939,11.7671,16.4924,11.7035,16.5687C11.6412,16.6437,11.5511,16.6871,11.4564,16.6875L4.5187,16.6875C4.4245,16.6868,4.3351,16.6434,4.2732,16.5687C4.1403,16.4111,4.1403,16.1736,4.2732,16.016L4.2701,16.016zM11.4564,13.5429C11.5508,13.5438,11.6404,13.5878,11.7019,13.6633C11.8327,13.8217,11.8327,14.0577,11.7019,14.2161C11.6394,14.2906,11.5494,14.3332,11.4549,14.3331L4.5187,14.3331C4.4247,14.3331,4.3352,14.2904,4.2732,14.2161C4.2088,14.1395,4.1737,14.0403,4.1744,13.938C4.1742,13.8365,4.21,13.7384,4.2748,13.6633C4.3357,13.5879,4.4247,13.5438,4.5187,13.5429L11.4564,13.5429zM4.2701,8.9562C4.3322,8.8819,4.4216,8.8385,4.5157,8.8374L7.7259,8.8374C7.8204,8.8373,7.9104,8.8801,7.9729,8.9546C8.1034,9.1138,8.1034,9.3497,7.9729,9.5089C7.9108,9.5832,7.8215,9.6266,7.7274,9.6277L4.5157,9.6277C4.4213,9.6277,4.3311,9.585,4.2685,9.5107C4.138,9.3515,4.138,9.1154,4.2685,8.9562L4.2701,8.9562zM4.2701,6.6035C4.3327,6.5279,4.4235,6.4845,4.5187,6.4847L6.2837,6.4847C6.3777,6.4847,6.4672,6.5276,6.5292,6.6019C6.6597,6.7611,6.6597,6.9971,6.5292,7.1563C6.4677,7.2306,6.3788,7.2739,6.2852,7.275L4.5187,7.275C4.4249,7.2741,4.3357,7.2316,4.2732,7.158C4.2091,7.0813,4.174,6.9821,4.1744,6.8799C4.1743,6.778,4.2102,6.6794,4.2748,6.6035L4.2701,6.6035z" style="pointer-events:none"/>
    </g>
    <g transform="translate(13.0206, 8.7996)scale(0.85, 0.8755)translate(-13.5536, -8.7711)" style="pointer-events:none">
      <path fill="#d2d2d2" stroke="#003a73" stroke-width="0" transform="translate(0.4762, 3.7267)" d="M0,0L0.0207,15.6729L13.6401,15.5844L13.6608,4.425L9.168,-0.0057L0,0z"/>
      <path transform="translate(3.7888, -2.8778)" d="M6.1741,6.2112L-2.9414,6.2027C-3.3985,6.2027,-3.769,6.5929,-3.769,7.0742L-3.769,21.992C-3.769,22.4733,-3.3985,22.8635,-2.9414,22.8635L9.9889,22.8157C10.4442,22.8131,10.812,22.4237,10.8119,21.9442L10.8075,10.9731L6.1741,6.2112zM10.8042,10.9758C10.8033,10.7592,10.8042,10.9758,10.8042,10.9758zM6.5101,7.8589L9.2756,10.5872L6.5101,10.5872L6.5101,7.8589zM-2.8426,21.8896L-2.8426,7.1718L5.5882,7.124L5.5882,11.0717C5.5882,11.3411,5.7956,11.5595,6.0515,11.5595L9.8901,11.5595C9.8901,14.9891,9.8901,18.4165,9.8901,21.8418L-2.8426,21.8896zM0.7907,14.1658C0.8522,14.0903,0.9417,14.0464,1.0362,14.0455L6.4637,14.0455C6.5584,14.046,6.6484,14.0892,6.7108,14.1642C6.7744,14.2406,6.809,14.339,6.8081,14.4406C6.8082,14.5424,6.773,14.6406,6.7092,14.717C6.6473,14.7919,6.558,14.8356,6.4637,14.8373L1.0362,14.8373C0.9415,14.8367,0.8516,14.7935,0.7891,14.7187C0.6582,14.5602,0.6582,14.3243,0.7891,14.1658L0.7907,14.1658zM0.7907,18.8713C0.8516,18.7958,0.9406,18.7519,1.0346,18.7509L7.977,18.7509C8.0715,18.7518,8.161,18.7957,8.2225,18.8713C8.2863,18.9477,8.3214,19.0459,8.3213,19.1477C8.3223,19.2493,8.2876,19.3477,8.224,19.4241C8.1616,19.4991,8.0717,19.5423,7.977,19.5428L1.0393,19.5428C0.9451,19.542,0.8557,19.4988,0.7938,19.4241C0.6608,19.2664,0.6608,19.0289,0.7938,18.8713L0.7907,18.8713zM7.977,16.3982C8.0715,16.3991,8.161,16.443,8.2225,16.5185C8.3534,16.677,8.3534,16.9129,8.2225,17.0714C8.1599,17.1459,8.0699,17.1886,7.9754,17.1884L1.0393,17.1884C0.9453,17.1883,0.8558,17.1457,0.7938,17.0714C0.7294,16.9947,0.6942,16.8957,0.6949,16.7933C0.6946,16.6917,0.7304,16.5937,0.7953,16.5185C0.8562,16.4431,0.9452,16.3992,1.0393,16.3982L7.977,16.3982zM0.7907,11.8115C0.8528,11.7371,0.9421,11.6939,1.0362,11.6928L4.2464,11.6928C4.3409,11.6927,4.4309,11.7353,4.4935,11.8099C4.624,11.9692,4.624,12.2051,4.4935,12.3643C4.4313,12.4387,4.3421,12.4819,4.2479,12.483L1.0362,12.483C0.9417,12.483,0.8518,12.4404,0.7891,12.366C0.6586,12.2067,0.6586,11.9708,0.7891,11.8115L0.7907,11.8115zM0.7907,9.4588C0.8533,9.3832,0.944,9.3399,1.0393,9.3401L2.8042,9.3401C2.8982,9.3402,2.9876,9.3829,3.0497,9.4572C3.1802,9.6165,3.1802,9.8524,3.0497,10.0116C2.9881,10.086,2.8994,10.1291,2.8057,10.1303L1.0393,10.1303C0.9454,10.1294,0.8563,10.0869,0.7938,10.0132C0.7296,9.9364,0.6945,9.8375,0.6949,9.7352C0.6948,9.6332,0.7306,9.5347,0.7953,9.4588L0.7907,9.4588z" style="pointer-events:none"/>
    </g>
  </g>
</svg>