<?xml version="1.0" encoding="UTF-8" standalone="no"?>
<!-- Created with Pixodesk SVG (https://pixodesk.com) -->
<svg xmlns="http://www.w3.org/2000/svg" viewBox="0 0 20 20" text-rendering="geometricPrecision" shape-rendering="geometricPrecision" fill="#000000">
  <path class="st0" fill-rule="evenodd" transform="translate(18.6977, 2.6256)rotate(90)scale(0.14, 0.14)" d="M85.94,27.52C91.11,16.47,91.02,7.34,86.04,0L55.09,53.71L62.78,67.35L85.94,27.52L85.94,27.52zM19.84,27.52C14.67,16.47,14.76,7.34,19.74,0L57.19,64.99C58.93,67.24,60.01,69.63,60.15,72.21C60.28,74.62,59.59,75.5,59.2,77.6C58.88,79.36,59.06,81.15,60.23,83L61.79,84.71C63.19,86.24,64.39,88.08,66.76,87.78C68.34,87.58,69.67,86.24,70.82,84.09C72.3,82.46,74.03,81.19,76.01,80.31C77.93,79.46,80.08,78.97,82.49,78.86C90.04,79.25,96.57,82.77,101.47,91.27C107.41,100.95,106.73,109.13,102.32,116.45C98.92,120.91,94.82,122.87,90.15,122.88C83.03,122.89,77.25,119.47,72.77,114.15C69.93,110.78,67.57,106.73,65.09,102.22L56.06,90.68L55,87.98L19.84,27.52L19.84,27.52zM53.11,67.8C55.09,67.8,56.69,69.4,56.69,71.38C56.69,73.36,55.09,74.96,53.11,74.96C51.14,74.96,49.53,73.36,49.53,71.38C49.53,69.4,51.13,67.8,53.11,67.8L53.11,67.8zM75.36,90.03C77.91,86.13,82.21,85.72,86.31,87.16C89.6,88.32,92.44,90.78,94.84,94.48C96.86,97.6,98.43,102.63,98.03,106.99C97.25,115.44,89.73,117.04,83.17,113.35C80.25,111.71,77.93,109.28,76.25,105.98C75.12,103.75,74.16,101.11,73.8,98.44C73.4,95.49,73.73,92.51,75.36,90.03L75.36,90.03zM46.56,80.59C46.39,81.38,46.06,82.18,45.55,82.99L43.99,84.7C42.59,86.23,41.39,88.07,39.02,87.77C37.44,87.57,36.11,86.23,34.96,84.08C33.48,82.45,31.75,81.18,29.77,80.3C27.85,79.45,25.7,78.96,23.29,78.85C15.74,79.24,9.21,82.76,4.31,91.26C-1.63,100.94,-0.95,109.12,3.46,116.44C6.86,120.9,10.96,122.86,15.63,122.87C22.75,122.88,28.53,119.46,33.01,114.14C35.85,110.77,38.21,106.72,40.69,102.21L51.32,88.63L50.97,88.03L50.86,87.85L46.56,80.59L46.56,80.59zM30.43,90.03C27.88,86.13,23.58,85.72,19.48,87.16C16.19,88.32,13.35,90.78,10.95,94.48C8.93,97.6,7.36,102.63,7.77,107C8.55,115.45,16.07,117.05,22.63,113.36C25.55,111.72,27.87,109.29,29.55,105.99C30.68,103.76,31.64,101.12,32,98.45C32.39,95.49,32.05,92.51,30.43,90.03L30.43,90.03z"/>
</svg>