<?xml version="1.0" encoding="UTF-8" standalone="no"?>
<!-- Created with Pixodesk SVG (https://pixodesk.com) -->
<svg xmlns="http://www.w3.org/2000/svg" viewBox="-10 -10 20 20" text-rendering="geometricPrecision" shape-rendering="geometricPrecision" stroke-width="0">
  <defs>
    <filter data-px-label="Inner Shadow" x="-0.5" y="-0.5" width="1.99" height="1.99">
      <feOffset dx="-4" dy="14"/>
      <feGaussianBlur stdDeviation="6"/>
      <feComposite in="SourceGraphic" operator="out"/>
      <feComponentTransfer result="choke">
        <feFuncA/>
      </feComponentTransfer>
      <feFlood result="color" flood-color="#8f8f8f"/>
      <feComposite result="shadow" in="color" in2="choke" operator="in"/>
      <feComposite in="shadow" in2="SourceGraphic" operator="over"/>
    </filter>
  </defs>
  <g transform="translate(-7.9831, -7.9684)scale(0.13, 0.13)" style="pointer-events:none">
    <path class="st0" fill="#0082e4" d="M61.44,0C95.37,0,122.88,27.51,122.88,61.44C122.88,95.37,95.37,122.88,61.44,122.88C27.51,122.88,0,95.37,0,61.44C0,27.51,27.51,0,61.44,0L61.44,0L61.44,0z"/>
    <path class="st1" fill="#00e385" d="M11.76,93.18C8.14,87.69,5.43,81.54,3.84,74.95L14.66,80.17L14.72,83.4C14.72,84.59,12.7,87.11,12.05,88.07L11.76,93.18L11.76,93.18L11.76,93.18zM78.31,6.5C98.93,13.35,114.4,31.5,117.38,53.6L115.43,53.39C115.08,54.89,114.76,54.92,114.76,56.72C114.76,58.31,116.76,59.37,116.76,62.72C116.76,63.62,114.65,65.41,114.56,65.73L111.43,62.06L111.43,66.73L110.96,66.71L110.12,58.09L108.37,58.64L106.29,52.23L99.44,59.39L99.36,64.63L97.12,66.13L94.74,52.69L93.32,53.73L90.1,49.38L85.29,49.52L83.45,47.41L81.56,47.93L77.85,43.68L77.13,44.17L79.43,50.05L82.1,50.05L82.1,48.72L83.43,48.72C84.39,51.38,85.43,49.8,85.43,51.39C85.43,56.94,78.58,61.02,74.09,62.06C74.33,63.06,74.24,64.06,75.42,64.06C77.93,64.06,76.68,63.62,79.42,63.39C79.29,69.06,72.92,75.83,70.2,80.04L71.42,88.73C71.74,90.62,67.5,92.61,66.06,94.74L66.75,98.07L64.8,98.86C64.46,102.28,61.14,106.07,57.41,106.07L53.41,106.07C53.41,101.39,50.07,94.7,50.07,91.39C50.07,88.58,51.4,88.2,51.4,84.72C51.4,81.5,48.07,76.89,48.07,76.05L48.07,70.71L45.4,70.71C45,69.22,45.25,68.71,43.4,68.71L42.73,68.71C39.82,68.71,40.31,70.04,37.39,70.04L34.72,70.04C32.31,70.04,28.05,62.32,28.05,61.37L28.05,53.37C28.05,49.92,31.21,46.16,33.39,44.7L33.39,41.37L36.39,38.32L38.06,38.04C41.64,38.04,41.21,36.04,43.4,36.04L49.4,36.04L49.4,40.71L56,43.53L56.62,40.68C59.61,41.38,60.39,42.71,64.07,42.71L65.4,42.71C67.93,42.71,68.07,39.35,68.07,36.71L62.73,37.24L60.4,32.18L58.09,32.79C58.51,34.6,58.73,33.85,58.73,35.38C58.73,36.28,57.99,36.38,57.39,36.71L55.08,30.85L50.11,27.3L49.45,27.95L53.68,32.4C53.12,34,53.05,38.61,50.72,35.38L52.9,34.33L47.46,28.63L44.2,29.9L40.98,32.98C40.64,35.46,39.97,36.71,37.37,36.71C35.64,36.71,36.68,36.26,34.03,36.04L34.03,29.37L40.03,29.37L38.08,24.93L37.36,25.37L37.36,24.03L47.11,19.54C46.93,18.14,46.7,18.89,46.7,17.36C46.7,17.27,47.35,16.04,47.37,16.02L49.89,17.59L49.29,14.72L45.4,15.52L44.68,12.03C47.76,10.41,54.55,4.69,56.71,4.69L58.71,4.69C60.82,4.69,66.46,6.77,67.38,8.02L62.03,7.48L66,10.75L66.38,9.35L69.34,8.54L69.38,6.69L70.72,6.69L70.72,8.69L78.31,6.5L78.31,6.5L78.31,6.5z"/>
  </g>
</svg>