<?xml version="1.0" encoding="UTF-8" standalone="no"?>
<!-- Created with Pixodesk SVG (https://pixodesk.com) -->
<svg xmlns="http://www.w3.org/2000/svg" viewBox="-10 -10 20 20" text-rendering="geometricPrecision" shape-rendering="geometricPrecision" stroke-width="0">
  <defs>
    <filter id="_px_svg_1ki3rehs" data-px-label="Inner Shadow" x="-0.5" y="-0.5" width="1.99" height="1.99">
      <feOffset dx="-4" dy="14"/>
      <feGaussianBlur stdDeviation="6"/>
      <feComposite in="SourceGraphic" operator="out"/>
      <feComponentTransfer result="choke">
        <feFuncA/>
      </feComponentTransfer>
      <feFlood result="color" flood-color="#8f8f8f"/>
      <feComposite result="shadow" in="color" in2="choke" operator="in"/>
      <feComposite in="shadow" in2="SourceGraphic" operator="over"/>
    </filter>
  </defs>
  <g transform="translate(-7.9831, -7.9684)scale(0.13, 0.13)" style="pointer-events:none">
    <path class="st0" fill="#828282" d="M61.44,0C95.37,0,122.88,27.5101,122.88,61.44C122.88,95.37,95.3699,122.88,61.44,122.88C27.5101,122.88,0,95.37,0,61.44C0,27.5101,27.5101,0,61.44,0L61.44,0L61.44,0z"/>
    <path class="st1" fill="#bbbbbb" filter="url(#_px_svg_1ki3rehs)" d="M11.76,93.18C8.1401,87.6902,5.4299,81.54,3.84,74.95L14.66,80.17L14.72,83.4C14.72,84.5899,12.7,87.1099,12.05,88.0699L11.76,93.18L11.76,93.18L11.76,93.18zM78.31,6.5C98.93,13.35,114.4001,31.5,117.38,53.6L115.43,53.39C115.0801,54.89,114.76,54.9201,114.76,56.72C114.76,58.31,116.76,59.37,116.76,62.72C116.76,63.6199,114.6499,65.41,114.5599,65.73L111.43,62.06L111.43,66.73L110.96,66.7099L110.12,58.09L108.37,58.64L106.29,52.2299L99.44,59.39L99.36,64.63L97.12,66.13L94.74,52.69L93.3199,53.73L90.1,49.3799L85.29,49.5199L83.45,47.4099L81.56,47.93L77.85,43.68L77.13,44.17L79.43,50.05L82.1,50.05L82.1,48.72L83.43,48.72C84.3899,51.38,85.43,49.8,85.43,51.39C85.43,56.9399,78.58,61.0201,74.09,62.06C74.3299,63.06,74.2401,64.06,75.42,64.06C77.9299,64.06,76.6801,63.62,79.42,63.39C79.2902,69.06,72.9199,75.83,70.2,80.0399L71.42,88.7299C71.7399,90.6199,67.4999,92.61,66.06,94.74L66.75,98.0699L64.8,98.86C64.46,102.28,61.14,106.07,57.41,106.07L53.41,106.07C53.41,101.39,50.0698,94.6999,50.0698,91.3899C50.0698,88.5799,51.3999,88.1999,51.3999,84.7199C51.3999,81.5,48.0698,76.8898,48.0698,76.0498L48.0698,70.7099L45.4,70.7099C45.0001,69.22,45.25,68.7099,43.4,68.7099L42.7299,68.7099C39.8199,68.7099,40.3099,70.0399,37.39,70.0399L34.72,70.0399C32.3101,70.0399,28.05,62.3199,28.05,61.3699L28.05,53.3699C28.05,49.9199,31.21,46.1599,33.39,44.6999L33.39,41.3699L36.39,38.3198L38.06,38.0399C41.6399,38.0399,41.21,36.0399,43.4,36.0399L49.4,36.0399L49.4,40.7099L56,43.5299L56.62,40.6799C59.61,41.3799,60.3899,42.7099,64.0699,42.7099L65.4,42.7099C67.9299,42.7099,68.0699,39.3499,68.0699,36.7099L62.73,37.2399L60.4,32.1799L58.09,32.7899C58.51,34.5999,58.73,33.8499,58.73,35.3799C58.73,36.2798,57.99,36.38,57.39,36.7099L55.08,30.8499L50.11,27.2999L49.45,27.9499L53.68,32.3999C53.12,33.9999,53.0499,38.6099,50.72,35.3799L52.9,34.3299L47.46,28.6299L44.2,29.8999L40.9799,32.9799C40.6399,35.4598,39.97,36.7099,37.37,36.7099C35.6401,36.7099,36.6799,36.2598,34.03,36.0399L34.03,29.3699L40.03,29.3699L38.08,24.9299L37.36,25.3699L37.36,24.0299L47.11,19.5399C46.9301,18.14,46.7,18.8899,46.7,17.3599C46.7,17.2701,47.35,16.0398,47.37,16.0199L49.89,17.5899L49.29,14.7199L45.4,15.5199L44.68,12.0299C47.7599,10.4102,54.55,4.6899,56.71,4.6899L58.71,4.6899C60.8199,4.6899,66.46,6.7699,67.38,8.0199L62.03,7.4799L66,10.7499L66.38,9.3499L69.34,8.5399L69.38,6.6899L70.72,6.6899L70.72,8.6899L78.31,6.5L78.31,6.5L78.31,6.5z"/>
  </g>
</svg>