<?xml version="1.0" encoding="UTF-8" standalone="no"?>
<!-- Created with Pixodesk SVG (https://pixodesk.com) -->
<svg xmlns="http://www.w3.org/2000/svg" viewBox="0 0 20.00002552124872 20" text-rendering="geometricPrecision" shape-rendering="geometricPrecision" fill="#cecece" stroke-width="0">
  <path data-px-label="Grid Off" fill="#00000033" transform="translate(10.0062, 10.0166)scale(0.0313, 0.0329)translate(-256, -243.34)" d="M84.2139,0L167.7459,0C162.1319,0,157.5389,4.593,157.5389,10.208L157.5389,83.4753C157.5389,89.0903,162.1319,93.6833,167.7459,93.6833L340.0153,93.6833C345.6303,93.6833,350.2233,89.0903,350.2233,83.4753L350.2233,10.208C350.2233,4.593,345.6303,0,340.0153,0L423.5483,0C417.9333,0,413.3403,4.593,413.3403,10.208L413.3403,83.4753C413.3403,89.0903,417.9333,93.6833,423.5483,93.6833L501.792,93.6833C506.4314,93.6833,510.3732,90.5476,511.6028,86.2907L511.6028,163.5533C510.3732,159.297,506.4314,156.1613,501.792,156.1613L423.5483,156.1613C417.9333,156.1613,413.3403,160.7543,413.3403,166.3683L413.3403,322.6188C413.3403,328.2328,417.9333,332.8268,423.5483,332.8268L501.792,332.8268C506.4314,332.8268,510.3732,329.6905,511.6028,325.4339L511.6028,406.4224C510.0756,400.0646,504.3254,395.3038,497.516,395.3038L427.8243,395.3038C419.8573,395.3038,413.3403,401.8208,413.3403,409.7878L413.3403,472.196C413.3403,478.2988,417.1643,483.5508,422.5348,485.6745L341.0289,485.6745C346.3994,483.5508,350.2233,478.2988,350.2233,472.196L350.2233,409.7878C350.2233,401.8208,343.7063,395.3038,335.7393,395.3038L172.0219,395.3038C164.0549,395.3038,157.5389,401.8208,157.5389,409.7878L157.5389,472.196C157.5389,478.2988,161.3623,483.5508,166.7325,485.6745L85.2273,485.6745C90.5975,483.5508,94.4209,478.2988,94.4209,472.196L94.4209,409.7878C94.4209,401.8208,87.9049,395.3038,79.9379,395.3038L14.484,395.3038C6.517,395.3038,0,401.8208,0,409.7878L0,322.6188C0,328.2328,4.593,332.8268,10.208,332.8268L84.2139,332.8268C89.8289,332.8268,94.4209,328.2328,94.4209,322.6188L94.4209,166.3683C94.4209,160.7543,89.8289,156.1613,84.2139,156.1613L10.208,156.1613C4.593,156.1613,0,160.7543,0,166.3683L0,83.4753C0,89.0903,4.593,93.6833,10.208,93.6833L84.2139,93.6833C89.8289,93.6833,94.4209,89.0903,94.4209,83.4753L94.4209,10.208C94.4209,4.593,89.8289,0,84.2139,0zM167.7459,156.1613C162.1319,156.1613,157.5389,160.7543,157.5389,166.3683L157.5389,322.6188C157.5389,328.2328,162.1319,332.8268,167.7459,332.8268L340.0153,332.8268C345.6303,332.8268,350.2233,328.2328,350.2233,322.6188L350.2233,166.3683C350.2233,160.7543,345.6303,156.1613,340.0153,156.1613L167.7459,156.1613z"/>
</svg>