<?xml version="1.0" encoding="UTF-8" standalone="no"?>
<!-- Created with Pixodesk SVG (https://pixodesk.com) -->
<svg xmlns="http://www.w3.org/2000/svg" viewBox="0 0 20.000048692027097 20" text-rendering="geometricPrecision" shape-rendering="geometricPrecision">
  <g>
    <path class="st0" fill-rule="evenodd" transform="translate(1.4, 3)scale(0.14, 0.14)" d="M8.94,0L113.94,0C118.86,0,122.88,4.02,122.88,8.94L122.88,8.94C122.88,13.86,118.86,17.88,113.94,17.88L8.94,17.88C4.02,17.88,0,13.86,0,8.94L0,8.94C0,4.02,4.02,0,8.94,0L8.94,0zM8.94,78.07L113.94,78.07C118.86,78.07,122.88,82.09,122.88,87.01L122.88,87.01C122.88,91.93,118.86,95.95,113.94,95.95L8.94,95.95C4.02,95.95,0,91.93,0,87.01L0,87.01C0,82.09,4.02,78.07,8.94,78.07L8.94,78.07zM8.94,39.03L113.94,39.03C118.86,39.03,122.88,43.05,122.88,47.97L122.88,47.97C122.88,52.89,118.86,56.91,113.94,56.91L8.94,56.91C4.02,56.91,0,52.89,0,47.97L0,47.97C0,43.06,4.02,39.03,8.94,39.03L8.94,39.03z"/>
  </g>
</svg>