<?xml version="1.0" encoding="UTF-8" standalone="no"?>
<!-- Created with Pixodesk SVG (https://pixodesk.com) -->
<svg xmlns="http://www.w3.org/2000/svg" viewBox="0 0 20.00002552124872 20" text-rendering="geometricPrecision" shape-rendering="geometricPrecision" fill="#d76400" stroke-width="0">
  <path fill="#dc0000" stroke="#000000" stroke-width="0.25" transform="translate(10, 10)translate(-10, -10)" d="M10,1.5C14.6944,1.5,18.5,5.3056,18.5,10C18.5,14.6944,14.6944,18.5,10,18.5C5.3056,18.5,1.5,14.6944,1.5,10C1.5,5.3056,5.3056,1.5,10,1.5zM10,5.5C7.5147,5.5,5.5,7.5147,5.5,10C5.5,12.4853,7.5147,14.5,10,14.5C12.4853,14.5,14.5,12.4853,14.5,10C14.5,7.5147,12.4853,5.5,10,5.5z"/>
  <path fill="#000000" stroke="#000000" transform="translate(9, 11)" d="M0,0L2,0L4,0L4,-2L2,-2L0,-2L-2,-2L-2,0L0,0z"/>
</svg>