<?xml version="1.0" encoding="UTF-8" standalone="no"?>
<!-- Created with Pixodesk SVG (https://pixodesk.com) -->
<svg xmlns="http://www.w3.org/2000/svg" viewBox="0 0 20 20" text-rendering="geometricPrecision" shape-rendering="geometricPrecision" fill-rule="evenodd">
  <g>
    <path fill="#f5f5f5" stroke="#003a73" stroke-width="0" transform="translate(12.1025, 17.7046)" d="M-0.0678,0L5.8799,-0.0207L5.7961,-11.1801L1.4191,-15.7557L-5.9946,-15.7971L-6.0155,-12.7536L-0.1097,-12.6708L-0.0678,0z"/>
    <path transform="translate(-1.5, 1.1)" d="M15.1316,0.493L7.693,0.4407C7.2228,0.4407,6.8416,0.8037,6.8416,1.2514L6.8416,15.1286C6.8416,15.5764,7.2228,15.9393,7.693,15.9393L19.0557,15.9393C19.5239,15.9368,19.9022,15.5746,19.9022,15.1286L19.8976,4.9227L15.1316,0.493zM19.8942,4.9253C19.8934,4.7237,19.8942,4.9253,19.8942,4.9253zM15.4772,2.0258L18.3218,4.5638L15.4772,4.5638L15.4772,2.0258zM7.7946,15.0334L7.7946,1.3421L14.5289,1.3421L14.5289,5.0145C14.5289,5.2651,14.7423,5.4683,15.0055,5.4683L18.9539,5.4683C18.9539,8.6587,18.9539,11.847,18.9539,15.0334L7.7946,15.0334zM9.5942,7.8928C9.6574,7.8226,9.7495,7.7817,9.8467,7.7809L15.4296,7.7809C15.527,7.7813,15.6195,7.8215,15.6837,7.8913C15.7491,7.9624,15.7848,8.0539,15.7837,8.1484C15.7838,8.243,15.7477,8.3345,15.6821,8.4056C15.6183,8.4752,15.5266,8.5159,15.4296,8.5175L9.8467,8.5175C9.7493,8.5168,9.6569,8.4767,9.5925,8.407C9.4579,8.2596,9.4579,8.0402,9.5925,7.8928L9.5942,7.8928zM9.5942,12.27C9.6568,12.1998,9.7484,12.159,9.8452,12.1581L16.9861,12.1581C17.0833,12.1589,17.1754,12.1997,17.2386,12.27C17.3042,12.3411,17.3403,12.4325,17.3402,12.5271C17.3413,12.6216,17.3056,12.7132,17.2402,12.7842C17.176,12.854,17.0835,12.8943,16.9861,12.8946L9.8499,12.8946C9.753,12.894,9.661,12.8538,9.5974,12.7842C9.4606,12.6376,9.4606,12.4167,9.5974,12.27L9.5942,12.27zM16.9861,9.9695C17.0833,9.9703,17.1754,10.0112,17.2386,10.0814C17.3733,10.2288,17.3733,10.4482,17.2386,10.5956C17.1742,10.665,17.0816,10.7048,16.9844,10.7046L9.8499,10.7046C9.7532,10.7045,9.6612,10.6648,9.5974,10.5956C9.5311,10.5244,9.4949,10.4322,9.4957,10.337C9.4953,10.2425,9.5322,10.1513,9.5989,10.0814C9.6616,10.0112,9.7531,9.9703,9.8499,9.9695L16.9861,9.9695zM9.5942,5.7027C9.6582,5.6335,9.7499,5.5933,9.8467,5.5923L13.1488,5.5923C13.246,5.5921,13.3385,5.6318,13.4029,5.7011C13.5372,5.8493,13.5372,6.0688,13.4029,6.217C13.3389,6.2862,13.2472,6.3264,13.1504,6.3274L9.8467,6.3274C9.7495,6.3273,9.657,6.2877,9.5925,6.2185C9.4583,6.0703,9.4583,5.8508,9.5925,5.7027L9.5942,5.7027zM9.5942,3.5141C9.6586,3.4438,9.7519,3.4035,9.8499,3.4037L11.6653,3.4037C11.762,3.4038,11.8539,3.4434,11.9178,3.5126C12.052,3.6607,12.052,3.8802,11.9178,4.0284C11.8546,4.0975,11.7632,4.1377,11.6669,4.1388L9.8499,4.1388C9.7534,4.138,9.6617,4.0984,9.5974,4.0299C9.5313,3.9584,9.4952,3.8664,9.4957,3.7713C9.4955,3.6763,9.5324,3.5847,9.5989,3.5141L9.5942,3.5141z" style="pointer-events:none"/>
  </g>
  <g>
    <path fill="#efd991" stroke="#003a73" stroke-width="0" transform="translate(1.9658, 18.2273)scale(0.9, 0.9)" d="M-0.0096,0L11.7334,0L11.7334,-14.0122L-0.1035,-14.0874L-0.0096,0z"/>
    <path class="cls-1" fill-rule="evenodd" transform="translate(1.5, 0.6)scale(0.9, 0.9)" d="M3.3709,6.3158C3.0945,6.3099,2.8724,6.0774,2.8689,5.7902L2.8689,5.6129L0.7446,5.6129C0.7025,5.6149,0.6689,5.6504,0.6677,5.6941L0.6677,19.1992C0.6684,19.243,0.7024,19.2783,0.7446,19.279L12.0584,19.279C12.1007,19.2783,12.1347,19.243,12.1353,19.1992L12.1353,5.6941C12.1334,5.6508,12.1001,5.6163,12.0584,5.6142L9.9798,5.6142L9.9798,5.7916C9.9756,6.0798,9.7513,6.3122,9.4738,6.3158L3.3709,6.3158zM0.7499,19.9793C0.336,19.9786,0.0007,19.6303,0,19.2005L0,5.6941C0.0007,5.2643,0.336,4.9161,0.7499,4.9153L2.8689,4.9153L2.8689,4.7501C2.8703,4.4592,3.0973,4.2239,3.3775,4.2232L4.2798,4.2232L4.2798,3.9185C4.284,3.5992,4.5318,3.3412,4.8393,3.3361L7.9689,3.3361C8.2766,3.3412,8.5248,3.5989,8.5297,3.9185L8.5297,4.2246L9.4673,4.2246C9.7468,4.2261,9.9732,4.461,9.9746,4.7515L9.9746,4.9167L12.0532,4.9167C12.467,4.9174,12.8023,5.2657,12.8031,5.6955L12.8031,19.2005C12.8023,19.6303,12.467,19.9786,12.0532,19.9793L0.7499,19.9793zM10.1962,16.7517C10.3835,16.7517,10.5353,16.594,10.5353,16.3996C10.5353,16.2051,10.3835,16.0473,10.1962,16.0473L2.4702,16.0704C2.2829,16.0704,2.1311,16.2281,2.1311,16.4226C2.1311,16.617,2.2829,16.7747,2.4702,16.7747L10.1962,16.7517zM10.1962,9.9796C10.3835,9.9796,10.5353,9.8218,10.5353,9.6274C10.5353,9.4329,10.3835,9.2752,10.1962,9.2752L2.4702,9.2983C2.2829,9.2983,2.1311,9.4559,2.1311,9.6504C2.1311,9.8448,2.2829,10.0026,2.4702,10.0026L10.1962,9.9796zM10.1962,13.3169C10.3835,13.3169,10.5353,13.1592,10.5353,12.9647C10.5353,12.7702,10.3835,12.6125,10.1962,12.6125L2.4702,12.6356C2.2829,12.6356,2.1311,12.7932,2.1311,12.9877C2.1311,13.1822,2.2829,13.3399,2.4702,13.3399L10.1962,13.3169z"/>
  </g>
</svg>