<?xml version="1.0" encoding="UTF-8" standalone="no"?>
<!-- Created with Pixodesk SVG (https://pixodesk.com) -->
<svg xmlns="http://www.w3.org/2000/svg" viewBox="0 0 20 20" text-rendering="geometricPrecision" shape-rendering="geometricPrecision" fill="#000000">
  <g fill="#000000" transform="translate(1.5321, 1.4286)scale(0.14, 0.14)">
    <g>
      <path d="M54.03,108.91C52.48,110.54,51.72,112.65,51.75,114.76C51.78,116.87,52.59,118.96,54.19,120.55L54.31,120.67C55.89,122.17,57.91,122.9,59.92,122.87C61.93,122.84,63.93,122.05,65.47,120.5C83.13,102.84,100.6,84.89,118.15,67.1C118.22,67.05,118.28,67,118.34,66.94C119.89,65.31,120.65,63.18,120.62,61.07C120.59,58.96,119.77,56.86,118.17,55.27L117.9,55.01C100.43,37.47,82.98,19.87,65.46,2.36C63.93,0.82,61.93,0.03,59.92,0C57.91,-0.03,55.89,0.7,54.31,2.21L54.16,2.36C52.59,3.94,51.78,6.02,51.75,8.12C51.72,10.22,52.48,12.34,54.03,13.97L101.25,61.24L54.03,108.91L54.03,108.91zM2.26,106.91C0.72,108.53,-0.03,110.64,0,112.74C0.03,114.85,0.84,116.94,2.44,118.53L2.56,118.65C4.13,120.15,6.16,120.88,8.17,120.86C10.18,120.83,12.19,120.04,13.72,118.49C31.01,101.2,48.87,84.2,66.39,67.12C66.46,67.07,66.53,67.01,66.6,66.95C68.15,65.32,68.91,63.19,68.88,61.08C68.85,58.97,68.03,56.87,66.43,55.28C48.94,38.33,31.36,21.44,13.83,4.51L13.71,4.38C12.18,2.84,10.18,2.06,8.17,2.03C6.16,2,4.14,2.73,2.56,4.23L2.41,4.38C0.84,5.96,0.03,8.05,0,10.14C-0.03,12.24,0.73,14.36,2.28,15.99L49.46,61.23L2.26,106.91L2.26,106.91z"/>
    </g>
  </g>
</svg>