<?xml version="1.0" encoding="UTF-8" standalone="no"?>
<!-- Created with Pixodesk SVG (https://pixodesk.com) -->
<svg xmlns="http://www.w3.org/2000/svg" viewBox="-10 -10 20 20" text-rendering="geometricPrecision" shape-rendering="geometricPrecision">
  <path fill="#0082c84c" transform="translate(-10, -9.4315)scale(0.0375, 0.0375)" d="M83.416,261.753C83.416,211.473,107.463,167.062,144.396,138.643L209.978,204.225L209.978,20.135L25.888,20.135L91.24,85.487C40.845,127.598,8.63,190.763,8.63,261.753C8.63,388.89,111.605,491.865,238.742,491.865L238.742,417.078C152.91,417.079,83.416,347.585,83.416,261.753z"/>
  <path fill="#5affff4c" transform="translate(-10, -9.4315)scale(0.0375, 0.0375)" d="M43.146,261.753C43.146,190.763,75.362,127.597,125.756,85.487L60.404,20.135L25.888,20.135L91.24,85.487C40.845,127.598,8.63,190.763,8.63,261.753C8.63,388.89,111.605,491.865,238.742,491.865L238.742,488.877C128.045,472.207,43.146,377.117,43.146,261.753z"/>
  <path fill="#2de4ff4c" transform="translate(-10, -9.4315)scale(0.0375, 0.0375)" d="M428.584,250.247C428.584,300.527,404.537,344.938,367.604,373.357L302.022,307.775L302.022,491.865L486.112,491.865L420.76,426.513C471.155,384.402,503.37,321.237,503.37,250.247C503.37,123.11,400.395,20.135,273.258,20.135L273.258,94.922C359.09,94.921,428.584,164.415,428.584,250.247z"/>
  <path fill="#0864c84c" transform="translate(-10, -9.4315)scale(0.0375, 0.0375)" d="M468.854,250.247C468.854,321.237,436.638,384.403,386.244,426.513L451.596,491.865L486.113,491.865L420.761,426.513C471.156,384.402,503.371,321.237,503.371,250.247C503.371,123.11,400.396,20.135,273.259,20.135L273.259,23.123C383.955,39.793,468.854,134.883,468.854,250.247z"/>
  <g transform="scale(0.63, 0.63)" style="display:none">
    <path transform="translate(-10.5317, -10.7421)scale(0.02, 0.02)" d="M773.3,437.3L773.3,325.3C773.3,325.3,773.3,64,512,64C250.7,64,250.7,325.3,250.7,325.3L250.7,437.3L138.7,437.3L138.7,960L885.3,960L885.3,437.3L773.3,437.3zM549.3,725.7L549.3,848L474.6,848L474.6,725.7C452.4,712.8,437.3,688.9,437.3,661.4C437.3,620.1,470.8,586.7,512,586.7C553.2,586.7,586.7,620.1,586.7,661.4C586.7,688.9,571.5,712.7,549.3,725.7M698.7,437.3L325.3,437.3L325.3,325.8C325.7,294.5,336.7,138.7,512,138.7C687.3,138.7,698.2,294.6,698.7,325.4L698.7,437.3z"/>
  </g>
</svg>