<?xml version="1.0" encoding="UTF-8" standalone="no"?>
<!-- Created with Pixodesk SVG (https://pixodesk.com) -->
<svg xmlns="http://www.w3.org/2000/svg" viewBox="-10 -10 20 20" text-rendering="geometricPrecision" shape-rendering="geometricPrecision">
  <g transform="translate(-0.4, 0.1685)translate(0.4, -0.1685)">
    <path fill="#0078ff" d="M-6.8719,0.3842C-6.8719,-1.5013,-5.9701,-3.1667,-4.5852,-4.2324L-2.1258,-1.7731L-2.1258,-8.6764L-9.0292,-8.6764L-6.5785,-6.2257C-8.4683,-4.6466,-9.6764,-2.2779,-9.6764,0.3842C-9.6764,5.1519,-5.8148,9.0134,-1.0472,9.0134L-1.0472,6.2089C-4.2659,6.209,-6.8719,3.6029,-6.8719,0.3842z"/>
    <path fill="#0064c8" d="M-8.382,0.3842C-8.382,-2.2779,-7.1739,-4.6466,-5.2841,-6.2257L-7.7348,-8.6764L-9.0292,-8.6764L-6.5785,-6.2257C-8.4683,-4.6466,-9.6764,-2.2779,-9.6764,0.3842C-9.6764,5.1519,-5.8148,9.0134,-1.0472,9.0134L-1.0472,8.9014C-5.1983,8.2763,-8.382,4.7104,-8.382,0.3842z"/>
    <path fill="#0064c8" transform="translate(4.5618, 0.1685)scale(0.0375, 0.0375)translate(-388.314, -256)" d="M428.584,250.247C428.584,300.527,404.537,344.938,367.604,373.357L302.022,307.775L302.022,491.865L486.112,491.865L420.76,426.513C471.155,384.402,503.37,321.237,503.37,250.247C503.37,123.11,400.395,20.135,273.258,20.135L273.258,94.922C359.09,94.921,428.584,164.415,428.584,250.247z"/>
    <path fill="#0078ff" transform="translate(4.5618, 0.1685)scale(0.0375, 0.0375)translate(-388.315, -256)" d="M468.854,250.247C468.854,321.237,436.638,384.403,386.244,426.513L451.596,491.865L486.113,491.865L420.761,426.513C471.156,384.402,503.371,321.237,503.371,250.247C503.371,123.11,400.396,20.135,273.259,20.135L273.259,23.123C383.955,39.793,468.854,134.883,468.854,250.247z"/>
  </g>
  <g fill="#000000" transform="translate(-0.4306, -0.0861)scale(0.85, 0.85)">
    <path fill="#000000" transform="scale(0.57, 0.57)" d="M4.9343,-1.9961L4.9343,-4.2361C4.9343,-4.2361,4.9343,-9.4621,-0.2917,-9.4621C-5.5177,-9.4621,-5.5177,-4.2361,-5.5177,-4.2361L-5.5177,-1.9961L-7.7577,-1.9961L-7.7577,8.4579L7.1743,8.4579L7.1743,-1.9961L4.9343,-1.9961zM3.4423,-1.9961L-4.0257,-1.9961L-4.0257,-4.2261C-4.0177,-4.8521,-3.7977,-7.9681,-0.2917,-7.9681C3.2143,-7.9681,3.4323,-4.8501,3.4423,-4.2341L3.4423,-1.9961z"/>
  </g>
</svg>