<?xml version="1.0" encoding="UTF-8" standalone="no"?>
<!-- Created with Pixodesk SVG (https://pixodesk.com) -->
<svg xmlns="http://www.w3.org/2000/svg" viewBox="0 0 20 20" text-rendering="geometricPrecision" shape-rendering="geometricPrecision" fill="#000000">
  <path transform="translate(1.4907, 1.6079)scale(0.14, 0.14)" d="M5.4804,3.0637L5.4335,3.0823L5.4053,3.1009C5.3395,3.1288,5.2832,3.1567,5.2268,3.1939L5.208,3.2032L5.1516,3.2311L5.1235,3.2497C5.0953,3.2683,5.0671,3.2869,5.0389,3.3055L5.0389,3.3055L5.0013,3.3334L4.9919,3.3334L4.9638,3.352L4.9356,3.3706L4.898,3.3985L4.851,3.4357L4.8416,3.4357C4.325,3.8356,3.9492,4.3751,3.7708,4.9982C3.6674,5.3145,3.6299,5.6586,3.6392,5.9934L3.6392,7.9001C3.658,10.2718,6.2507,11.732,8.3173,10.5043C8.9467,10.1229,9.3976,9.5556,9.6325,8.8952L12.8827,8.8952C15.2781,8.8766,16.7529,6.3096,15.5129,4.2635C14.9399,3.352,13.9724,2.8125,12.8827,2.8032L6.8519,2.8032C6.401,2.7846,5.9313,2.8683,5.4804,3.0637L5.4804,3.0637zM98.6194,117.0725C98.704,117.0911,98.7979,117.0911,98.8918,117.0725C98.92,117.0539,98.9576,117.0353,98.9858,117.026L108.1541,111.7896C108.2386,111.7338,108.295,111.6408,108.3232,111.5478C108.3419,111.4734,108.3419,111.399,108.3138,111.3525L98.2625,94.0066L98.2625,94.0066C98.1779,93.8578,98.1216,93.6996,98.084,93.5322C97.9055,92.658,98.4691,91.8116,99.3521,91.6349L114.1003,88.6121C114.1191,88.6028,114.1379,88.6028,114.1567,88.6028C115.4248,88.3424,116.5051,87.896,117.219,87.3379C117.5666,87.0682,117.8015,86.7892,117.8954,86.5288C117.9518,86.3613,117.9236,86.166,117.8108,85.9428C117.6042,85.5615,117.1909,85.1336,116.5051,84.6779L66.3801,50.6929L71.03,110.6456C71.0957,111.4641,71.2554,112.0315,71.4809,112.3942C71.6124,112.6081,71.7721,112.7197,71.9506,112.7569C72.223,112.8127,72.58,112.7476,72.9933,112.5895C73.8387,112.2547,74.7593,111.5478,75.6329,110.5898L85.6936,99.4103L85.6936,99.4103C85.8064,99.2894,85.9379,99.1778,86.0976,99.0848C86.8772,98.6384,87.873,98.8988,88.3239,99.6707L98.4691,116.9609C98.4879,117.0167,98.5443,117.0539,98.6194,117.0725L98.6194,117.0725L98.6194,117.0725zM5.1516,3.2311C5.1141,3.259,5.0765,3.2776,5.0389,3.3055L5.1516,3.2311L5.1516,3.2311zM9.8015,20.0934C9.7828,17.7217,7.1901,16.2615,5.1235,17.4892C4.1935,18.0565,3.6486,19.0145,3.6392,20.0934L3.6392,26.1854C3.658,28.5571,6.2507,30.0173,8.3173,28.7896C9.2473,28.2222,9.7922,27.2643,9.8015,26.1854L9.8015,20.0934L9.8015,20.0934zM9.8015,38.388C9.7828,36.0163,7.1901,34.5561,5.1235,35.7838C4.1935,36.3418,3.6486,37.3091,3.6392,38.388L3.6392,44.48C3.658,46.8517,6.2507,48.3119,8.3173,47.0842C9.2473,46.5169,9.7922,45.5589,9.8015,44.48L9.8015,38.388L9.8015,38.388zM9.8015,56.6733C9.7828,54.3016,7.1901,52.8414,5.1235,54.0691C4.1935,54.6364,3.6486,55.5944,3.6392,56.6733L3.6392,62.7746C3.658,65.1463,6.2507,66.6065,8.3173,65.3788C9.2473,64.8115,9.7922,63.8535,9.8015,62.7746L9.8015,56.6733L9.8015,56.6733zM9.8015,74.9679C9.7828,72.5962,7.1901,71.136,5.1235,72.3637C4.1935,72.931,3.6486,73.889,3.6392,74.9679L3.6392,81.0599C3.658,83.4316,6.2507,84.8918,8.3173,83.6641C9.2473,83.0968,9.7922,82.1388,9.8015,81.0599L9.8015,74.9679L9.8015,74.9679zM9.8015,93.2532C9.7828,90.8815,7.1901,89.4213,5.1235,90.649C4.1935,91.2163,3.6486,92.1743,3.6392,93.2532L3.6392,99.3545C3.658,101.7262,6.2507,103.1864,8.3173,101.9587C9.2473,101.3914,9.7922,100.4334,9.8015,99.3545L9.8015,93.2532L9.8015,93.2532zM15.9732,99.3359C13.5778,99.3545,12.103,101.9215,13.343,103.9677C13.916,104.8885,14.8836,105.4279,15.9732,105.4372L22.1261,105.4372C24.5215,105.4186,25.9964,102.8516,24.7564,100.8054C24.1834,99.8847,23.2158,99.3452,22.1261,99.3359L15.9732,99.3359L15.9732,99.3359zM34.4413,99.3359C32.0459,99.3545,30.5711,101.9215,31.8111,103.9677C32.3841,104.8885,33.3517,105.4279,34.4413,105.4372L40.6036,105.4372C42.999,105.4186,44.4739,102.8516,43.2339,100.8054C42.6609,99.8847,41.6933,99.3452,40.6036,99.3359L34.4413,99.3359L34.4413,99.3359zM52.9188,99.3359C50.5234,99.3545,49.0486,101.9215,50.2886,103.9677C50.8616,104.8885,51.8292,105.4279,52.9188,105.4372L59.0811,105.4372C61.4765,105.4186,62.9514,102.8516,61.7114,100.8054C61.1384,99.8847,60.1708,99.3452,59.0811,99.3359L52.9188,99.3359L52.9188,99.3359zM101.1369,61.7329C101.1557,64.1046,103.7484,65.5648,105.815,64.3371C106.745,63.7698,107.2899,62.8118,107.2992,61.7329L107.2992,55.6316C107.2805,53.2599,104.6878,51.7997,102.6212,53.0274C101.6912,53.5947,101.1463,54.5527,101.1369,55.6316L101.1369,61.7329L101.1369,61.7329zM101.1369,43.4476C101.1557,45.8193,103.7484,47.2795,105.815,46.0518C106.745,45.4845,107.2899,44.5265,107.2992,43.4476L107.2992,37.3463C107.2805,34.9746,104.6878,33.5144,102.6212,34.7421C101.6912,35.3094,101.1463,36.2674,101.1369,37.3463L101.1369,43.4476L101.1369,43.4476zM101.1369,25.153C101.1557,27.5247,103.7484,28.9849,105.815,27.7572C106.745,27.1899,107.2899,26.2319,107.2992,25.153L107.2992,19.061C107.2805,16.6893,104.6878,15.2291,102.6212,16.4568C101.6912,17.0241,101.1463,17.9821,101.1369,19.061L101.1369,25.153L101.1369,25.153zM101.926,8.9045C102.856,9.9276,104.4529,10.2904,105.815,9.4719C106.745,8.9045,107.2899,7.9466,107.2992,6.8677L107.2992,5.9841C107.3274,5.4168,107.1865,4.8215,106.8577,4.2728C106.2847,3.352,105.3172,2.8125,104.2275,2.8032L99.0891,2.8032C96.6937,2.8218,95.2189,5.3889,96.4589,7.435C97.0319,8.3558,97.9994,8.8952,99.0891,8.9045L101.926,8.9045L101.926,8.9045zM86.7739,8.9045C89.1693,8.8859,90.6441,6.3189,89.4042,4.2728C88.8311,3.352,87.8636,2.8125,86.7739,2.8032L80.621,2.8032C78.2256,2.8218,76.7508,5.3889,77.9908,7.435C78.5638,8.3558,79.5313,8.8952,80.621,8.9045L86.7739,8.9045L86.7739,8.9045zM68.2964,8.9045C70.6918,8.8859,72.1666,6.3189,70.9267,4.2728C70.3536,3.352,69.3861,2.8125,68.2964,2.8032L62.1341,2.8032C59.7387,2.8218,58.2639,5.3889,59.5039,7.435C60.0769,8.3558,61.0444,8.8952,62.1341,8.9045L68.2964,8.9045L68.2964,8.9045zM49.8283,8.9045C52.2237,8.8859,53.6985,6.3189,52.4586,4.2728C51.8855,3.352,50.918,2.8125,49.8283,2.8032L43.666,2.8032C41.2706,2.8218,39.7958,5.3889,41.0358,7.435C41.6088,8.3558,42.5763,8.8952,43.666,8.9045L49.8283,8.9045L49.8283,8.9045zM31.3508,8.9045C33.7462,8.8859,35.221,6.3189,33.9811,4.2728C33.4174,3.352,32.4405,2.8125,31.3508,2.8032L25.1979,2.8032C22.8025,2.8218,21.3277,5.3889,22.5676,7.435C23.1407,8.3558,24.1082,8.8952,25.1979,8.9045L31.3508,8.9045L31.3508,8.9045z"/>
</svg>