<?xml version="1.0" encoding="UTF-8" standalone="no"?>
<!-- Created with Pixodesk SVG (https://pixodesk.com) -->
<svg xmlns="http://www.w3.org/2000/svg" viewBox="0 0 20 20" text-rendering="geometricPrecision" shape-rendering="geometricPrecision" fill="#000000">
  <defs>
    <g id="_px_svg_1mccdbek" fill="#000000" stroke="none" transform="translate(200, 199.9999)scale(0.1, 0.1)translate(-200, -199.9999)">
      <g transform="translate(137.1694, 137.8535)">
        <path transform="translate(60.6521, 64.4611)rotate(-63)translate(-128.1271, -53.5459)" d="M75.2088,44.2268C75.2308,46.938,78.2754,48.6074,80.702,47.2039C81.7938,46.5555,82.4339,45.46,82.4448,44.2268L82.4448,37.2518C82.4228,34.5405,79.3782,32.8711,76.9516,34.2746C75.8598,34.923,75.2198,36.0186,75.2088,37.2518L75.2088,44.2268L75.2088,44.2268zM75.0153,26.4589C75.0372,29.17,78.0819,30.8396,80.5084,29.4361C81.6003,28.7878,82.2403,27.692,82.2512,26.4589L82.2512,19.4839C82.2293,16.7728,79.1847,15.1033,76.7581,16.5068C75.6663,17.1552,75.0263,18.2508,75.0153,19.4839L75.0153,26.4589L75.0153,26.4589zM164.4872,82.3648C162.0815,83.6151,161.9762,87.0859,164.3283,88.6108C165.4017,89.2893,166.6685,89.3621,167.7722,88.8121L173.987,85.6455C176.3927,84.3952,176.4979,80.9244,174.1458,79.3995C173.0724,78.721,171.8057,78.6483,170.702,79.1983L164.4872,82.3648L164.4872,82.3648zM95.3263,23.8634C92.9445,22.5682,90.0083,24.4217,90.0593,27.2244C90.097,28.4937,90.7451,29.5847,91.8183,30.1921L97.9188,33.5736C100.3006,34.8688,103.2367,33.0153,103.1857,30.2126C103.148,28.9433,102.5,27.8524,101.4268,27.245L95.3263,23.8634L95.3263,23.8634zM160.1308,-7.866C157.6644,-8.9919,154.8646,-6.9381,155.111,-4.1458C155.2371,-2.8822,155.9598,-1.8392,157.0728,-1.3081L163.3943,1.6396C165.8607,2.7655,168.6603,0.7117,168.4139,-2.0806C168.2878,-3.3442,167.5653,-4.3872,166.4523,-4.9183L160.1308,-7.866L160.1308,-7.866zM144.1297,-15.217C141.6633,-16.3429,138.8636,-14.2891,139.11,-11.4968C139.2361,-10.2332,139.9587,-9.1902,141.0717,-8.6591L147.3932,-5.7113C149.8596,-4.5854,152.6593,-6.6393,152.4129,-9.4316C152.2868,-10.6952,151.5642,-11.7382,150.4512,-12.2693L144.1297,-15.217L144.1297,-15.217zM144.9625,-9.1524C146.9304,-11.0174,146.0749,-14.3827,143.3936,-15.2002C142.1748,-15.5565,140.937,-15.2773,140.0276,-14.4444L134.9264,-9.6874C132.9585,-7.8224,133.8141,-4.4572,136.4954,-3.6397C137.7142,-3.2834,138.9519,-3.5625,139.8613,-4.3954L144.9625,-9.1524L144.9625,-9.1524zM132.4067,3.299C134.3746,1.434,133.5191,-1.9312,130.8378,-2.7487C129.619,-3.105,128.3813,-2.8258,127.4719,-1.9929L122.3707,2.764C120.4028,4.629,121.2584,7.9943,123.9397,8.8118C125.1585,9.1681,126.3962,8.8889,127.3056,8.056L132.4067,3.299L132.4067,3.299zM120.0279,15.8079C121.9958,13.9429,121.1403,10.5775,118.459,9.76C117.2402,9.4037,116.0025,9.683,115.0931,10.5159L109.9919,15.2728C108.024,17.1378,108.8795,20.5031,111.5608,21.3206C112.7796,21.6769,114.0173,21.3977,114.9267,20.5648L120.0279,15.8079L120.0279,15.8079zM144.9625,-9.1523C146.9304,-11.0173,146.0749,-14.3826,143.3936,-15.2001C142.1748,-15.5564,140.937,-15.2772,140.0276,-14.4443L134.9264,-9.6873C132.9585,-7.8223,133.8141,-4.4571,136.4954,-3.6396C137.7142,-3.2833,138.9519,-3.5624,139.8613,-4.3953L144.9625,-9.1523L144.9625,-9.1523zM107.4722,28.2594C109.4401,26.3944,108.5846,23.0291,105.9033,22.2116C104.6845,21.8553,103.4467,22.1345,102.5373,22.9674L97.4361,27.7243C95.4682,29.5893,96.3238,32.9546,99.0051,33.7721C100.2239,34.1284,101.4616,33.8492,102.371,33.0163L107.4722,28.2594L107.4722,28.2594zM80.4977,15.915C78.1159,14.6198,75.1797,16.4733,75.2307,19.276C75.2684,20.5453,75.9165,21.6363,76.9897,22.2437L83.0902,25.6253C85.472,26.9205,88.4081,25.0669,88.3571,22.2642C88.3194,20.9949,87.6714,19.904,86.5982,19.2966L80.4977,15.915L80.4977,15.915zM75.5155,61.3464C75.5374,64.0576,78.5821,65.7271,81.0086,64.3236C82.1005,63.6753,82.7405,62.5795,82.7514,61.3464L82.7514,54.3714C82.7295,51.6603,79.6849,49.9909,77.2583,51.3943C76.1665,52.0426,75.5265,53.1383,75.5155,54.3714L75.5155,61.3464L75.5155,61.3464zM83.0434,68.1986C85.3033,69.6965,88.39,68.1059,88.5833,65.3094C88.6563,64.0416,88.1058,62.8985,87.0896,62.1998L81.3071,58.2994C79.0472,56.8015,75.9606,58.3921,75.7673,61.1886C75.6943,62.4564,76.2446,63.5995,77.2608,64.2982L83.0434,68.1986L83.0434,68.1986zM98.3568,77.9672C100.6167,79.4651,103.7034,77.8745,103.8967,75.078C103.9697,73.8102,103.4192,72.667,102.403,71.9683L96.6205,68.068C94.3606,66.5701,91.274,68.1607,91.0807,70.9572C91.0077,72.225,91.558,73.3681,92.5742,74.0668L98.3568,77.9672L98.3568,77.9672zM143.4246,89.3567C140.7434,88.9543,138.6182,91.7003,139.6248,94.3165C140.0944,95.4963,141.0765,96.2998,142.2927,96.5035L149.1818,97.5947C151.863,97.9971,153.9882,95.2511,152.9816,92.6349C152.512,91.4551,151.53,90.6516,150.3138,90.4479L143.4246,89.3567L143.4246,89.3567zM176.5136,74.9954C176.728,72.2927,173.8405,70.3642,171.3009,71.5508C170.1567,72.1015,169.4237,73.1373,169.3053,74.3648L168.6974,81.3132C168.483,84.0159,171.3705,85.9444,173.9101,84.7578C175.0543,84.2071,175.7873,83.1714,175.9057,81.9439L176.5136,74.9954L176.5136,74.9954zM177.9057,56.8626C178.1201,54.1599,175.2326,52.2313,172.693,53.4179C171.5488,53.9686,170.8158,55.0044,170.6974,56.2319L170.0895,63.1804C169.8751,65.8831,172.7626,67.8115,175.3022,66.6249C176.4464,66.0742,177.1794,65.0385,177.2978,63.811L177.9057,56.8626L177.9057,56.8626zM179.3599,39.1412C179.5743,36.4385,176.6868,34.51,174.1472,35.6966C173.003,36.2473,172.2699,37.283,172.1515,38.5105L171.5436,45.459C171.3292,48.1617,174.2167,50.0901,176.7563,48.9035C177.9005,48.3528,178.6336,47.3171,178.752,46.0896L179.3599,39.1412L179.3599,39.1412zM181.2276,21.6519C181.442,18.9492,178.5545,17.0207,176.0149,18.2073C174.8707,18.758,174.1376,19.7938,174.0192,21.0213L173.4113,27.9697C173.1969,30.6724,176.0845,32.6009,178.6241,31.4143C179.7683,30.8636,180.5013,29.8279,180.6197,28.6004L181.2276,21.6519L181.2276,21.6519zM173.4723,4.488C172.0978,2.151,168.6262,2.2276,167.2265,4.6563C166.6051,5.7637,166.5988,7.0326,167.2058,8.106L170.6933,14.1465C172.0678,16.4835,175.5394,16.4069,176.9391,13.9782C177.5605,12.8708,177.5668,11.602,176.9598,10.5286L173.4723,4.488L173.4723,4.488zM94.4609,116.1067C94.484,116.1959,94.5294,116.2851,94.5925,116.3651C94.6238,116.3827,94.6601,116.4093,94.6825,116.4315L104.1298,122.5717C104.2241,122.6246,104.3405,122.6327,104.4432,122.6141C104.5234,122.5956,104.5949,122.5591,104.6257,122.5098L116.3853,104.5091L116.3853,104.5091C116.4868,104.3564,116.6113,104.2255,116.7535,104.1083C117.5047,103.5124,118.5882,103.6339,119.1841,104.385L129.2075,116.8983C129.2254,116.9114,129.2347,116.9295,129.2437,116.9472C130.106,118.0228,131.0559,118.8297,131.9354,119.2345C132.3617,119.4325,132.7427,119.5191,133.0375,119.481C133.2251,119.4528,133.3988,119.3306,133.558,119.1148C133.8233,118.7328,134.0337,118.1317,134.1387,117.2589L142.471,53.126L87.284,86.8007C86.5318,87.2624,86.0654,87.6911,85.8269,88.0819C85.6856,88.311,85.6559,88.5171,85.7064,88.7044C85.7845,88.99,86.0196,89.297,86.3707,89.6117C87.0999,90.2502,88.2222,90.7784,89.5621,91.1394L105.1343,95.2251L105.1343,95.2251C105.3044,95.273,105.4752,95.3432,105.6413,95.4493C106.4457,95.9708,106.6774,97.0426,106.1559,97.847L94.4952,115.9096C94.4508,115.9545,94.4424,116.0265,94.4609,116.1067L94.4609,116.1067L94.4609,116.1067zM148.6924,91.4821C146.4295,92.6574,146.2836,95.8296,148.4585,97.1905C149.4513,97.7956,150.6326,97.8447,151.6706,97.3271L157.5156,94.349C159.7785,93.1737,159.9245,90.0015,157.7496,88.6406C156.7568,88.0355,155.5754,87.9864,154.5374,88.504L148.6924,91.4821L148.6924,91.4821zM94.4609,116.1067C94.484,116.1959,94.5294,116.2851,94.5925,116.3651C94.6238,116.3827,94.6601,116.4093,94.6825,116.4315L104.1298,122.5717C104.2241,122.6246,104.3405,122.6327,104.4432,122.6141C104.5234,122.5956,104.5949,122.5591,104.6257,122.5098L116.3853,104.5091L116.3853,104.5091C116.4868,104.3564,116.6113,104.2255,116.7535,104.1083C117.5047,103.5124,118.5882,103.6339,119.1841,104.385L129.2075,116.8983C129.2254,116.9114,129.2347,116.9295,129.2437,116.9472C130.106,118.0228,131.0559,118.8297,131.9354,119.2345C132.3617,119.4325,132.7427,119.5191,133.0375,119.481C133.2251,119.4528,133.3988,119.3306,133.558,119.1148C133.8233,118.7328,134.0337,118.1317,134.1387,117.2589L142.471,53.126L87.284,86.8007C86.5318,87.2624,86.0654,87.6911,85.8269,88.0819C85.6856,88.311,85.6559,88.5171,85.7064,88.7044C85.7845,88.99,86.0196,89.297,86.3707,89.6117C87.0999,90.2502,88.2222,90.7784,89.5621,91.1394L105.1343,95.2251L105.1343,95.2251C105.3044,95.273,105.4752,95.3432,105.6413,95.4493C106.4457,95.9708,106.6774,97.0426,106.1559,97.847L94.4952,115.9096C94.4508,115.9545,94.4424,116.0265,94.4609,116.1067L94.4609,116.1067L94.4609,116.1067z"/>
      </g>
      <g transform="translate(137.1694, 137.8535)">
        <g style="pointer-events:none">
          <path d="M103.79,63.36C103.8098,65.9098,106.57,67.48,108.77,66.16C109.7599,65.5502,110.3401,64.5199,110.35,63.36L110.35,56.8C110.3302,54.2502,107.5699,52.68,105.37,54C104.3801,54.6099,103.7999,55.6401,103.79,56.8L103.79,63.36L103.79,63.36z"/>
          <path d="M101.11,122.86C101.2,122.8799,101.3,122.8799,101.4,122.86C101.43,122.8402,101.47,122.8199,101.5,122.81L111.26,117.18C111.3499,117.12,111.41,117.0199,111.44,116.92C111.4599,116.8402,111.4599,116.7599,111.43,116.71L100.73,98.06L100.73,98.06C100.64,97.9002,100.5798,97.73,100.54,97.55C100.3501,96.6102,100.9502,95.6998,101.89,95.5099L117.59,92.2599C117.6098,92.2499,117.6301,92.2499,117.65,92.2499C118.9998,91.9699,120.1501,91.4898,120.91,90.8899C121.28,90.6,121.5302,90.2998,121.63,90.0199C121.69,89.8399,121.6599,89.6298,121.54,89.3899C121.3201,88.9801,120.8799,88.5198,120.15,88.0299L66.79,51.49L71.74,115.95C71.8099,116.8298,71.9801,117.4399,72.22,117.8299C72.36,118.0599,72.5302,118.18,72.72,118.2199C73.01,118.2799,73.3902,118.2099,73.83,118.0399C74.73,117.6801,75.71,116.9199,76.64,115.8899L87.35,103.8699L87.35,103.8699C87.47,103.7401,87.61,103.6197,87.78,103.5199C88.6098,103.0399,89.67,103.32,90.15,104.1499L100.95,122.7399C100.9698,122.7998,101.0302,122.8402,101.11,122.86L101.11,122.86L101.11,122.86z"/>
        </g>
      </g>
    </g>
  </defs>
  <g transform="translate(2, 6.5)scale(0.9716, 0.966)translate(-1.76, -5.5623)">
    <use transform="translate(10, 9.9999)scale(1.4, 1.4)translate(-200, -199.9999)" href="#_px_svg_1mccdbek"/>
  </g>
</svg>