<?xml version="1.0" encoding="UTF-8" standalone="no"?>
<!-- Created with Pixodesk SVG (https://pixodesk.com) -->
<svg xmlns="http://www.w3.org/2000/svg" viewBox="-10 -10 20 20" text-rendering="geometricPrecision" shape-rendering="geometricPrecision" fill="#000000" stroke-width="0">
  <defs>
    <marker fill="#000000" viewBox="-6 -6 12 12" markerHeight="12" markerWidth="12" orient="auto">
      <path fill-rule="evenodd" stroke="none" transform="scale(0.5, 0.5)" d="M5,0C5,2.7599,2.7599,5,0,5C-2.7599,5,-5,2.7599,-5,0C-5,-2.7599,-2.7,-5,0,-5C2.7599,-5,5,-2.7599,5,0z"/>
    </marker>
  </defs>
  <path fill="#ff00007f" stroke="#003a73" stroke-width="0" stroke-dasharray="5 5" transform="translate(-1.1283, -1.7643)rotate(-5)scale(5.1, 5.1)translate(-0.1244, -0.2938)" d="M0.1181,-1.0465C0.8502,-1.0465,1.4731,-0.4354,1.4731,0.2966C1.4731,0.4661,1.433,0.5888,1.375,0.7378L0.1632,-0.0297C0.1132,-0.0614,0.0497,-0.0625,-0.0014,-0.0326C-0.0525,-0.0027,-0.0826,0.0532,-0.0795,0.1123L0.0005,1.6341C-0.6756,1.5737,-1.2073,0.9707,-1.2073,0.279C-1.2073,-0.4531,-0.6139,-1.0465,0.1181,-1.0465z" data-px-corners="[0,3]=0.1583" data-px-src-d="M0.1181,-1.0465C0.8502,-1.0465,1.4731,-0.4354,1.4731,0.2966C1.4731,0.4661,1.433,0.5888,1.375,0.7378L-0.0956,-0.1936L0.0005,1.6341C-0.6756,1.5737,-1.2073,0.9707,-1.2073,0.279C-1.2073,-0.4531,-0.6139,-1.0465,0.1181,-1.0465z" style="pointer-events:none"/>
  <path fill="#000000" transform="translate(2.8848, -6.0963)rotate(-5)translate(-2.8848, 6.0963)" d="M4.1491,8.5786C4.0245,8.6359,3.8858,8.6456,3.7627,8.6136C3.6269,8.5772,3.5064,8.4917,3.4323,8.3644L2.0449,5.9732L0.7261,7.453C0.5427,7.6588,0.3341,7.8142,0.1325,7.8954C-0.0229,7.9583,-0.1755,7.978,-0.3183,7.9472C-0.4764,7.9137,-0.6109,7.8226,-0.7103,7.6672C-0.7886,7.5426,-0.8406,7.3773,-0.8573,7.1646L-1.5923,-2.4142C-1.5936,-2.4211,-1.5935,-2.4297,-1.5935,-2.4352C-1.5949,-2.4954,-1.5839,-2.5542,-1.5587,-2.6074C-1.5322,-2.6689,-1.4873,-2.7251,-1.4313,-2.7656C-1.4075,-2.7837,-1.3809,-2.7965,-1.3529,-2.8034C-1.2984,-2.8216,-1.2408,-2.8285,-1.1863,-2.8216C-1.1332,-2.816,-1.0812,-2.8006,-1.0337,-2.7726C-1.0183,-2.7656,-1.0015,-2.7557,-0.9875,-2.7446L6.9253,2.6734C7.1002,2.7938,7.2179,2.9212,7.2865,3.0514C7.3733,3.2151,7.383,3.3763,7.3327,3.5302C7.2879,3.6688,7.1927,3.792,7.0625,3.8942C6.8931,4.0271,6.6536,4.1308,6.3821,4.1868C6.3793,4.1882,6.375,4.1882,6.3723,4.1882L4.4403,4.5885L5.8179,6.9868C5.8906,7.1142,5.9046,7.2612,5.8682,7.3956C5.8333,7.5271,5.7492,7.6476,5.6275,7.7274C5.6234,7.7315,5.6177,7.7345,5.6121,7.7372L4.1827,8.5632C4.1702,8.5687,4.1603,8.5745,4.1491,8.5786L4.1491,8.5786L4.1491,8.5786z" style="pointer-events:none"/>
</svg>