<?xml version="1.0" encoding="UTF-8" standalone="no"?>
<!-- Created with Pixodesk SVG (https://pixodesk.com) -->
<svg xmlns="http://www.w3.org/2000/svg" viewBox="0 0 20.00002552124872 20" text-rendering="geometricPrecision" shape-rendering="geometricPrecision" fill="url(#256)">
  <defs>
    <radialGradient id="256" spreadMethod="pad" cx="61.3985" cy="57.99999" fx="61.3985" fy="57.99999" r="44.7969" gradientUnits="userSpaceOnUse">
      <stop offset="0%" stop-color="rgb(255,187,152)"/>
      <stop offset="100%" stop-color="rgb(215,100,0)"/>
    </radialGradient>
    <radialGradient id="256" spreadMethod="pad" cx="61.3985" cy="57.99999" fx="61.3985" fy="57.99999" r="44.7969" gradientUnits="userSpaceOnUse">
      <stop offset="0%" stop-color="rgb(255,187,152)"/>
      <stop offset="100%" stop-color="rgb(215,100,0)"/>
    </radialGradient>
  </defs>
  <g transform="translate(1.4, 1.7972)scale(0.14, 0.14)">
    <path fill-rule="evenodd" stroke="#8e1800" stroke-width="3" stroke-linecap="square" stroke-linejoin="bevel" stroke-dasharray="-1 5" d="M101.589,14.7L110.407,23.519C112.728,25.84,112.728,29.637,110.407,31.958L103.306,39.059C105.265,42.717,106.76,46.66,107.711,50.811L116.91,50.811C120.193,50.811,122.879,53.497,122.879,56.779L122.879,69.25C122.879,72.533,120.193,75.219,116.91,75.219L106.871,75.219C105.64,79.282,103.879,83.115,101.667,86.637L108.179,93.147C110.5,95.47,110.5,99.267,108.179,101.587L99.361,110.406C97.04,112.726,93.242,112.726,90.922,110.406L83.82,103.304C80.163,105.264,76.219,106.76,72.067,107.71L72.067,116.909C72.067,120.191,69.382,122.877,66.099,122.877L53.629,122.877C50.346,122.877,47.66,120.191,47.66,116.909L47.66,106.87C43.597,105.638,39.764,103.877,36.243,101.665L29.732,108.177C27.409,110.498,23.612,110.498,21.291,108.177L12.473,99.359C10.152,97.038,10.152,93.241,12.473,90.92L19.575,83.818C17.615,80.161,16.119,76.218,15.17,72.067L5.968,72.067C2.686,72.067,0,69.382,0,66.099L0,53.628C0,50.345,2.686,47.66,5.968,47.66L16.007,47.66C17.239,43.597,19,39.764,21.211,36.242L14.7,29.732C12.379,27.41,12.379,23.612,14.7,21.292L23.519,12.473C25.84,10.152,29.637,10.152,31.958,12.473L39.059,19.574C42.717,17.614,46.66,16.118,50.812,15.168L50.812,5.969C50.812,2.686,53.498,0,56.78,0L69.251,0C72.533,0,75.219,2.686,75.219,5.969L75.219,16.005C79.283,17.236,83.117,18.997,86.641,21.209L93.148,14.7C95.471,12.379,99.268,12.379,101.589,14.7L101.589,14.7zM61.44,36.92C74.98,36.92,85.959,47.9,85.959,61.439C85.959,74.977,74.98,85.958,61.44,85.958C47.901,85.958,36.921,74.978,36.921,61.439C36.921,47.9,47.901,36.92,61.44,36.92L61.44,36.92z"/>
  </g>
</svg>