<?xml version="1.0" encoding="UTF-8" standalone="no"?>
<!-- Created with Pixodesk SVG (https://pixodesk.com) -->
<svg xmlns="http://www.w3.org/2000/svg" viewBox="0 0 20.00002552124872 20" text-rendering="geometricPrecision" shape-rendering="geometricPrecision" fill="#d76400" stroke-width="0">
  <path data-px-label="Main Grid" fill="#141414" stroke="#000000" transform="translate(10, 10.75)translate(-6.5, -7.75)" d="M13,15.5L12,15.5L12,14.25L1,14.25L1,15.5L0,15.5L0,14.25L-1.5,14.25L-1.5,13.25L0,13.25L0,2.5L-1.5,2.5L-1.5,1.5L0,1.5L0,0L1,0L1,1.5L12,1.5L12,0L13,0L13,1.5L14.5,1.5L14.5,2.5L13,2.5L13,13.25L14.5,13.25L14.5,14.25L13,14.25L13,15.5zM12,13.25L12,2.5L1,2.5L1,13.25L12,13.25z"/>
  <g data-px-label="Main Nodes" transform="translate(10, 10.875)translate(-10, -10.875)">
    <ellipse fill="#dc0000" stroke="#000000" transform="translate(16, 5)scale(1.5, 1.5)" rx="1.5" ry="1.5"/>
    <ellipse fill="#dc0000" stroke="#000000" transform="translate(16, 16.5)scale(1.5, 1.5)" rx="1.5" ry="1.5"/>
    <ellipse fill="#dc0000" stroke="#000000" transform="translate(4, 16.75)scale(1.5, 1.5)" rx="1.5" ry="1.5"/>
    <ellipse fill="#dc0000" stroke="#000000" transform="translate(4, 5)scale(1.5, 1.5)" rx="1.5" ry="1.5"/>
  </g>
</svg>