<?xml version="1.0" encoding="UTF-8" standalone="no"?>
<!-- Created with Pixodesk SVG (https://pixodesk.com) -->
<svg xmlns="http://www.w3.org/2000/svg" viewBox="0 0 20 20" text-rendering="geometricPrecision" shape-rendering="geometricPrecision" fill="#ffffff">
  <g fill="#000000">
    <g transform="translate(1.5322, 1.3873)scale(0.14, 0.14)">
      <path d="M66.6,108.91C68.15,110.54,68.91,112.65,68.88,114.76C68.85,116.87,68.04,118.96,66.44,120.55L66.32,120.67C64.74,122.17,62.72,122.9,60.71,122.87C58.7,122.84,56.69,122.05,55.16,120.5C37.5,102.85,20.03,84.9,2.48,67.11C2.41,67.06,2.35,67.01,2.29,66.95C0.73,65.32,-0.03,63.19,0,61.08C0.03,58.97,0.85,56.87,2.45,55.28L2.72,55.02C20.21,37.47,37.65,19.87,55.17,2.36C56.71,0.82,58.7,0.03,60.71,0C62.72,-0.03,64.74,0.7,66.32,2.21L66.47,2.36C68.04,3.94,68.85,6.02,68.88,8.12C68.91,10.22,68.15,12.34,66.6,13.97L19.38,61.23L66.6,108.91L66.6,108.91zM118.37,106.91C119.91,108.53,120.66,110.64,120.63,112.74C120.6,114.85,119.79,116.94,118.19,118.53L118.07,118.65C116.5,120.15,114.47,120.88,112.46,120.86C110.45,120.83,108.44,120.04,106.91,118.49C89.63,101.2,71.76,84.2,54.24,67.12C54.17,67.07,54.1,67.01,54.03,66.95C52.48,65.32,51.72,63.19,51.75,61.08C51.78,58.97,52.6,56.87,54.2,55.28C71.7,38.33,89.27,21.44,106.8,4.51L106.92,4.38C108.45,2.84,110.45,2.06,112.46,2.03C114.47,2,116.49,2.73,118.07,4.24L118.22,4.39C119.79,5.97,120.6,8.05,120.63,10.15C120.66,12.25,119.9,14.37,118.35,16L71.17,61.23L118.37,106.91L118.37,106.91z"/>
    </g>
  </g>
</svg>