<?xml version="1.0" encoding="UTF-8" standalone="no"?>
<!-- Created with Pixodesk SVG (https://pixodesk.com) -->
<svg xmlns="http://www.w3.org/2000/svg" viewBox="0 0 20 20" text-rendering="geometricPrecision" shape-rendering="geometricPrecision" fill="#d800ff">
  <ellipse fill="#808080" stroke="#003a73" stroke-width="0" transform="translate(10, 10)scale(2, 2)" rx="1" ry="1"/>
  <path fill="#808080" stroke="#003a73" stroke-width="0" transform="translate(10, 10)scale(1.17, 1.17)translate(-8, 2)" d="M9.4259,6.0494C8.5625,6.625,7.4375,6.625,6.5741,6.0494C6.5742,6.0494,2.1472,3.0982,1.6447,2.7631C0.9296,2.2864,0.5,1.4837,0.5,0.6243C0.5,0.6245,0.5,-4.0596,0.5,-4.6243C0.5,-5.4837,0.9296,-6.2864,1.6447,-6.7631C1.6444,-6.763,6.03,-9.6866,6.5741,-10.0494C7.4375,-10.625,8.5625,-10.625,9.4259,-10.0494C9.4258,-10.0494,13.8528,-7.0982,14.3553,-6.7631C15.0704,-6.2864,15.5,-5.4837,15.5,-4.6243C15.5,-4.6245,15.5,0.0596,15.5,0.6243C15.5,1.4837,15.0704,2.2864,14.3553,2.7631C14.3556,2.763,9.97,5.6866,9.4259,6.0494zM6.6199,3.6218C7.4619,4.1576,8.5381,4.1576,9.3801,3.6218C9.38,3.6218,11.7704,2.1006,12.3095,1.7576C13.051,1.2857,13.5,0.4678,13.5,-0.4111C13.5,-0.411,13.5,-2.9813,13.5,-3.5889C13.5,-4.4678,13.051,-5.2857,12.3095,-5.7576C12.3095,-5.7576,9.9446,-7.2626,9.3801,-7.6218C8.5381,-8.1576,7.4619,-8.1576,6.6199,-7.6218C6.62,-7.6218,4.2296,-6.1006,3.6905,-5.7576C2.949,-5.2857,2.5,-4.4678,2.5,-3.5889C2.5,-3.589,2.5,-1.0187,2.5,-0.4111C2.5,0.4678,2.949,1.2857,3.6905,1.7576C3.6905,1.7576,6.0554,3.2626,6.6199,3.6218z" data-px-corners="[0,0]=2.5706|[0,1]=2.5706|[0,2]=2.5706|[0,3]=2.5706|[0,4]=2.5706|[0,5]=2.5706|[1,0]=2.5706|[1,1]=2.5706|[1,2]=2.5706|[1,3]=2.5706|[1,4]=2.5706|[1,5]=2.5706" data-px-src-d="M8,7L0.5,2L0.5,-6L8,-11L15.5,-6L15.5,2L8,7zM8,4.5L13.5,1L13.5,-5L8,-8.5L2.5,-5L2.5,1L8,4.5z"/>
</svg>