<?xml version="1.0" encoding="UTF-8" standalone="no"?>
<!-- Created with Pixodesk SVG (https://pixodesk.com) -->
<svg xmlns="http://www.w3.org/2000/svg" viewBox="0 0 20 20" text-rendering="geometricPrecision" shape-rendering="geometricPrecision" fill="#d800ff">
  <path fill="#808080" stroke="#003a73" stroke-width="0" transform="translate(10, 10)scale(1.59, 1.59)translate(-8, 2)" d="M2.5,-0.1212C2.5,0.5771,2.8568,1.227,3.4459,1.6019C3.4457,1.6018,6.467,3.5245,6.9035,3.8022C7.5725,4.228,8.4275,4.228,9.0965,3.8022C9.0964,3.8023,12.1397,1.8657,12.5541,1.6019C13.1432,1.227,13.5,0.5771,13.5,-0.1212C13.5,-0.121,13.5,-3.4096,13.5,-3.8788C13.5,-4.5771,13.1432,-5.227,12.5541,-5.6019C12.5543,-5.6018,9.533,-7.5245,9.0965,-7.8022C8.4275,-8.228,7.5725,-8.228,6.9035,-7.8022C6.9036,-7.8023,3.8603,-5.8657,3.4459,-5.6019C2.8568,-5.227,2.5,-4.5771,2.5,-3.8788C2.5,-3.879,2.5,-0.5904,2.5,-0.1212z" data-px-corners="[0,0]=2.0424|[0,1]=2.0424|[0,2]=2.0424|[0,3]=2.0424|[0,4]=2.0424|[0,5]=2.0424" data-px-src-d="M2.5,1L8,4.5L13.5,1L13.5,-5L8,-8.5L2.5,-5L2.5,1z"/>
  <ellipse fill="#404040" stroke="#003a73" stroke-width="0" transform="translate(10, 10)scale(2, 2)" rx="1" ry="1"/>
</svg>