<?xml version="1.0" encoding="UTF-8" standalone="no"?>
<!-- Created with Pixodesk SVG (https://pixodesk.com) -->
<svg xmlns="http://www.w3.org/2000/svg" viewBox="-10 -10 20 20" text-rendering="geometricPrecision" shape-rendering="geometricPrecision" fill="none">
  <path fill="#007fff" stroke="#003a73" stroke-width="0" transform="translate(-0.0144, -0.1308)translate(-8.0057, -8.3379)" d="M12.9098,-0.5313C13.7347,-0.5313,14.5258,-0.2036,15.1091,0.3797C15.6924,0.963,16.0201,1.7541,16.0201,2.579C16.0201,2.5784,16.0201,13.0803,16.0201,14.3584C16.0201,16.0762,14.6276,17.4687,12.9098,17.4687C12.9102,17.4687,4.4426,17.4687,3.1304,17.4687C1.4127,17.4687,0.0201,16.0762,0.0201,14.3584C0.0201,14.359,0.0201,3.8572,0.0201,2.579C0.0201,0.8612,1.4127,-0.5313,3.1304,-0.5313C3.13,-0.5313,11.5977,-0.5313,12.9098,-0.5313z" data-px-corners="[0,0]=3.1103|[0,1]=3.1103|[0,2]=3.1103|[0,3]=3.1103" data-px-src-d="M16.0201,-0.5313L16.0201,17.4687L0.0201,17.4687L0.0201,-0.5313L16.0201,-0.5313z"/>
  <text fill="#fafafa" font-family="Lato-Bold" font-size="17px" xml:space="preserve" transform="translate(-5.6562, 6.1291)" x="0px" data-gn-el-type="text" style="white-space:pre"><tspan>P </tspan></text>
</svg>