<?xml version="1.0" encoding="UTF-8" standalone="no"?>
<!-- Created with Pixodesk SVG (https://pixodesk.com) -->
<svg xmlns="http://www.w3.org/2000/svg" viewBox="0 0 20 20" text-rendering="geometricPrecision" shape-rendering="geometricPrecision" fill="#d800ff">
  <path fill="#808080" stroke="#003a73" stroke-width="0" transform="translate(-2.72, 13.18)scale(1.59, 1.59)" d="M8.9901,3.8699C8.386,4.2544,7.6139,4.2544,7.0099,3.8699C7.0099,3.8699,4.1371,2.0417,3.6697,1.7443C2.9412,1.2807,2.5,0.4771,2.5,-0.3864C2.5,-0.3863,2.5,-3.0168,2.5,-3.6136C2.5,-4.4771,2.9412,-5.2808,3.6697,-5.7443C3.6696,-5.7443,6.5682,-7.5888,7.0099,-7.8699C7.6139,-8.2544,8.386,-8.2544,8.9901,-7.8699C8.9901,-7.8699,11.9042,-6.0155,12.3621,-5.7241C13.0708,-5.2732,13.5,-4.4913,13.5,-3.6512C13.5,-3.6513,13.5,-0.9286,13.5,-0.3488C13.5,0.4913,13.0708,1.2731,12.3621,1.7241C12.3621,1.7241,9.4267,3.5921,8.9901,3.8699z" data-px-corners="[0,0]=1.8442|[0,1]=2.5256|[0,2]=2.5256|[0,3]=1.8442|[0,4]=2.4571|[0,5]=2.4571" data-px-src-d="M8,4.5L2.5,1L2.5,-5L8,-8.5L13.5,-5L13.5,1L8,4.5z"/>
  <path fill="#808080" stroke="#003a73" stroke-width="0" transform="translate(8.5, 2.5)" d="M-3,3.5L-6.5,7.5L-3,11.5L-3,9L6,9L6,11.5L9.5,7.5L6,3.5L6,6L-3,6L-3,3.5z" style="display:none"/>
  <path fill="#404040" stroke="#003a73" stroke-width="0" transform="translate(8.5, 2.5)" d="M-3,3.5L-6.5,7.5L-3,11.5L-3,9L6,9L6,11.5L9.5,7.5L6,3.5L6,6L-3,6L-3,3.5z"/>
</svg>