<?xml version="1.0" encoding="UTF-8" standalone="no"?>
<!-- Created with Pixodesk SVG (https://pixodesk.com) -->
<svg xmlns="http://www.w3.org/2000/svg" viewBox="0 0 20 20" text-rendering="geometricPrecision" shape-rendering="geometricPrecision" fill="#d800ff">
  <path fill="#808080" stroke="#003a73" stroke-width="0" transform="translate(9.9586, 10.0823)translate(0.0414, -9.0823)" d="M0.159,15.36L0.318,17.745L-0.3884,17.0993L-3.3062,14.472L-0.0727,10.8808L0.0547,13.3121C1.2744,13.4065,2.5235,12.9624,3.4067,11.9817C4.9142,10.3073,4.7792,7.731,3.105,6.2234L4.401,4.784C6.8812,7.0171,7.1622,10.8129,4.929,13.293C3.6821,14.6779,1.8818,15.4238,0.159,15.36zM-0.2802,2.8422L-0.407,0.4196L0.2662,1.0258L3.184,3.653L-0.0494,7.2442L-0.1768,4.8129C-1.3965,4.7186,-2.6456,5.1625,-3.5288,6.1434C-5.0365,7.8177,-4.9013,10.394,-3.2271,11.9016L-4.5143,13.3313C-6.9946,11.0983,-7.2208,7.3098,-4.9877,4.8297C-3.7408,3.4449,-2.0029,2.7785,-0.2802,2.8422z"/>
</svg>