<?xml version="1.0" encoding="UTF-8" standalone="no"?>
<!-- Created with Pixodesk SVG (https://pixodesk.com) -->
<svg xmlns="http://www.w3.org/2000/svg" viewBox="0 0 20 20" text-rendering="geometricPrecision" shape-rendering="geometricPrecision" fill="#d800ff">
  <path fill="#404040" stroke="#003a73" stroke-width="0" transform="translate(10, 1)" d="M0,-0.5L-7,5L-7,13L0,18.5L7,12.5L7,5L0,-0.5z"/>
  <path fill="#808080" stroke="#003a73" stroke-width="0" transform="translate(10, 10)scale(1.59, 1.59)translate(-8, 2)" d="M8.9901,3.8699C8.386,4.2544,7.614,4.2544,7.0099,3.8699C7.0099,3.8699,4.1371,2.0418,3.6697,1.7443C2.9412,1.2807,2.5,0.4771,2.5,-0.3864C2.5,-0.3863,2.5,-3.0168,2.5,-3.6136C2.5,-4.4771,2.9412,-5.2807,3.6697,-5.7443C3.6695,-5.7443,6.5682,-7.5888,7.0099,-7.8699C7.614,-8.2544,8.386,-8.2544,8.9901,-7.8699C8.9901,-7.8699,11.9042,-6.0155,12.3621,-5.7241C13.0708,-5.2731,13.5,-4.4913,13.5,-3.6512C13.5,-3.6513,13.5,-0.9286,13.5,-0.3488C13.5,0.4913,13.0708,1.2731,12.3621,1.7241C12.3622,1.7241,9.4267,3.5921,8.9901,3.8699zM8.2,3.5L8.1,2C9.1835,2.0401,10.3158,1.571,11.1,0.7C12.5045,-0.8598,12.3278,-3.2471,10.7679,-4.6516L9.9528,-3.7463C11.0058,-2.7981,11.0907,-1.1778,10.1426,-0.1247C9.5871,0.4921,8.8015,0.7714,8.0344,0.712L7.9543,-0.8171L5.9206,1.4415L7.7557,3.0939L8.2,3.5zM7.744,-7.3965L7.8238,-5.8728C6.7403,-5.9129,5.6473,-5.4938,4.8631,-4.6228C3.4586,-3.063,3.6009,-0.6803,5.1608,0.7241L5.9704,-0.1751C4.9174,-1.1233,4.8324,-2.7436,5.7806,-3.7966C6.3361,-4.4135,7.1217,-4.6927,7.8888,-4.6334L7.9689,-3.1043L10.0025,-5.3629L8.1674,-7.0152L7.744,-7.3965z" data-px-corners="[0,0]=1.8442|[0,1]=2.5256|[0,2]=2.5256|[0,3]=1.8442|[0,4]=2.4571|[0,5]=2.4571" data-px-src-d="M8,4.5L2.5,1L2.5,-5L8,-8.5L13.5,-5L13.5,1L8,4.5zM8.2,3.5L8.1,2C9.1835,2.0401,10.3158,1.571,11.1,0.7C12.5045,-0.8598,12.3278,-3.2471,10.7679,-4.6516L9.9528,-3.7463C11.0058,-2.7981,11.0907,-1.1778,10.1426,-0.1247C9.5871,0.4921,8.8015,0.7714,8.0344,0.712L7.9543,-0.8171L5.9206,1.4415L7.7557,3.0939L8.2,3.5zM7.744,-7.3965L7.8238,-5.8728C6.7403,-5.9129,5.6473,-5.4938,4.8631,-4.6228C3.4586,-3.063,3.6009,-0.6803,5.1608,0.7241L5.9704,-0.1751C4.9174,-1.1233,4.8324,-2.7436,5.7806,-3.7966C6.3361,-4.4135,7.1217,-4.6927,7.8888,-4.6334L7.9689,-3.1043L10.0025,-5.3629L8.1674,-7.0152L7.744,-7.3965z"/>
</svg>