<?xml version="1.0" encoding="UTF-8" standalone="no"?>
<!-- Created with Pixodesk SVG (https://pixodesk.com) -->
<svg xmlns="http://www.w3.org/2000/svg" viewBox="-10 -10 20 20" text-rendering="geometricPrecision" shape-rendering="geometricPrecision" fill="none">
  <path fill="#fffc00" stroke="#003a73" stroke-width="0" transform="translate(0, -10)" d="M0.7831,0.488C0.6301,0.1972,0.3286,0.0152,0,0.0152C-0.3286,0.0152,-0.6301,0.1972,-0.7831,0.488C-0.7829,0.4874,-9.2507,16.5764,-9.429,16.9152C-9.7686,17.5603,-9.6487,18.3513,-9.1332,18.8668C-9.1332,18.8668,-8.7495,19.2505,-8.5145,19.4855C-8.1851,19.8149,-7.7383,20,-7.2724,20C-7.2728,20,7.146,20,7.3107,20C7.7521,20,8.1753,19.8247,8.4874,19.5126C8.4874,19.5126,8.8559,19.1441,9.1187,18.8813C9.6428,18.3572,9.7647,17.553,9.4195,16.8971C9.42,16.8981,0.9896,0.8803,0.7831,0.488z" data-px-corners="[0,0]=0.885|[0,1]=1.664|[0,2]=1.7566|[0,3]=1.664|[0,4]=1.6917" data-px-src-d="M0,-1L-10,18L-8,20L8,20L10,18L0,-1z"/>
  <path fill="#050505" stroke="#003a73" stroke-width="0" transform="translate(0.875, 6.5)translate(-0.875, -1)" d="M0.6099,0.5C1.1015,0.5,1.5,0.8985,1.5,1.3901C1.5,1.3901,1.5,2.2416,1.5,2.6099C1.5,3.1015,1.1015,3.5,0.6099,3.5C0.6099,3.5,-0.2416,3.5,-0.6099,3.5C-1.1015,3.5,-1.5,3.1015,-1.5,2.6099C-1.5,2.6099,-1.5,1.7584,-1.5,1.3901C-1.5,0.8985,-1.1015,0.5,-0.6099,0.5C-0.6099,0.5,0.2416,0.5,0.6099,0.5z" data-px-corners="[0,0]=0.8901|[0,1]=0.8901|[0,2]=0.8901|[0,3]=0.8901" data-px-src-d="M1.5,0.5L1.5,3.5L-1.5,3.5L-1.5,0.5L1.5,0.5z"/>
  <path fill="#050505" stroke="#003a73" stroke-width="0" transform="translate(-0.25, -6.25)" d="M0.25,0C-0.0592,0,-0.3447,0.1657,-0.4981,0.4341C-0.498,0.4341,-0.8726,1.0895,-0.9839,1.2843C-1.1583,1.5895,-1.25,1.9349,-1.25,2.2863C-1.25,2.286,-1.25,7.0095,-1.25,7.1906C-1.25,7.5566,-1.1505,7.9158,-0.9622,8.2297C-0.9622,8.2296,-0.1534,9.5777,-0.0336,9.7773C0.0262,9.877,0.1338,9.9379,0.25,9.9379C0.3662,9.9379,0.4738,9.877,0.5336,9.7773C0.5336,9.7774,1.3418,8.4303,1.4622,8.2297C1.6505,7.9158,1.75,7.5566,1.75,7.1906C1.75,7.1908,1.75,2.4641,1.75,2.2863C1.75,1.9349,1.6583,1.5895,1.4839,1.2843C1.4839,1.2844,1.1071,0.6249,0.9981,0.4341C0.8447,0.1657,0.5592,0,0.25,0z" data-px-corners="[0,0]=2.0195|[0,1]=2.0195|[0,2]=2.0195|[0,3]=0.3307|[0,4]=2.0195|[0,5]=2.0195|[0,6]=2.0195" data-px-src-d="M-0.25,0L-1.25,1.75L-1.25,7.75L0.25,10.25L1.75,7.75L1.75,1.75L0.75,0L-0.25,0z"/>
</svg>